<svg width="570" height="420" viewBox="0 0 570 420" fill="none" xmlns="http://www.w3.org/2000/svg">
<path opacity="0.1" d="M58 362.847C62.2496 365.112 67.1131 366.08 71.5 367.999C87.7286 375.079 103.949 377.08 121.377 379.512C154.127 384.048 187.915 371.704 220.086 379.407C247.034 385.838 269.321 405.545 295.648 414.321C307.89 418.401 320.627 420 333.477 420H335.136C336.718 420 338.294 419.938 339.875 419.876C352.905 419.37 365.988 417.407 378.761 414.834C419.09 406.81 460.166 390.076 491 363C401.221 346.033 216.102 328.167 58 362.847Z" fill="#252223"/>
<path opacity="0.3" d="M26.8586 153.681V114.181H49.5393V153.681H76.3979V92.579H96.0943V46.9067H112.209V0H145.634V46.9067H161.749V92.579H180.848V37.6488H191.592V9.87509H198.157V37.6488H236.356V212.932H265.602V194.416H283.508V212.932H312.754V153.681H365.277V114.181H387.958V153.681H389.152V229.596H413.026V185.158H441.675V229.596H465.55V92.579H484.052V46.9067H552.094V92.579H570V333.902H465.55H389.152H312.754H236.356H180.848H76.3979H0V153.681H26.8586Z" fill="#EF9A13"/>
<path opacity="0.4" d="M533.592 106.774H558.66V121.587H533.592V106.774Z" fill="white"/>
<path opacity="0.4" d="M502.555 121.587H477.487V106.774H502.555V121.587Z" fill="white"/>
<path opacity="0.4" d="M533.592 135.782H558.66V150.595H533.592V135.782Z" fill="white"/>
<path opacity="0.4" d="M502.555 150.595H477.487V135.782H502.555V150.595Z" fill="white"/>
<path opacity="0.4" d="M533.592 164.791H558.66V179.604H533.592V164.791Z" fill="white"/>
<path opacity="0.4" d="M502.555 179.604H477.487V164.791H502.555V179.604Z" fill="white"/>
<path opacity="0.4" d="M533.592 193.799H558.66V208.611H533.592V193.799Z" fill="white"/>
<path opacity="0.4" d="M502.555 208.611H477.487V193.799H502.555V208.611Z" fill="white"/>
<path opacity="0.4" d="M533.592 222.807H558.66V237.619H533.592V222.807Z" fill="white"/>
<path opacity="0.4" d="M502.555 237.619H477.487V222.807H502.555V237.619Z" fill="white"/>
<path opacity="0.4" d="M533.592 251.814H558.66V266.627H533.592V251.814Z" fill="white"/>
<path opacity="0.4" d="M502.555 266.628H477.487V251.815H502.555V266.628Z" fill="white"/>
<path opacity="0.4" d="M533.592 280.823H558.66V295.636H533.592V280.823Z" fill="white"/>
<path opacity="0.4" d="M502.555 295.636H477.487V280.823H502.555V295.636Z" fill="white"/>
<path opacity="0.4" d="M398.105 244.408H456.597V251.815H398.105V244.408Z" fill="white"/>
<path opacity="0.4" d="M398.105 255.518H456.597V262.924H398.105V255.518Z" fill="white"/>
<path opacity="0.4" d="M398.105 266.628H456.597V274.034H398.105V266.628Z" fill="white"/>
<path opacity="0.4" d="M245.309 248.111H303.801V255.518H245.309V248.111Z" fill="white"/>
<path opacity="0.4" d="M245.309 259.221H303.801V266.627H245.309V259.221Z" fill="white"/>
<path opacity="0.4" d="M245.309 270.33H303.801V277.736H245.309V270.33Z" fill="white"/>
<path opacity="0.4" d="M398.105 277.737H456.597V285.144H398.105V277.737Z" fill="white"/>
<path opacity="0.4" d="M398.105 288.847H456.597V296.253H398.105V288.847Z" fill="white"/>
<path opacity="0.4" d="M398.105 299.956H456.597V307.362H398.105V299.956Z" fill="white"/>
<path opacity="0.4" d="M360.503 167.877H376.618V189.479H360.503V167.877Z" fill="white"/>
<path opacity="0.4" d="M341.403 189.479H325.288V167.877H341.403V189.479Z" fill="white"/>
<path opacity="0.4" d="M360.503 202.439H376.618V224.041H360.503V202.439Z" fill="white"/>
<path opacity="0.4" d="M341.403 224.041H325.288V202.439H341.403V224.041Z" fill="white"/>
<path opacity="0.4" d="M360.503 237.002H376.618V258.604H360.503V237.002Z" fill="white"/>
<path opacity="0.4" d="M341.403 258.604H325.288V237.002H341.403V258.604Z" fill="white"/>
<path opacity="0.4" d="M360.503 271.565H376.618V293.167H360.503V271.565Z" fill="white"/>
<path opacity="0.4" d="M341.403 293.167H325.288V271.565H341.403V293.167Z" fill="white"/>
<path opacity="0.4" d="M214.869 51.8438H236.356V80.2346H214.869V51.8438Z" fill="white"/>
<path opacity="0.4" d="M214.869 92.5791H236.356V120.97H214.869V92.5791Z" fill="white"/>
<path opacity="0.4" d="M214.869 133.313H236.356V161.704H214.869V133.313Z" fill="white"/>
<path opacity="0.4" d="M214.869 174.049H236.356V202.44H214.869V174.049Z" fill="white"/>
<path opacity="0.4" d="M214.869 214.783H236.356V243.174H214.869V214.783Z" fill="white"/>
<path opacity="0.4" d="M214.869 255.518H236.356V283.908H214.869V255.518Z" fill="white"/>
<path opacity="0.4" d="M88.6334 109.86H168.613V133.931H88.6334V109.86Z" fill="white"/>
<path opacity="0.4" d="M88.3351 161.705H168.314V185.776H88.3351V161.705Z" fill="white"/>
<path opacity="0.4" d="M88.0366 213.549H168.016V237.619H88.0366V213.549Z" fill="white"/>
<path opacity="0.4" d="M87.7382 265.394H167.717V289.464H87.7382V265.394Z" fill="white"/>
<path opacity="0.4" d="M541.351 59.8682H552.094V83.3215H541.351V59.8682Z" fill="white"/>
<path opacity="0.4" d="M6.10352e-05 167.877H26.8586V203.674H6.10352e-05V167.877Z" fill="white"/>
<path opacity="0.4" d="M6.10352e-05 219.721H26.8586V255.518H6.10352e-05V219.721Z" fill="white"/>
<path opacity="0.4" d="M6.10352e-05 271.565H26.8586V307.363H6.10352e-05V271.565Z" fill="white"/>
<path d="M540.354 295.975C540.354 295.975 587.345 325.292 500.723 370.427C500.723 370.427 481.623 333.791 502.74 303.918C506.836 298.094 512.855 294.026 519.658 292.484C526.461 290.943 533.574 292.036 539.65 295.555L540.354 295.975Z" fill="#EF9A13"/>
<path d="M539.811 295.357C539.811 295.357 499.601 327.174 500.723 370.427" stroke="#535461" stroke-miterlimit="10"/>
<path d="M498.538 372.093C498.538 372.093 513.263 320.397 495.775 282.347C488.439 266.381 486.004 248.451 489.394 231.12C491.013 222.891 493.361 214.834 496.407 207.05" stroke="#535461" stroke-width="2" stroke-miterlimit="10"/>
<path d="M485.544 183.035C485.544 189.367 496.634 207.722 496.634 207.722C496.634 207.722 507.73 189.349 507.73 183.035C507.764 181.506 507.502 179.986 506.96 178.563C506.418 177.14 505.607 175.844 504.573 174.75C503.54 173.656 502.305 172.787 500.943 172.194C499.58 171.601 498.116 171.295 496.637 171.295C495.158 171.295 493.694 171.601 492.332 172.194C490.969 172.787 489.734 173.656 488.701 174.75C487.667 175.844 486.856 177.14 486.314 178.563C485.772 179.986 485.51 181.506 485.544 183.035Z" fill="#EF9A13"/>
<path d="M467.185 218.128C470.516 223.448 489.484 232.632 489.484 232.632C489.484 232.632 489.144 210.975 485.813 205.661C484.195 203.151 481.687 201.4 478.831 200.788C475.974 200.177 473 200.752 470.551 202.391C468.102 204.03 466.376 206.6 465.746 209.546C465.116 212.491 465.633 215.574 467.185 218.128Z" fill="#EF9A13"/>
<path d="M467.991 278.101C473.458 280.953 494.318 278.978 494.318 278.978C494.318 278.978 483.45 260.462 477.976 257.61C475.354 256.286 472.332 256.084 469.566 257.048C466.801 258.011 464.513 260.063 463.2 262.758C461.887 265.453 461.653 268.574 462.55 271.446C463.446 274.318 465.401 276.709 467.991 278.101Z" fill="#EF9A13"/>
<path d="M478.478 323.336C483.402 327.1 504.28 328.804 504.28 328.804C504.28 328.804 496.598 308.652 491.668 304.888C489.299 303.149 486.365 302.441 483.496 302.915C480.628 303.39 478.053 305.008 476.326 307.424C474.599 309.839 473.857 312.859 474.259 315.834C474.661 318.809 476.176 321.503 478.478 323.336Z" fill="#EF9A13"/>
<path d="M512.779 233.861C508.386 238.274 487.908 242.847 487.908 242.847C487.908 242.847 492.922 221.819 497.321 217.406C498.365 216.357 499.6 215.53 500.954 214.974C502.307 214.418 503.754 214.143 505.21 214.164C506.667 214.186 508.105 214.504 509.443 215.101C510.78 215.697 511.991 216.56 513.006 217.641C514.021 218.721 514.82 219.998 515.358 221.398C515.896 222.797 516.162 224.293 516.141 225.799C516.12 227.305 515.812 228.793 515.236 230.176C514.659 231.559 513.824 232.811 512.779 233.861Z" fill="#EF9A13"/>
<path d="M524.394 286.92C518.927 289.778 498.067 287.803 498.067 287.803C498.067 287.803 508.935 269.287 514.403 266.436C515.707 265.722 517.135 265.284 518.605 265.147C520.075 265.011 521.556 265.18 522.963 265.643C524.369 266.106 525.671 266.854 526.794 267.844C527.917 268.834 528.838 270.046 529.503 271.408C530.167 272.771 530.562 274.257 530.665 275.779C530.767 277.301 530.575 278.829 530.099 280.274C529.623 281.718 528.874 283.05 527.894 284.192C526.914 285.333 525.725 286.261 524.394 286.92Z" fill="#EF9A13"/>
<path d="M528.841 340.098C523.917 343.863 503.032 345.566 503.032 345.566C503.032 345.566 510.72 325.415 515.65 321.65C518.019 319.912 520.953 319.204 523.822 319.678C526.691 320.152 529.265 321.771 530.992 324.187C532.72 326.602 533.462 329.622 533.059 332.597C532.657 335.572 531.142 338.265 528.841 340.098Z" fill="#EF9A13"/>
<path opacity="0.25" d="M485.544 183.035C485.544 189.367 496.634 207.722 496.634 207.722C496.634 207.722 507.73 189.349 507.73 183.035C507.764 181.506 507.502 179.986 506.96 178.563C506.418 177.14 505.607 175.844 504.573 174.75C503.54 173.656 502.305 172.787 500.943 172.194C499.58 171.601 498.116 171.295 496.637 171.295C495.158 171.295 493.694 171.601 492.332 172.194C490.969 172.787 489.734 173.656 488.701 174.75C487.667 175.844 486.856 177.14 486.314 178.563C485.772 179.986 485.51 181.506 485.544 183.035Z" fill="black"/>
<path opacity="0.25" d="M467.185 218.128C470.516 223.448 489.484 232.632 489.484 232.632C489.484 232.632 489.144 210.975 485.813 205.661C484.195 203.151 481.687 201.4 478.831 200.788C475.974 200.177 473 200.752 470.551 202.391C468.102 204.03 466.376 206.6 465.746 209.546C465.116 212.491 465.633 215.574 467.185 218.128Z" fill="black"/>
<path opacity="0.25" d="M467.991 278.101C473.458 280.953 494.318 278.978 494.318 278.978C494.318 278.978 483.45 260.462 477.976 257.61C475.354 256.286 472.332 256.084 469.566 257.048C466.801 258.011 464.513 260.063 463.2 262.758C461.887 265.453 461.653 268.574 462.55 271.446C463.446 274.318 465.401 276.709 467.991 278.101Z" fill="black"/>
<path opacity="0.25" d="M478.478 323.336C483.402 327.1 504.28 328.804 504.28 328.804C504.28 328.804 496.598 308.652 491.668 304.888C489.299 303.149 486.365 302.441 483.496 302.915C480.628 303.39 478.053 305.008 476.326 307.424C474.599 309.839 473.857 312.859 474.259 315.834C474.661 318.809 476.176 321.503 478.478 323.336Z" fill="black"/>
<path opacity="0.25" d="M512.779 233.861C508.386 238.274 487.908 242.847 487.908 242.847C487.908 242.847 492.922 221.819 497.321 217.406C498.365 216.357 499.6 215.53 500.954 214.974C502.307 214.418 503.754 214.143 505.21 214.164C506.667 214.186 508.105 214.504 509.443 215.101C510.78 215.697 511.991 216.56 513.006 217.641C514.021 218.721 514.82 219.998 515.358 221.398C515.896 222.797 516.162 224.293 516.141 225.799C516.12 227.305 515.812 228.793 515.236 230.176C514.659 231.559 513.824 232.811 512.779 233.861Z" fill="black"/>
<path opacity="0.25" d="M524.394 286.92C518.927 289.778 498.067 287.803 498.067 287.803C498.067 287.803 508.935 269.287 514.403 266.436C515.707 265.722 517.135 265.284 518.605 265.147C520.075 265.011 521.556 265.18 522.963 265.643C524.369 266.106 525.671 266.854 526.794 267.844C527.917 268.834 528.838 270.046 529.503 271.408C530.167 272.771 530.562 274.257 530.665 275.779C530.767 277.301 530.575 278.829 530.099 280.274C529.623 281.718 528.874 283.05 527.894 284.192C526.914 285.333 525.725 286.261 524.394 286.92Z" fill="black"/>
<path opacity="0.25" d="M528.841 340.098C523.917 343.863 503.032 345.566 503.032 345.566C503.032 345.566 510.72 325.415 515.65 321.65C518.019 319.912 520.953 319.204 523.822 319.678C526.691 320.152 529.265 321.771 530.992 324.187C532.72 326.602 533.462 329.622 533.059 332.597C532.657 335.572 531.142 338.265 528.841 340.098Z" fill="black"/>
<path d="M38.927 358.744C38.927 358.744 53.6516 307.048 36.1636 268.998C28.8282 253.031 26.3871 235.102 29.7772 217.771C31.402 209.543 33.7494 201.486 36.7903 193.7" stroke="#535461" stroke-width="2" stroke-miterlimit="10"/>
<path d="M25.9097 169.686C25.9097 176.018 37.0052 194.373 37.0052 194.373C37.0052 194.373 48.1008 175.999 48.1008 169.686C48.1008 166.643 46.9318 163.724 44.851 161.572C42.7702 159.421 39.948 158.212 37.0052 158.212C34.0625 158.212 31.2403 159.421 29.1595 161.572C27.0786 163.724 25.9097 166.643 25.9097 169.686Z" fill="#EF9A13"/>
<path d="M7.57411 204.779C10.9046 210.099 29.8728 219.283 29.8728 219.283C29.8728 219.283 29.5266 197.626 26.1961 192.312C24.5973 189.758 22.083 187.966 19.2064 187.329C16.3297 186.693 13.3263 187.264 10.8568 188.917C8.3874 190.57 6.65424 193.17 6.03861 196.145C5.42298 199.12 5.97531 202.225 7.57411 204.779Z" fill="#EF9A13"/>
<path d="M8.37393 264.752C13.8471 267.603 34.7073 265.628 34.7073 265.628C34.7073 265.628 23.8325 247.112 18.3653 244.261C15.7376 242.891 12.6912 242.656 9.89624 243.609C7.10128 244.561 4.78675 246.623 3.4618 249.34C2.13686 252.058 1.91001 255.208 2.83121 258.098C3.75242 260.988 5.74621 263.382 8.37393 264.752Z" fill="#EF9A13"/>
<path d="M18.8607 309.985C23.7908 313.75 44.6689 315.453 44.6689 315.453C44.6689 315.453 36.9814 295.302 32.0573 291.537C29.69 289.756 26.738 289.015 23.8446 289.475C20.9512 289.935 18.3508 291.559 16.6099 293.992C14.869 296.426 14.1287 299.472 14.5503 302.468C14.9719 305.463 16.5212 308.165 18.8607 309.985Z" fill="#EF9A13"/>
<path d="M53.1681 220.492C48.7693 224.905 28.297 229.478 28.297 229.478C28.297 229.478 33.3106 208.451 37.7035 204.038C38.7433 202.963 39.9794 202.113 41.3397 201.536C42.7 200.96 44.1576 200.669 45.6277 200.68C47.0977 200.691 48.551 201.004 49.9031 201.601C51.2552 202.198 52.479 203.067 53.5036 204.157C54.5282 205.247 55.3331 206.537 55.8715 207.951C56.4099 209.366 56.6711 210.877 56.6398 212.397C56.6086 213.917 56.2856 215.415 55.6896 216.805C55.0937 218.194 54.2365 219.448 53.1681 220.492Z" fill="#EF9A13"/>
<path d="M64.7591 273.571C59.286 276.428 38.4258 274.453 38.4258 274.453C38.4258 274.453 49.2946 255.938 54.7677 253.086C56.0718 252.372 57.5006 251.934 58.9704 251.798C60.4402 251.662 61.9215 251.83 63.3277 252.293C64.7338 252.756 66.0364 253.504 67.1594 254.494C68.2824 255.484 69.2031 256.696 69.8676 258.059C70.5322 259.421 70.9272 260.907 71.0296 262.429C71.1321 263.952 70.9398 265.48 70.4641 266.924C69.9884 268.369 69.2388 269.701 68.2592 270.842C67.2796 271.983 66.0897 272.911 64.7591 273.571Z" fill="#EF9A13"/>
<path d="M69.2295 326.749C64.2995 330.513 43.4214 332.217 43.4214 332.217C43.4214 332.217 51.1089 312.072 56.033 308.301C58.4003 306.52 61.3522 305.779 64.2456 306.239C67.139 306.699 69.7395 308.322 71.4804 310.756C73.2212 313.189 73.9615 316.236 73.5399 319.232C73.1183 322.227 71.569 324.929 69.2295 326.749Z" fill="#EF9A13"/>
<path d="M105.346 353.713C105.346 353.713 113.26 325.94 103.859 305.486C99.8685 296.935 98.6644 287.277 100.427 277.959C101.301 273.541 102.564 269.215 104.2 265.035" stroke="#535461" stroke-width="2" stroke-miterlimit="10"/>
<path d="M98.3504 252.111C98.3504 255.518 104.319 265.393 104.319 265.393C104.319 265.393 110.288 255.518 110.288 252.111C110.288 250.474 109.659 248.905 108.539 247.747C107.42 246.59 105.902 245.939 104.319 245.939C102.736 245.939 101.218 246.59 100.099 247.747C98.9792 248.905 98.3504 250.474 98.3504 252.111Z" fill="#EF9A13"/>
<path d="M88.4963 270.972C90.2869 273.83 100.481 278.767 100.481 278.767C100.481 278.767 100.296 267.127 98.5056 264.27C97.6129 262.977 96.2728 262.09 94.7639 261.793C93.2549 261.497 91.6934 261.813 90.4042 262.676C89.1149 263.539 88.1972 264.883 87.8418 266.429C87.4865 267.974 87.7209 269.601 88.4963 270.972Z" fill="#EF9A13"/>
<path d="M88.9259 303.196C91.8685 304.727 103.078 303.665 103.078 303.665C103.078 303.665 97.2342 293.716 94.2977 292.185C92.8955 291.53 91.3028 291.46 89.8519 291.99C88.4011 292.52 87.2043 293.609 86.5113 295.03C85.8182 296.45 85.6825 298.093 86.1324 299.614C86.5823 301.136 87.5831 302.419 88.9259 303.196Z" fill="#EF9A13"/>
<path d="M94.5664 327.508C97.2105 329.532 108.431 330.446 108.431 330.446C108.431 330.446 104.301 319.62 101.651 317.596C101.026 317.061 100.302 316.664 99.5235 316.429C98.745 316.193 97.9283 316.124 97.1232 316.226C96.3181 316.328 95.5416 316.599 94.8409 317.021C94.1403 317.444 93.5303 318.01 93.0482 318.684C92.5661 319.359 92.222 320.128 92.037 320.944C91.8519 321.761 91.8297 322.608 91.9718 323.434C92.1138 324.259 92.4172 325.047 92.8633 325.747C93.3094 326.448 93.8889 327.047 94.5664 327.508Z" fill="#EF9A13"/>
<path d="M112.997 279.428C110.61 281.798 99.6336 284.255 99.6336 284.255C99.6336 284.255 102.325 272.954 104.689 270.584C105.241 269.975 105.907 269.487 106.646 269.152C107.386 268.816 108.183 268.64 108.991 268.632C109.798 268.625 110.599 268.787 111.344 269.108C112.089 269.43 112.763 269.904 113.326 270.503C113.888 271.102 114.328 271.813 114.617 272.592C114.906 273.372 115.039 274.204 115.009 275.038C114.978 275.873 114.784 276.692 114.438 277.447C114.092 278.201 113.602 278.875 112.997 279.428Z" fill="#EF9A13"/>
<path d="M119.24 307.943C116.298 309.474 105.089 308.418 105.089 308.418C105.089 308.418 110.932 298.469 113.875 296.932C115.277 296.277 116.87 296.207 118.32 296.737C119.771 297.267 120.968 298.356 121.661 299.777C122.354 301.197 122.49 302.84 122.04 304.361C121.59 305.883 120.589 307.166 119.246 307.943H119.24Z" fill="#EF9A13"/>
<path d="M121.628 336.525C118.984 338.549 107.763 339.463 107.763 339.463C107.763 339.463 111.911 328.631 114.537 326.606C115.813 325.71 117.374 325.358 118.894 325.626C120.415 325.893 121.776 326.759 122.693 328.041C123.61 329.324 124.011 330.923 123.812 332.505C123.614 334.086 122.831 335.527 121.628 336.525Z" fill="#EF9A13"/>
<path opacity="0.1" d="M412.023 29.4281H416.13C415.741 29.4464 415.353 29.3831 414.989 29.242C414.625 29.1009 414.293 28.885 414.011 28.6072C413.73 28.3295 413.507 27.9957 413.354 27.626C413.201 27.2563 413.122 26.8584 413.122 26.4563C413.122 26.0542 413.201 25.6563 413.354 25.2867C413.507 24.917 413.73 24.5832 414.011 24.3054C414.293 24.0276 414.625 23.8117 414.989 23.6706C415.353 23.5295 415.741 23.4662 416.13 23.4845H449.393C449.781 23.4662 450.169 23.5295 450.533 23.6706C450.897 23.8117 451.23 24.0276 451.511 24.3054C451.792 24.5832 452.016 24.917 452.169 25.2867C452.322 25.6563 452.401 26.0542 452.401 26.4563C452.401 26.8584 452.322 27.2563 452.169 27.626C452.016 27.9957 451.792 28.3295 451.511 28.6072C451.23 28.885 450.897 29.1009 450.533 29.242C450.169 29.3831 449.781 29.4464 449.393 29.4281H445.286C446.049 29.4281 446.781 29.7415 447.321 30.2994C447.86 30.8573 448.163 31.614 448.163 32.403C448.163 33.192 447.86 33.9486 447.321 34.5065C446.781 35.0644 446.049 35.3778 445.286 35.3778H451.034C451.423 35.3595 451.811 35.4228 452.175 35.5639C452.539 35.705 452.871 35.921 453.153 36.1987C453.434 36.4765 453.657 36.8103 453.81 37.18C453.963 37.5497 454.042 37.9476 454.042 38.3496C454.042 38.7517 453.963 39.1496 453.81 39.5193C453.657 39.889 453.434 40.2228 453.153 40.5005C452.871 40.7783 452.539 40.9942 452.175 41.1353C451.811 41.2764 451.423 41.3397 451.034 41.3214H417.771C417.383 41.3397 416.995 41.2764 416.631 41.1353C416.267 40.9942 415.934 40.7783 415.653 40.5005C415.372 40.2228 415.148 39.889 414.995 39.5193C414.842 39.1496 414.763 38.7517 414.763 38.3496C414.763 37.9476 414.842 37.5497 414.995 37.18C415.148 36.8103 415.372 36.4765 415.653 36.1987C415.934 35.921 416.267 35.705 416.631 35.5639C416.995 35.4228 417.383 35.3595 417.771 35.3778H412.023C411.26 35.3778 410.529 35.0644 409.989 34.5065C409.45 33.9486 409.147 33.192 409.147 32.403C409.147 31.614 409.45 30.8573 409.989 30.2994C410.529 29.7415 411.26 29.4281 412.023 29.4281Z" fill="#252223"/>
<path opacity="0.1" d="M265.196 104.108H269.303C268.914 104.126 268.526 104.063 268.162 103.922C267.798 103.781 267.465 103.565 267.184 103.287C266.903 103.009 266.679 102.675 266.526 102.306C266.374 101.936 266.295 101.538 266.295 101.136C266.295 100.734 266.374 100.336 266.526 99.9664C266.679 99.5967 266.903 99.2629 267.184 98.9851C267.465 98.7073 267.798 98.4914 268.162 98.3503C268.526 98.2092 268.914 98.1459 269.303 98.1642H302.566C302.954 98.1459 303.342 98.2092 303.706 98.3503C304.07 98.4914 304.403 98.7073 304.684 98.9851C304.965 99.2629 305.189 99.5967 305.342 99.9664C305.495 100.336 305.573 100.734 305.573 101.136C305.573 101.538 305.495 101.936 305.342 102.306C305.189 102.675 304.965 103.009 304.684 103.287C304.403 103.565 304.07 103.781 303.706 103.922C303.342 104.063 302.954 104.126 302.566 104.108H298.459C299.222 104.108 299.954 104.421 300.493 104.979C301.033 105.537 301.336 106.294 301.336 107.083C301.336 107.872 301.033 108.628 300.493 109.186C299.954 109.744 299.222 110.058 298.459 110.058H304.207C304.595 110.039 304.983 110.103 305.347 110.244C305.711 110.385 306.044 110.601 306.325 110.878C306.606 111.156 306.83 111.49 306.983 111.86C307.136 112.229 307.215 112.627 307.215 113.029C307.215 113.431 307.136 113.829 306.983 114.199C306.83 114.569 306.606 114.902 306.325 115.18C306.044 115.458 305.711 115.674 305.347 115.815C304.983 115.956 304.595 116.019 304.207 116.001H270.944C270.556 116.019 270.168 115.956 269.803 115.815C269.439 115.674 269.107 115.458 268.826 115.18C268.544 114.902 268.321 114.569 268.168 114.199C268.015 113.829 267.936 113.431 267.936 113.029C267.936 112.627 268.015 112.229 268.168 111.86C268.321 111.49 268.544 111.156 268.826 110.878C269.107 110.601 269.439 110.385 269.803 110.244C270.168 110.103 270.556 110.039 270.944 110.058H265.196C264.818 110.058 264.444 109.981 264.095 109.831C263.746 109.682 263.429 109.462 263.162 109.186C262.895 108.91 262.683 108.582 262.538 108.221C262.394 107.86 262.319 107.473 262.319 107.083C262.319 106.692 262.394 106.305 262.538 105.944C262.683 105.583 262.895 105.255 263.162 104.979C263.429 104.703 263.746 104.484 264.095 104.334C264.444 104.185 264.818 104.108 265.196 104.108Z" fill="#252223"/>
<path opacity="0.1" d="M15.1124 6.59119H19.2188C18.8304 6.60949 18.4425 6.5462 18.0784 6.40511C17.7143 6.26402 17.3816 6.04807 17.1004 5.77031C16.8193 5.49255 16.5956 5.15875 16.4427 4.78906C16.2898 4.41937 16.211 4.02147 16.211 3.6194C16.211 3.21733 16.2898 2.81943 16.4427 2.44974C16.5956 2.08005 16.8193 1.74624 17.1004 1.46849C17.3816 1.19073 17.7143 0.974783 18.0784 0.833695C18.4425 0.692608 18.8304 0.629308 19.2188 0.647617H52.4818C52.8702 0.629308 53.2582 0.692608 53.6223 0.833695C53.9864 0.974783 54.319 1.19073 54.6002 1.46849C54.8813 1.74624 55.1051 2.08005 55.2579 2.44974C55.4108 2.81943 55.4896 3.21733 55.4896 3.6194C55.4896 4.02147 55.4108 4.41937 55.2579 4.78906C55.1051 5.15875 54.8813 5.49255 54.6002 5.77031C54.319 6.04807 53.9864 6.26402 53.6223 6.40511C53.2582 6.5462 52.8702 6.60949 52.4818 6.59119H48.3754C49.1384 6.59119 49.8701 6.90461 50.4096 7.4625C50.9491 8.0204 51.2522 8.77707 51.2522 9.56606C51.2522 10.355 50.9491 11.1117 50.4096 11.6696C49.8701 12.2275 49.1384 12.5409 48.3754 12.5409H54.1231C54.5115 12.5226 54.8995 12.5859 55.2636 12.727C55.6277 12.8681 55.9604 13.084 56.2415 13.3618C56.5227 13.6396 56.7464 13.9734 56.8993 14.3431C57.0522 14.7127 57.131 15.1106 57.131 15.5127C57.131 15.9148 57.0522 16.3127 56.8993 16.6824C56.7464 17.0521 56.5227 17.3859 56.2415 17.6636C55.9604 17.9414 55.6277 18.1573 55.2636 18.2984C54.8995 18.4395 54.5115 18.5028 54.1231 18.4845H20.8602C20.4717 18.5028 20.0838 18.4395 19.7197 18.2984C19.3556 18.1573 19.0229 17.9414 18.7418 17.6636C18.4607 17.3859 18.2369 17.0521 18.084 16.6824C17.9312 16.3127 17.8523 15.9148 17.8523 15.5127C17.8523 15.1106 17.9312 14.7127 18.084 14.3431C18.2369 13.9734 18.4607 13.6396 18.7418 13.3618C19.0229 13.084 19.3556 12.8681 19.7197 12.727C20.0838 12.5859 20.4717 12.5226 20.8602 12.5409H15.1124C14.3494 12.5409 13.6177 12.2275 13.0782 11.6696C12.5387 11.1117 12.2356 10.355 12.2356 9.56606C12.2356 8.77707 12.5387 8.0204 13.0782 7.4625C13.6177 6.90461 14.3494 6.59119 15.1124 6.59119Z" fill="#252223"/>
<path d="M148.916 326.397C148.679 326.397 148.451 326.299 148.283 326.125C148.115 325.952 148.021 325.716 148.021 325.471C148.021 325.225 148.115 324.99 148.283 324.816C148.451 324.642 148.679 324.545 148.916 324.545C149.154 324.545 149.381 324.642 149.549 324.816C149.717 324.99 149.812 325.225 149.812 325.471C149.812 325.716 149.717 325.952 149.549 326.125C149.381 326.299 149.154 326.397 148.916 326.397Z" fill="#535461"/>
<g opacity="0.5">
<path opacity="0.5" d="M258.422 273.422L267.094 231.206H266.205L266.342 230.49H266.092L270.58 207.654C270.58 207.654 270.353 183.8 269.261 174.573C268.461 167.839 267.196 159.26 268.121 152.039C267.993 151.84 267.876 151.634 267.769 151.422C267.386 150.654 267.154 149.814 267.088 148.953C266.754 146.935 267.016 144.859 267.84 142.997L258.822 137.171C258.619 137.171 258.41 137.214 258.225 137.226C258.225 137.14 258.309 137.004 258.374 136.825C254.108 137.057 249.881 135.874 246.31 133.448C242.739 131.022 240.011 127.481 238.523 123.339C237.729 124.572 236.747 125.664 235.616 126.574C233.187 128.456 229.361 128.876 227.338 126.537C226.601 125.603 226.102 124.493 225.887 123.309C225.768 122.778 225.684 122.235 225.613 121.698C224.467 115.39 226.979 108.885 230.22 103.355C234.273 96.4483 239.651 90.1962 246.485 86.2708C253.319 82.3455 261.705 80.9383 269.1 83.5552C276.495 86.1721 283.944 93.276 284.618 101.33C284.952 105.447 284.475 107.354 285.298 111.397C285.71 113.409 284.821 117.328 284.833 119.55C284.905 119.958 284.953 120.37 284.976 120.784C285.096 123.253 284.147 125.586 283.454 127.956C293.207 128.462 318.854 130.505 326.261 138.294C335.476 147.978 358.073 151.44 358.073 151.44L395.705 159.272L408.836 165.037L408.687 165.654L408.95 165.771C408.95 165.771 408.484 167.568 407.816 169.938C410.745 172.679 412.663 176.388 413.241 180.43C413.969 184.621 413.581 190.015 411.015 196.897C411.015 196.897 398.057 221.504 397.162 231.428L380.808 265.183C382.21 268.077 396.225 297.332 398.636 313.707C398.827 314.886 398.956 316.074 399.024 317.268C399.024 317.268 399.113 318.132 399.334 319.57C400.295 325.637 403.333 340.554 410.752 347.529L410.657 347.615L410.872 347.831L410.704 347.979C412.931 352.38 409.714 358.342 409.714 358.342L406.055 375.241L401.96 375.926L397.651 374.111L395.264 378.857C395.264 378.857 376.672 381.943 371.389 381.764C366.107 381.585 375.866 372.328 379.286 369.581C381.184 368.063 382.67 361.823 383.613 356.571C383.115 356.153 382.668 355.674 382.282 355.145C382.282 355.145 384.556 342.801 377.71 325.865C374.791 318.656 371.652 310.368 368.996 303.227C367.569 312.818 366.071 322.699 364.967 329.445C363.362 339.215 363.571 345.177 364.066 348.541C364.158 349.714 364.425 350.866 364.86 351.954C364.838 351.985 364.818 352.018 364.8 352.053C364.831 352.14 364.869 352.225 364.913 352.306C364.878 352.367 364.842 352.423 364.812 352.485C368.548 356.904 364.657 364.113 364.657 364.113L360.998 380.962L356.904 381.647L352.594 379.833L350.207 384.579C350.207 384.579 331.615 387.665 326.333 387.486C321.05 387.307 330.809 378.049 334.235 375.302C336.903 373.161 338.753 361.662 339.44 356.731C338.944 356.682 338.67 356.645 338.67 356.645L338.723 356.305H338.61L340.95 342.159C344.949 338.598 344.393 288.007 344.393 288.007C344.393 288.007 346.476 293.296 346.542 292.87C346.339 292.018 345.587 289.611 343.844 284.482C342.821 281.541 342.063 278.508 341.582 275.422C339.69 263.381 343.218 256.017 343.218 256.017C342.985 253.598 345.45 244.198 348.363 234.187L339.213 215.746C337.94 216.241 336.559 216.358 335.226 216.085L328.296 203.124C328.296 203.124 313.972 194.298 309.871 194.983C306.057 195.6 294.108 192.897 289.488 187.75C289.156 187.374 288.853 186.971 288.581 186.546C284.863 180.652 286.391 217.319 286.391 217.319L288.378 230.021L288.486 230.725L282.559 230.848L268.592 280.384C268.592 280.384 267.715 297.184 251.845 300.918C235.974 304.652 258.422 273.422 258.422 273.422ZM353.818 216.171C354.677 213.431 355.429 211.067 355.996 209.296L353.042 206.914C353.042 206.914 352.672 207.235 352.045 207.747L353.818 216.171Z" fill="url(#paint0_linear)"/>
</g>
<path d="M339.416 351.375C339.416 351.375 337.392 369.002 334.044 371.68C330.696 374.359 321.194 383.351 326.344 383.549C331.495 383.746 349.622 380.722 349.622 380.722L351.968 376.093L356.146 377.858L360.139 377.192L363.72 360.719C363.72 360.719 368.745 351.412 361.673 347.653C354.6 343.894 339.416 351.375 339.416 351.375Z" fill="#3A384D"/>
<path opacity="0.1" d="M356.42 206.859C356.42 206.859 342.364 250.118 342.895 255.672C342.895 255.672 337.744 266.412 343.427 283.107C349.109 299.802 344.023 286.89 344.023 286.89C344.023 286.89 344.561 336.198 340.669 339.672L338.389 353.46C338.389 353.46 360.306 356.151 363.994 349.183C363.994 349.183 361.141 344.017 363.935 326.964C366.728 309.911 372.112 272.337 372.112 272.337L386.699 186.627L356.42 206.859Z" fill="black"/>
<path d="M356.366 206.513C356.366 206.513 342.31 249.797 342.842 255.351C342.842 255.351 337.691 266.09 343.373 282.786C349.055 299.481 343.97 286.569 343.97 286.569C343.97 286.569 344.507 335.883 340.615 339.351L338.335 353.146C338.335 353.146 360.252 355.83 363.941 348.862C363.941 348.862 361.088 343.696 363.881 326.643C366.674 309.59 372.064 271.997 372.064 271.997L386.645 186.281L356.366 206.513Z" fill="#BEC7DE"/>
<path opacity="0.1" d="M383.028 188.528L368.733 272.553C368.733 272.553 363.362 310.146 360.55 327.199C357.739 344.252 360.61 349.418 360.61 349.418C359.536 351.448 356.927 352.652 353.764 353.349C358.205 352.812 362.21 351.56 363.606 348.918C363.606 348.918 360.747 343.752 363.541 326.699C366.334 309.646 371.724 272.053 371.724 272.053L386.311 186.337L383.028 188.528Z" fill="black"/>
<path d="M383.249 345.813C383.249 345.813 381.232 363.44 377.877 366.119C374.523 368.797 365.027 377.79 370.178 377.987C375.329 378.185 393.455 375.161 393.455 375.161L395.801 370.532L399.979 372.303L403.972 371.63L407.553 355.157C407.553 355.157 412.579 345.85 405.512 342.091C398.445 338.333 383.249 345.813 383.249 345.813Z" fill="#3A384D"/>
<path opacity="0.1" d="M356.42 206.859C356.42 206.859 342.364 250.118 342.895 255.672C342.895 255.672 337.744 266.412 343.427 283.107C349.109 299.802 344.023 286.89 344.023 286.89C344.023 286.89 344.561 336.198 340.669 339.672L338.389 353.46C338.389 353.46 360.306 356.151 363.994 349.183C363.994 349.183 361.141 344.017 363.935 326.964C366.728 309.911 372.112 272.337 372.112 272.337L386.699 186.627L356.42 206.859Z" fill="black"/>
<path opacity="0.1" d="M400.964 168.716C400.964 168.716 416.607 174.925 408.192 197.502C408.192 197.502 395.556 221.486 394.679 231.163L378.683 264.183C378.683 264.183 395.741 299.092 396.499 314.842C396.499 314.842 398.779 335.987 407.983 344.678C407.983 344.678 388.185 362.101 380.814 352.041C380.814 352.041 383.028 340.03 376.349 323.502C369.67 306.973 361.75 284.68 361.75 284.68C361.75 284.68 342.597 271.293 355.358 243.754L369.682 182.436L369.915 168.636L380.903 164.686L400.964 168.716Z" fill="black"/>
<path opacity="0.1" d="M401.68 168.944C401.68 168.944 417.324 175.153 408.908 197.73C408.908 197.73 396.278 221.72 395.401 231.398L379.405 264.418C379.405 264.418 396.463 299.32 397.209 315.077C397.209 315.077 399.489 336.216 408.699 344.912C408.699 344.912 388.901 362.336 381.524 352.275C381.524 352.275 383.744 340.259 377.065 323.736C370.387 307.214 362.466 284.89 362.466 284.89C362.466 284.89 343.307 271.503 356.068 243.964L370.393 182.646L370.625 168.846L381.607 164.896L401.68 168.944Z" fill="black"/>
<path d="M401.626 168.605C401.626 168.605 417.27 174.82 408.854 197.391C408.854 197.391 399.573 215.012 396.374 226.14C394.977 230.919 393.18 235.564 391.002 240.02L379.351 264.091C379.351 264.091 396.41 298.999 397.162 314.75C397.162 314.75 399.442 335.895 408.651 344.585C408.651 344.585 388.853 362.008 381.476 351.948C381.476 351.948 383.697 339.938 377.018 323.409C370.339 306.881 362.418 284.563 362.418 284.563C362.418 284.563 343.259 271.176 356.02 243.637L370.345 182.319L370.578 168.518L381.56 164.568L401.626 168.605Z" fill="#BEC7DE"/>
<path opacity="0.1" d="M401.626 168.605L381.542 164.55L378.922 165.494L397.633 169.265C397.633 169.265 413.277 175.474 404.861 198.051C404.861 198.051 395.586 215.672 392.381 226.8C390.984 231.58 389.187 236.224 387.009 240.681L375.352 264.751C375.352 264.751 392.435 299.647 393.169 315.398C393.169 315.398 395.455 336.543 404.658 345.233C404.658 345.233 396.129 352.738 388.185 355.053C396.947 354.867 408.651 344.56 408.651 344.56C399.442 335.87 397.162 314.725 397.162 314.725C396.41 298.974 379.351 264.066 379.351 264.066L391.002 239.995C393.18 235.539 394.977 230.895 396.374 226.115C399.573 215.005 408.854 197.366 408.854 197.366C417.27 174.82 401.626 168.605 401.626 168.605Z" fill="black"/>
<path d="M337.171 212.543L349.628 237.632C349.628 237.632 345.975 271.059 352.952 272.009C359.93 272.96 357.13 235.323 357.13 235.323L350.416 203.272L337.171 212.543Z" fill="#BE7C5E"/>
<path d="M269.088 228.862L260.183 272.337C260.183 272.337 238.326 302.808 253.796 299.166C269.267 295.525 270.12 279.126 270.12 279.126L285.042 226.171L269.088 228.862Z" fill="#BE7C5E"/>
<path d="M260.212 139.301L282.237 153.62L290.097 131.839C290.097 131.839 271.869 133.123 269.744 126.068C267.619 119.014 260.212 139.301 260.212 139.301Z" fill="#BE7C5E"/>
<path d="M271.523 148.355L272.931 142.115L294.639 143.43L303.383 179.727L287.095 180.332L277.975 165.624L273.003 151.281L271.523 148.355Z" fill="#BE7C5E"/>
<path opacity="0.1" d="M279.031 141.806L277.241 131.345C277.241 131.345 317.415 131.863 326.398 141.3C335.381 150.737 357.405 154.119 357.405 154.119L394.088 161.748L406.914 167.37C406.914 167.37 403.297 181.381 401.746 182.35C400.194 183.319 382.873 168.561 382.873 168.561L376.308 170.364L397.687 193.607L358.229 233.725L357.5 211.617L352.445 207.531C352.445 207.531 340.43 218.023 335.071 216.431L328.314 203.797C328.314 203.797 314.348 195.193 310.355 195.86C306.636 196.477 294.986 193.829 290.485 188.812C290.169 188.46 289.882 188.082 289.626 187.682C285.997 181.936 287.489 217.678 287.489 217.678L289.53 230.744L267.763 231.207L272.132 208.951C272.132 208.951 271.911 185.701 270.849 176.702C269.786 167.704 267.864 155.329 271.762 147.614L279.425 155.156L292.759 177.289L287.698 158.02L279.031 141.806Z" fill="black"/>
<path d="M278.918 141.115L280.822 130.382C280.822 130.382 317.284 131.172 326.267 140.609C335.25 150.046 357.303 153.422 357.303 153.422L393.986 161.056L406.759 166.685C406.759 166.685 403.142 180.695 401.59 181.658C400.039 182.621 382.712 167.876 382.712 167.876L376.146 169.679L397.526 192.922L358.067 233.04L357.339 210.926L352.266 206.834C352.266 206.834 340.251 217.326 334.891 215.74L328.135 203.106C328.135 203.106 314.246 194.502 310.229 195.187C306.511 195.804 294.86 193.15 290.36 188.133C290.044 187.781 289.757 187.403 289.5 187.003C285.871 181.257 287.364 217.005 287.364 217.005L289.405 230.071L267.637 230.534L272.006 208.278C272.006 208.278 271.786 185.022 270.723 176.029C269.661 167.037 267.739 154.65 271.636 146.941L279.3 154.452L292.652 176.566L287.59 157.298L278.918 141.115Z" fill="#7FAFF2"/>
<path opacity="0.1" d="M324.906 154.779C324.906 154.779 346.638 173.733 348.912 183.942L324.906 154.779Z" fill="black"/>
<path opacity="0.1" d="M301.181 171.117C301.181 171.117 317.893 184.202 320.877 192.521L301.181 171.117Z" fill="black"/>
<path opacity="0.1" d="M349.986 190.817C349.986 190.817 351.556 198.668 351.866 202.853L349.986 190.817Z" fill="black"/>
<path opacity="0.1" d="M357.93 208.895C357.93 208.895 382.962 185.658 386.466 186.133L357.93 208.895Z" fill="black"/>
<path opacity="0.1" d="M269.482 126.463C267.446 119.711 260.571 138.017 259.992 139.591C260.646 139.553 261.297 139.478 261.943 139.368C264.554 138.937 267.052 137.959 269.285 136.496C271.518 135.032 273.439 133.114 274.931 130.857C272.251 129.987 270.114 128.611 269.482 126.463Z" fill="black"/>
<path d="M259.09 139.232C248.298 139.232 239.549 130.185 239.549 119.025C239.549 107.865 248.298 98.8184 259.09 98.8184C269.883 98.8184 278.632 107.865 278.632 119.025C278.632 130.185 269.883 139.232 259.09 139.232Z" fill="#BE7C5E"/>
<path opacity="0.1" d="M243.22 121.939C241.686 124.55 240.289 127.383 237.92 129.21C235.55 131.036 231.82 131.45 229.85 129.173C229.134 128.261 228.65 127.179 228.442 126.025C226.997 119.662 229.522 113.064 232.799 107.453C236.75 100.72 241.996 94.6282 248.651 90.7893C255.306 86.9503 263.489 85.5863 270.699 88.1415C277.909 90.6967 283.83 97.5228 284.427 105.374C284.755 109.385 283.776 113.477 284.582 117.421C285 119.476 285.901 121.433 286.003 123.531C286.194 127.426 283.615 131.049 283.848 134.943C283.991 137.344 285.179 139.523 285.907 141.813C287.698 147.33 286.731 153.336 287.101 159.137C287.471 164.939 289.924 171.444 295.296 173.16C289.357 176.246 281.168 172.999 278.751 166.593C278.017 164.636 277.748 162.464 276.632 160.711C274.746 157.749 270.825 156.576 269.243 153.428C267.661 150.281 269.034 146.448 270.765 143.393C272.496 140.338 274.656 137.264 274.692 133.727C274.68 132.001 274.159 130.319 273.199 128.905C272.24 127.492 270.887 126.414 269.32 125.815C267.691 125.229 265.93 125.198 264.217 125C259.968 124.436 255.909 122.834 252.376 120.328C247.786 117.224 246.556 116.261 243.22 121.939Z" fill="black"/>
<path d="M243.094 121.056C241.561 123.673 240.164 126.5 237.794 128.333C235.425 130.166 231.695 130.573 229.725 128.296C229.01 127.384 228.526 126.302 228.316 125.148C226.872 118.785 229.397 112.187 232.673 106.577C236.625 99.837 241.871 93.7514 248.526 89.9125C255.181 86.0736 263.364 84.7157 270.574 87.2647C277.784 89.8138 285.042 96.7448 285.68 104.596C286.009 108.607 285.537 110.465 286.343 114.403C286.761 116.458 285.788 120.575 285.889 122.661C286.08 126.555 283.502 130.178 283.735 134.073C283.878 136.474 285.066 138.652 285.794 140.936C287.584 146.46 286.617 152.465 286.988 158.267C287.358 164.068 289.811 170.567 295.182 172.283C289.244 175.369 281.055 172.123 278.637 165.716C277.903 163.766 277.635 161.593 276.519 159.84C274.633 156.878 270.711 155.705 269.129 152.558C267.548 149.41 268.921 145.571 270.646 142.516C272.37 139.461 274.543 136.393 274.579 132.851C274.565 131.125 274.044 129.444 273.084 128.032C272.125 126.62 270.772 125.543 269.207 124.944C267.578 124.358 265.817 124.327 264.104 124.13C259.855 123.562 255.797 121.961 252.262 119.458C247.649 116.341 246.419 115.384 243.094 121.056Z" fill="#723647"/>
<path d="M283.648 132.754L275.358 134.139C274.713 134.247 274.107 133.795 274.003 133.131C273.899 132.466 274.337 131.84 274.981 131.732L283.272 130.347C283.916 130.239 284.523 130.691 284.626 131.355C284.73 132.02 284.292 132.646 283.648 132.754Z" fill="#252A62"/>
<path d="M300.733 303.32C300.596 312.985 292.711 320.601 283.365 320.601H282.064C280.914 320.597 279.809 321.058 278.984 321.885C278.358 322.491 277.923 323.278 277.736 324.144C277.648 324.492 277.603 324.851 277.605 325.211V342.277C277.611 345.558 276.704 348.772 274.991 351.535C272.499 355.448 271.148 360.02 271.099 364.706C271.099 365.799 270.889 366.882 270.48 367.891C270.071 368.9 269.471 369.814 268.717 370.58C267.962 371.347 267.067 371.95 266.085 372.355C265.102 372.76 264.051 372.959 262.994 372.939C258.625 372.859 255.199 368.97 255.199 364.446V360.182L253.026 360.441V364.718C253.026 365.81 252.815 366.892 252.406 367.899C251.996 368.906 251.397 369.819 250.643 370.584C249.89 371.35 248.996 371.952 248.014 372.356C247.033 372.76 245.983 372.959 244.927 372.939C240.552 372.859 237.126 368.97 237.126 364.446V362.286C234.959 363.224 222.67 363.224 219.262 362.286L218.337 362.212V364.681C218.34 365.777 218.132 366.862 217.724 367.874C217.317 368.885 216.718 369.803 215.963 370.572C215.208 371.341 214.312 371.946 213.328 372.353C212.344 372.759 211.291 372.959 210.232 372.939C205.863 372.859 202.437 368.97 202.437 364.446V360.904L201.714 360.836V364.724C201.712 365.816 201.5 366.897 201.09 367.904C200.68 368.91 200.08 369.822 199.326 370.587C198.571 371.351 197.677 371.953 196.696 372.357C195.714 372.761 194.665 372.959 193.609 372.939C191.682 372.872 189.842 372.095 188.42 370.75C186.998 369.405 186.086 367.579 185.85 365.6C185.805 365.217 185.781 364.832 185.778 364.446V346.597C185.772 340.466 187.758 334.51 191.419 329.686C192.053 328.832 192.408 327.792 192.433 326.716C192.457 325.64 192.15 324.583 191.556 323.699C187.509 317.57 181.523 307.226 181.72 299.894C181.678 297.906 182.353 295.972 183.612 294.469C183.689 294.376 183.773 294.29 183.85 294.204C189.676 287.896 199.93 292.858 199.04 301.53C198.738 304.434 198.94 307.371 199.637 310.201C200.041 311.799 200.587 313.355 201.267 314.849C201.948 316.348 203.068 317.588 204.468 318.393C205.867 319.198 207.477 319.528 209.068 319.336C210.149 319.199 211.237 319.131 212.327 319.132H245.751C247.713 319.133 249.625 318.498 251.22 317.317C252.816 316.136 254.013 314.467 254.644 312.547C254.984 311.541 255.155 310.483 255.151 309.417V282.508C255.151 281.807 255.287 281.113 255.551 280.467C255.815 279.821 256.201 279.237 256.688 278.749C257.175 278.261 257.751 277.879 258.383 277.625C259.015 277.372 259.69 277.252 260.368 277.274C261.029 277.299 261.679 277.461 262.279 277.75C262.879 278.039 263.416 278.451 263.859 278.959C264.764 279.99 265.266 281.332 265.268 282.724C265.267 283.088 265.336 283.449 265.47 283.785C265.605 284.122 265.802 284.428 266.051 284.685C266.3 284.943 266.596 285.147 266.921 285.286C267.247 285.425 267.596 285.496 267.948 285.495H283.747C285.999 285.495 288.228 285.958 290.306 286.856C292.383 287.755 294.267 289.072 295.847 290.731C297.428 292.39 298.674 294.357 299.513 296.518C300.352 298.679 300.766 300.991 300.733 303.32Z" fill="#F3AD55"/>
<path d="M201.44 366.767C200.992 368.559 199.973 370.143 198.548 371.262C197.123 372.382 195.375 372.973 193.585 372.939C191.659 372.872 189.819 372.095 188.396 370.75C186.974 369.405 186.062 367.579 185.826 365.601C190.696 364.261 197.369 363.335 201.44 366.767Z" fill="#FBDCA3"/>
<path d="M218.092 366.767C217.643 368.56 216.623 370.143 215.197 371.263C213.771 372.383 212.022 372.973 210.231 372.939C208.311 372.864 206.479 372.085 205.063 370.74C203.648 369.395 202.742 367.573 202.508 365.601C207.319 364.261 213.974 363.335 218.092 366.767Z" fill="#FBDCA3"/>
<path d="M252.77 366.767C252.322 368.559 251.303 370.143 249.878 371.262C248.453 372.382 246.705 372.973 244.915 372.939C242.988 372.872 241.148 372.095 239.726 370.75C238.303 369.405 237.392 367.579 237.156 365.601C242.026 364.261 248.687 363.335 252.77 366.767Z" fill="#FBDCA3"/>
<path d="M270.854 366.767C270.406 368.56 269.387 370.145 267.96 371.264C266.534 372.384 264.784 372.974 262.994 372.939C261.073 372.864 259.241 372.085 257.826 370.74C256.41 369.395 255.505 367.573 255.27 365.601C260.081 364.261 266.754 363.335 270.854 366.767Z" fill="#FBDCA3"/>
<path d="M199.685 310.202C194.069 307.869 187.217 303.598 181.779 299.894C181.738 297.906 182.412 295.973 183.671 294.469C183.749 294.377 183.832 294.29 183.91 294.204C189.735 287.896 199.989 292.858 199.1 301.53C198.794 304.433 198.992 307.37 199.685 310.202Z" fill="#FBDCA3"/>
<path d="M206.483 319.181C206.483 319.181 221.948 339.314 247.249 319.132L206.483 319.181Z" fill="#FBDCA3"/>
<path d="M255.199 281.761C255.199 281.761 264.593 294.469 255.199 310.152V281.761Z" fill="#FBDCA3"/>
<path d="M277.605 325.112C277.605 325.112 269.327 335.74 277.497 344.196L277.605 325.112Z" fill="#FBDCA3"/>
<path opacity="0.1" d="M278.327 322.866C277.73 323.484 277.921 324.039 277.73 324.915L250.872 317.639C252.316 316.485 254.113 315.121 254.703 313.318C257.915 315.88 264.283 320.212 278.327 322.866Z" fill="black"/>
<path d="M278.984 321.91C278.357 322.516 277.923 323.303 277.736 324.169L251.54 317.108C253.002 315.942 254.099 314.355 254.692 312.547C257.915 315.133 264.94 319.243 278.984 321.91Z" fill="#383F4D"/>
<path opacity="0.1" d="M255.676 314.04C255.676 314.04 263.871 320.416 277.605 322.391L255.676 314.04Z" fill="black"/>
<path d="M255.676 313.294C255.676 313.294 263.871 319.67 277.605 321.645L255.676 313.294Z" fill="#F3AD55"/>
<path opacity="0.1" d="M276.161 313.898C276.161 313.898 289.888 318.385 293.505 304.184L276.161 313.898Z" fill="black"/>
<path d="M276.161 313.151C276.161 313.151 289.888 317.638 293.505 303.437L276.161 313.151Z" fill="#FBDCA3"/>
<path d="M300.733 304.184C299.935 304.184 299.289 303.012 299.289 301.567C299.289 300.122 299.935 298.95 300.733 298.95C301.531 298.95 302.177 300.122 302.177 301.567C302.177 303.012 301.531 304.184 300.733 304.184Z" fill="#383F4D"/>
<path opacity="0.1" d="M191.234 355.38L194.122 331.464C194.122 331.464 185.45 345.659 191.234 355.38Z" fill="black"/>
<path d="M194.844 331.464C194.844 331.464 186.172 345.659 191.956 355.38L194.844 331.464Z" fill="#FBDCA3"/>
<defs>
<linearGradient id="paint0_linear" x1="418.675" y1="215.262" x2="237.635" y2="243.556" gradientUnits="userSpaceOnUse">
<stop stop-color="#808080" stop-opacity="0.25"/>
<stop offset="0.54" stop-color="#808080" stop-opacity="0.12"/>
<stop offset="1" stop-color="#808080" stop-opacity="0.1"/>
</linearGradient>
</defs>
</svg>