<?xml version="1.0" encoding="utf-8"?>
<!-- Generator: Adobe Illustrator 25.2.0, SVG Export Plug-In . SVG Version: 6.00 Build 0)  -->
<svg version="1.1" id="Layer_1" xmlns="http://www.w3.org/2000/svg" xmlns:xlink="http://www.w3.org/1999/xlink" x="0px" y="0px"
	 viewBox="0 0 1156.7 906.4" style="enable-background:new 0 0 1156.7 906.4;" xml:space="preserve">
<style type="text/css">
	.st0{fill:#D3670D;}
	.st1{opacity:0.5;}
	.st2{fill:#FFFFFF;}
	.st3{opacity:0.3;}
	.st4{fill:#000072;}
	.st5{fill:#D19000;}
	.st6{fill:#FAFBFB;}
	.st7{fill:#452735;}
	.st8{clip-path:url(#SVGID_3_);}
	.st9{fill:#93411D;}
	.st10{clip-path:url(#SVGID_5_);}
	.st11{clip-path:url(#SVGID_7_);}
	.st12{opacity:0.3;clip-path:url(#SVGID_9_);}
	.st13{opacity:0.35;}
	.st14{fill:none;stroke:#000072;stroke-width:5;stroke-miterlimit:10;}
	.st15{fill:#ED2A84;}
	.st16{fill:#161616;}
	.st17{fill:#111111;}
	.st18{fill:#FF002B;}
	.st19{fill:#FFC200;}
	.st20{fill:#FFC043;}
	.st21{fill:#896500;}
	.st22{opacity:0.2;}
	.st23{fill:#DD9505;}
	.st24{fill:#AA7100;}
	.st25{fill:none;}
	.st26{fill:#C18102;}
</style>
<g>
	<g>
		<g>
			<g>
				<g>
					<g>
						<path class="st0" d="M40.5,668.5c4.9,30.2,23.2,86.2,91.7,86.2v58.4c0,0-136.5-4.6-99.1-145C34.3,663.7,39.8,664,40.5,668.5z"
							/>
					</g>
				</g>
				<g class="st1">
					<g>
						<path class="st2" d="M36.7,686.4c1.6-2.6,6.6-11.6,3.2-17.9c-0.4-0.7-2-3.7-4-3.6c-1.5,0.1-2.8,1.1-3.4,3.1
							c-37.4,140.4,99.1,145,99.1,145v-1.6c-4.8,0-51.8-1.2-80.7-40.5C22.8,733,35.2,691.2,36.7,686.4z"/>
					</g>
				</g>
				<g class="st3">
					<g>
						<path class="st4" d="M122.9,757.2c-23.1-4.7-38.8-17-49.4-31.5c-2.5,44.9,16.8,71.1,39.5,86.3c17.7,5.2,31.5,5.6,31.5,5.6
							v-48.4C136.2,766.3,129.1,762.1,122.9,757.2z"/>
					</g>
				</g>
				<g>
					<g>
						<path class="st5" d="M132.2,821.8c-0.1,0-0.1,0-0.2,0c-2.8-0.1-67.8-2.8-98.1-52c-16.5-26.9-19.2-62-8-104.3
							c1.5-5.8,6.3-9.6,11.5-9.2c5.3,0.4,9.5,4.6,10.5,10.7l0,0C52.7,696.5,70,746,132.2,746c4.1,0,7.5,3.9,7.5,8.7v58.4
							c0,2.4-0.8,4.6-2.3,6.2C136.1,821,134.2,821.8,132.2,821.8z M36.7,686.4c-5.4,29.7-2.3,54.2,9.4,73.2
							c20.3,33.1,61.5,41.8,78.7,44v-40.5C67,759.8,45,716.5,36.7,686.4z M33.2,670.1L33.2,670.1L33.2,670.1z"/>
					</g>
				</g>
			</g>
			<g>
				<g>
					<path class="st6" d="M518.5,813.2c-0.8-72.8,5.9-181.7,5.9-181.7L407,696.3c0,86.2,41.2,181.7,41.2,181.7h74h19.5
						c2.6-6.1,4-12.7,4-19.6C545.7,839.3,534.8,822.5,518.5,813.2z"/>
				</g>
			</g>
			<g class="st3">
				<g>
					<path class="st4" d="M492.2,819.4c-0.8-72.8,26.3-188.4,26.3-188.4l-135.3,64.8c0,86.2,41.2,181.7,41.2,181.7h74h19.5
						c2.6-6.1,4-12.7,4-19.6C521.9,838.9,508.5,828.7,492.2,819.4z"/>
				</g>
			</g>
			<g>
				<g>
					<path class="st5" d="M541.7,886.7h-93.5c-2.8,0-5.4-1.9-6.7-4.8c-1.7-4-42-98.3-42-185.6c0-3.4,1.7-6.4,4.3-7.9l117.4-64.8
						c2.4-1.3,5.2-1.1,7.4,0.7s3.4,4.7,3.2,7.8c-0.1,1.1-6.3,104.4-6,175.9c17.1,11.5,27.2,30,27.2,50.4c0,8.1-1.6,16-4.8,23.5
						C547.1,884.8,544.5,886.7,541.7,886.7z M452.9,869.3h83.8c1-3.6,1.5-7.2,1.5-10.9c0-15.2-8.6-29.1-23-37.4
						c-2.5-1.4-4.1-4.4-4.2-7.7c-0.6-56.4,3.3-135.2,5.1-167.6l-101.6,56.1C416,772.7,445,849.6,452.9,869.3z"/>
				</g>
			</g>
			<g>
				<g>
					<g>
						<path class="st7" d="M323.4,427.9c0,0-26.7,1.3-61.6,13.1c-4,34.2-22.4,63.9-49.2,79.7c-82.4,48.8-143.5,211.3-77,309.8
							c5.8,8.6,12.5,16.7,20.3,24.1c5.6,5.4,11.2,10.1,16.8,14.1c-9.1-15.1-16-32.9-16.8-48.6c-0.9-17.8,6-33.1,26.3-39.3
							c61.9-18.8,11.8-134.3,30.1-193s53-59.3,92.5-68.8C344.7,509.5,323.4,427.9,323.4,427.9z"/>
					</g>
				</g>
				<g>
					<g>
						<path class="st4" d="M176.4,872.8l-4.1-3c-5.8-4.1-11.5-8.9-16.9-14.2c-7.6-7.3-14.5-15.5-20.5-24.3
							c-26.2-38.8-34.7-91.3-24-148c13.2-69.8,53.9-135.6,101.3-163.6c26.5-15.7,44.7-45.2,48.7-78.9l0.1-0.8l0.6-0.2
							c34.5-11.7,61.5-13.1,61.8-13.1l0.8,0l0.2,0.9c0.5,2.1,13,50.9-0.5,77.4c-4.2,8.2-10.4,13.3-18.6,15.3
							c-4.5,1.1-8.9,2.1-13.3,3c-33.5,7.3-62.5,13.7-78.5,65.1c-6.9,22.1-3.9,52.8-1.1,82.6c4.7,48.8,9.5,99.2-29.7,111.1
							c-17.7,5.4-26.5,18.5-25.6,38.1c0.7,14.2,6.7,31.7,16.6,48.1L176.4,872.8z M262.7,441.9c-4.3,34.1-22.8,63.9-49.7,79.9
							c-46.8,27.7-87.1,92.8-100.2,162.1c-10.6,55.9-2.2,107.8,23.6,146.1c5.9,8.7,12.6,16.7,20.2,24c4.1,4,8.4,7.6,12.7,11
							c-8.6-15.4-13.6-31.1-14.2-44.6c-0.7-14.5,3.4-33.3,27.1-40.5c37.6-11.4,33-58.6,28.2-108.6c-2.9-30-5.9-61.1,1.2-83.6
							c16.4-52.7,45.9-59.1,80-66.6c4.3-0.9,8.8-1.9,13.2-3c7.6-1.8,13.4-6.6,17.3-14.2c12.1-23.7,2.1-67.9,0.5-74.6
							C318,429.5,293.5,431.6,262.7,441.9z"/>
					</g>
				</g>
			</g>
			<g>
				<g>
					<g>
						<path id="SVGID_1_" class="st2" d="M509.5,411.1c0,0,127.3,247.9-127.5,347.4c0,0-115.6,178.6-225.4,73.1
							c-92.1-88.5-31.2-265.7,53.6-315.9c27.5-16.3,45.8-48.1,47.3-84l0,0L509.5,411.1z"/>
					</g>
					<g>
						<defs>
							<path id="SVGID_2_" d="M509.5,411.1c0,0,127.3,247.9-127.5,347.4c0,0-115.6,178.6-225.4,73.1
								c-92.1-88.5-31.2-265.7,53.6-315.9c27.5-16.3,45.8-48.1,47.3-84l0,0L509.5,411.1z"/>
						</defs>
						<clipPath id="SVGID_3_">
							<use xlink:href="#SVGID_2_"  style="overflow:visible;"/>
						</clipPath>
						<g class="st8">
							<g>
								<path class="st0" d="M375.2,382.1c0,0-37.9,53.8,43.8,118.9s57.7,154.9,20.5,163.9c0,0,2.2-50.8-79.6-59.7
									S344.2,822,344.2,822l-20.1,1.6c0,0-13.2-12.7-31.3-15.5c0,0,36.8-54.4-30-64.5s-75.5,54.3-137.8,68.9
									s-122.6-195-16.6-338.8S375.2,382.1,375.2,382.1z"/>
							</g>
						</g>
					</g>
				</g>
				<g>
					<g>
						<g>
							<path class="st9" d="M213.6,523.5c-43.5,25.8-81.4,88.7-92.3,153.2c0,0,0,0,0,0.1c0,0,0,0.1,0,0.1
								c-7.3,39-7.1,73.6,0.4,103.4c2.9-11.3,11.7-19.1,31.7-18.1c68.8,3.3,28.7-110.7,30-161.5c1.2-50.8,46.8-41.4,66.2-64.6
								c10.9-13.1,6.1-33.8-0.3-49.3C240.3,502,228.2,514.8,213.6,523.5z"/>
						</g>
					</g>
				</g>
				<g class="st1">
					<g>
						<path class="st2" d="M220.6,530.4c27.5-16.3,45.8-48.1,47.3-84l245.2-20.1c-4.5-11.2-7.8-17.6-7.8-17.6l-252.1,20.7l0,0
							c-1.5,35.9-19.7,67.7-47.3,84c-84.2,49.9-144.9,225.2-55.2,314.2C83.2,734.9,141.5,577.2,220.6,530.4z"/>
					</g>
				</g>
				<g>
					<g>
						<g>
							<path class="st5" d="M310.9,843c-2.5,0-4.9-1.4-6.3-4c-2.2-4.1-1.2-9.4,2.3-12c40.7-30.2,68.9-73.3,69.2-73.7
								c0.9-1.4,2.2-2.5,3.6-3c76.4-29.8,125-76,144.5-137.2c26.7-83.7-9.3-171.9-18.8-192.9l-241,19.7c-3.8,35.4-22.8,67-50.8,83.6
								c-43.5,25.8-81.4,88.7-92.3,153.2c-0.8,4.7-4.7,7.8-8.8,6.9c-4.1-0.9-6.7-5.5-5.9-10.2c11.8-70.4,52.1-136.9,100.2-165.3
								c25.3-15,41.8-44.3,43.2-76.6c0.2-4.4,3.2-7.9,6.9-8.3L509,402.4c2.8-0.2,5.5,1.4,7,4.2c2.3,4.4,55,109.1,22.2,212.3
								c-21,65.9-72,115.3-151.7,146.9c-6.5,9.5-33.4,47.4-71.6,75.7C313.6,842.5,312.2,843,310.9,843z"/>
						</g>
					</g>
				</g>
				<g class="st3">
					<g>
						<path class="st4" d="M509.5,411.1l-252.1,20.7l0,0c0,0.8-0.1,1.6-0.2,2.4c-0.4,12.3,3.9,68.4,110.2,97.1
							c119.8,32.4,22.5,252.2-104.9,161.1c-64.1-45.8-117.4-15.4-151.1,1.7c-11.2,58.6-4.1,115.2,39.4,157
							C260.6,956.5,382,758.5,382,758.5C636.8,659,509.5,411.1,509.5,411.1z"/>
					</g>
				</g>
			</g>
			<g>
				<g>
					<g>
						<path class="st2" d="M290.3,808c6.1-17.2,9.1-38.3,10.2-47.6c0.3-1.6,0.5-3.2,0.5-4.8v0l0,0c0.3-10.6-5.3-21.9-20.4-33.5
							c-49.6-38.1-61.7,38.4-127.3,39.9c-44.9,1.1-39.4-87.2-39.4-87.2C84,835.5,186.7,878,186.7,878h146
							C340.9,825.4,316.8,810.1,290.3,808z"/>
					</g>
				</g>
				<g>
					<g>
						<g>
							<path class="st5" d="M113.9,683.7c-0.5,0-1-0.1-1.4-0.2c-4.1-0.9-6.7-5.5-5.9-10.2c11.8-70.4,52.1-136.9,100.2-165.3
								c25.3-15,41.8-44.3,43.2-76.6c0.2-4.8,3.7-8.5,7.8-8.3c4.1,0.2,7.3,4.3,7.1,9.1c-1.6,38.5-21.3,73.5-51.4,91.3
								c-43.5,25.8-81.4,88.7-92.3,153.2C120.6,680.8,117.4,683.7,113.9,683.7z"/>
						</g>
					</g>
				</g>
				<g>
					<g>
						<path class="st5" d="M232.8,815c11.3-5.8,23.1-9.8,35.4-12.3c12.2-2.3,25.1-3.3,38.2,0.2c6.5,1.8,13.2,5,19,10.2
							c5.8,5.2,10.4,12.5,13,20.2c0.8,1.9,1.2,3.9,1.7,5.9s1,4,1.2,5.9l0.8,5.9l0.2,5.9l0.1,2.9l-0.1,2.9l-0.3,5.7
							c-0.3,3.8-0.9,7.4-1.3,11.2c-0.5,4.4-3.8,7.6-7.6,7.6h-0.2l-36.5-0.4l-36.5-0.2h-73h-0.1c-0.8,0-1.7-0.2-2.4-0.5
							c-1.4-0.6-2.4-1.1-3.5-1.7c-1.1-0.6-2.1-1.1-3.2-1.7c-2.1-1.2-4.1-2.4-6.1-3.7c-4-2.6-7.8-5.4-11.6-8.5
							c-7.4-6.1-14.4-13.1-20.6-20.7c-12.6-15.3-22.3-33.8-28.7-53.6c-3.1-9.9-5.4-20.1-7.1-30.5l-1-7.8l-0.5-3.9l-0.3-3.9l-0.6-7.8
							l-0.2-7.8c-0.3-20.8,1.8-41.5,5.5-61.6v0c0.9-4.7,4.9-7.7,8.9-6.6s6.6,5.6,5.7,10.4l0,0c-3.6,19-5.5,38.4-5.2,57.6l0.2,7.2
							l0.5,7.1l0.2,3.6l0.4,3.5l0.9,7.1c1.5,9.4,3.6,18.5,6.3,27.4c5.7,17.7,14.3,34,25.5,47.7c5.6,6.8,11.8,13,18.4,18.5
							c3.3,2.7,6.8,5.2,10.3,7.5c1.8,1.1,3.5,2.2,5.3,3.2c0.9,0.5,1.8,1,2.7,1.4c0.9,0.4,1.9,0.9,2.5,1.2l-2.5-0.5h73l36.5-0.2
							l36.5-0.4l-7.8,7.6c0.3-3.2,0.8-6.4,1.1-9.6l0.2-4.7l0.1-2.4l-0.1-2.3l-0.1-4.6l-0.5-4.4c-0.1-1.5-0.5-2.9-0.8-4.3
							s-0.6-2.8-1.1-4.1c-1.6-5.3-4.2-9.8-7.9-13.4c-3.6-3.6-8.1-6.3-13.2-8.1c-10.2-3.6-21.8-4.2-33.4-3.6
							c-11.6,0.7-23.4,2.7-34.9,5.5l-0.1,0c-1.4,0.3-2.7-0.7-2.9-2.3C231.1,816.9,231.8,815.5,232.8,815z"/>
					</g>
				</g>
				<g>
					<g>
						<path class="st5" d="M303,837.3c2.4,1.9,4,4.8,5.4,7.9c1.3,3.1,2.2,6.5,2.8,9.9c0.6,3.4,0.9,6.9,1.1,10.4c0,1.7,0.1,3.5,0,5.2
							L312,876c-0.1,4-3,7.1-6.5,6.9c-3.4-0.2-6.1-3.5-5.9-7.5c0-0.9,0.2-1.8,0.5-2.5l0.1-0.2l1.5-4.2c0.5-1.4,0.9-2.8,1.4-4.3
							c0.8-2.9,1.5-5.8,1.9-8.8c0.5-3,0.6-6.1,0.4-9.1C305.1,843.2,304.6,840,303,837.3z"/>
					</g>
				</g>
				<g>
					<g>
						<path class="st5" d="M274.2,842.1c1.6,2.3,3,4.8,4.1,7.4c1.2,2.7,2.2,5.5,3,8.4s1.4,6.1,1.8,9.2c0.4,3.2,0.4,6.5,0.3,9.8v0.1
							c-0.1,4-3,7.1-6.4,7c-3.4-0.1-6.1-3.5-6-7.5c0-1,0.2-2,0.6-2.9c0.9-2.2,1.8-4.6,2.4-7.1c0.7-2.5,1.1-5.1,1.3-7.8
							c0.3-2.7,0.3-5.5,0.1-8.3C275.2,847.7,274.9,844.9,274.2,842.1z"/>
					</g>
				</g>
			</g>
			<g>
				<g>
					<path class="st5" d="M259.8,711.5c4.5,0,9.1,1,13.5,2.5c4.4,1.5,8.8,3.6,12.9,6.5c4.1,2.9,8,6.4,11.4,10.8
						c3.3,4.4,6.2,9.4,8.1,15.1c1.9,5.6,2.9,11.6,3,17.4c0,5.9-0.5,11.6-1.6,17.1c-2,11.1-5.4,21.3-9.7,30.8
						c-1.7,3.8-5.8,5.3-9.1,3.3c-3.2-1.9-4.5-6.4-3-10.2l0-0.1c3.5-8.8,6.6-17.8,7.9-26.9c0.7-4.6,0.8-9.1,0.7-13.4
						c-0.3-4.4-0.8-8.6-1.7-12.7c-1.7-8.2-5.7-16.1-11.5-22.8C275,722,267.8,716.3,259.8,711.5z"/>
				</g>
			</g>
			<g>
				<g>
					<g>
						<path class="st6" d="M382,90.5c0,0,44.8-2,70.5,32.6c0,0,71.1-9.1,71.1,170.9c0,0,111,201.6-139.9,201.6h-1.1
							c-251,0-139.9-201.6-139.9-201.6c0-180.1,71.1-170.9,71.1-170.9c25.8-34.6,70.5-32.6,70.5-32.6"/>
					</g>
				</g>
				<g>
					<g>
						<path class="st4" d="M383.7,496.8h-1.1c-83,0-135.5-22-155.9-65.4c-26.8-57,12.2-132.3,15-137.6c0.1-96.1,20.7-137.8,38-155.8
							c15.7-16.3,30.6-16.2,33.7-16c22.5-29.7,59.2-32.4,68.7-32.6c0.2,0,0.6,0,1.1,0c0.6,0,0.9,0,1.1,0c9.5,0.2,46.2,2.9,68.7,32.6
							c3-0.2,18-0.3,33.7,16c17.3,18,37.9,59.7,38,155.8c2.8,5.3,41.8,80.6,15,137.6C519.2,474.8,466.7,496.8,383.7,496.8z
							 M312.2,124.2c-4.3,0-17.6,1.3-31.2,15.5c-17,17.8-37.3,58.9-37.3,154.4v0.3l-0.2,0.3c-0.4,0.8-42.2,77.9-15.1,135.6
							c20.1,42.6,71.9,64.2,154.2,64.2h1.1c82.3,0,134.1-21.6,154.2-64.2c27.1-57.6-14.7-134.8-15.1-135.6l-0.2-0.3V294
							c0-95.4-20.3-136.6-37.3-154.4c-16.5-17.2-32.6-15.4-32.7-15.4l-0.5,0.1l-0.3-0.5c-21.9-29.4-58.1-32-67.5-32.2l0,0
							c0,0-0.1,0-0.3,0c-0.6,0-1,0-1.7,0c-0.2,0-0.3,0-0.3,0l0,0c-9.4,0.2-45.6,2.9-67.5,32.2l-0.3,0.5l-0.5-0.1
							C313.7,124.2,313.1,124.2,312.2,124.2z"/>
					</g>
				</g>
			</g>
			<g>
				<g>
					<defs>
						<path id="SVGID_4_" d="M382,90.5c0,0,44.8-2,70.5,32.6c0,0,71.1-9.1,71.1,170.9c0,0,111,201.6-139.9,201.6h-1.1
							c-251,0-139.9-201.6-139.9-201.6c0-180.1,71.1-170.9,71.1-170.9c25.8-34.6,70.5-32.6,70.5-32.6"/>
					</defs>
					<clipPath id="SVGID_5_">
						<use xlink:href="#SVGID_4_"  style="overflow:visible;"/>
					</clipPath>
					<g class="st10">
						<g>
							<path class="st0" d="M397.2,73.6c0,0-48.5,190.3,78.8,236.8c0,0,69.6,10.1,80.8,88.9C568,478,687.8,56.2,397.2,73.6z"/>
						</g>
					</g>
				</g>
				<g>
					<defs>
						<path id="SVGID_6_" d="M382,90.5c0,0,44.8-2,70.5,32.6c0,0,71.1-9.1,71.1,170.9c0,0,111,201.6-139.9,201.6h-1.1
							c-251,0-139.9-201.6-139.9-201.6c0-180.1,71.1-170.9,71.1-170.9c25.8-34.6,70.5-32.6,70.5-32.6"/>
					</defs>
					<clipPath id="SVGID_7_">
						<use xlink:href="#SVGID_6_"  style="overflow:visible;"/>
					</clipPath>
					<g class="st11">
						<g>
							<path class="st0" d="M372.3,73.6c0,0,48.5,190.3-78.8,236.8c0,0-69.6,10.1-80.8,88.9S81.8,56.2,372.3,73.6z"/>
						</g>
					</g>
				</g>
				<g>
					<defs>
						<path id="SVGID_8_" d="M382,90.5c0,0,44.8-2,70.5,32.6c0,0,71.1-9.1,71.1,170.9c0,0,111,201.6-139.9,201.6h-1.1
							c-251,0-139.9-201.6-139.9-201.6c0-180.1,71.1-170.9,71.1-170.9c25.8-34.6,70.5-32.6,70.5-32.6"/>
					</defs>
					<clipPath id="SVGID_9_">
						<use xlink:href="#SVGID_8_"  style="overflow:visible;"/>
					</clipPath>
					<g class="st12">
						<g>
							<path class="st4" d="M525.1,294c0-158.9-55.3-170.5-68.4-171c13.7,24.1,25.1,65.9,25.1,138.1c0,0,111,201.6-139.9,201.6h-1.1
								c-45.1,0-78.5-6.5-103-17.2c21.3,28.8,64.6,50.1,146.2,50.1h1.1C636.2,495.6,525.1,294,525.1,294z"/>
						</g>
					</g>
				</g>
			</g>
			<g>
				<g>
					<path class="st5" d="M383.7,504.3h-1.1c-85.6,0-140-23.3-161.6-69.4c-29.5-62.7,13.6-142.3,15.4-145.6
						c2.2-4.1,6.9-5.2,10.4-2.6c3.5,2.6,4.5,8,2.3,12c-0.4,0.7-40.1,74.3-14.9,127.9c18.8,40,68.8,60.2,148.5,60.2h1.1
						c79.7,0,129.6-20.3,148.5-60.2c25.3-53.6-14.5-127.2-14.8-127.9c-2.2-4.1-1.2-9.4,2.3-12c3.5-2.6,8.1-1.4,10.3,2.6
						c1.8,3.4,44.9,82.9,15.4,145.6C523.7,481,469.3,504.3,383.7,504.3z"/>
				</g>
			</g>
			<g>
				<g>
					<path class="st5" d="M452.5,131.8c-2.1,0-4.2-1-5.7-3c-20-26.8-53.6-29.4-62.4-29.6c0,0-0.1,0-0.1,0H382c0,0-0.1,0-0.1,0
						c-8.9,0.2-42.4,2.8-62.4,29.6c-2.7,3.6-7.4,4-10.6,0.9c-3.1-3.1-3.5-8.6-0.8-12.3c25.4-34.1,66.7-35.6,75-35.6
						c8.4,0,49.6,1.5,75,35.6c2.7,3.6,2.4,9.1-0.8,12.3C456,131.1,454.2,131.8,452.5,131.8z"/>
				</g>
			</g>
			<g>
				<g>
					<path class="st0" d="M313.8,123.1c0,0-44.2-47.4-129.2-4.9c-85,42.5-120.6,248.3-52.7,285.6c59.5,32.6,111.3-48.4,119.8-144.3
						s28-82,28-82"/>
				</g>
			</g>
			<g class="st1">
				<g>
					<path class="st2" d="M155.7,403.7c-67.9-37.2-32.3-243.1,52.7-285.6c20.5-10.2,38.6-15.2,54.2-17c-20.4-2.4-46.9,0.7-79.5,17
						c-85,42.5-120.6,248.3-52.7,285.6c13.6,7.5,26.9,9,39.3,5.7C165.2,408.2,160.5,406.3,155.7,403.7z"/>
				</g>
			</g>
			<g class="st3">
				<g class="st13">
					<g>
						<path class="st4" d="M227.3,260.3c-11.5,96.1-46,136-86.4,148.5c54.3,16.4,99.9-60.1,107.8-149.4
							c7.8-87.6,24.8-83.6,27.6-82.2C271.7,174.8,235.7,190.1,227.3,260.3z"/>
					</g>
				</g>
			</g>
			<g>
				<g>
					<path class="st5" d="M308.8,129.4l-0.3-0.3l-0.4-0.4l-0.9-0.8l-2-1.6c-1.4-1-2.7-2.1-4.2-3.1c-2.9-2-6-3.6-9.1-5.2l-4.8-2.1
						c-1.6-0.7-3.3-1.2-4.9-1.8c-3.2-1.3-6.6-1.9-10-2.8c-3.4-0.7-6.8-1.1-10.2-1.7c-3.5-0.1-6.9-0.4-10.4-0.5l-10.4,0.5l-10.4,1.5
						c-1.8,0.2-3.5,0.8-5.2,1.1l-5.2,1.3c-1.7,0.5-3.5,0.7-5.1,1.4l-5.1,1.8l-5.1,1.8l-2.6,0.9l-2.5,1.1l-10,4.5l-2.5,1.1l-2.3,1.2
						c-1.6,0.8-3,1.8-4.5,2.7c-3,1.9-5.9,4-8.7,6.3c-5.6,4.6-10.9,9.9-15.7,15.7c-9.7,11.6-17.9,25.2-24.8,39.6
						c-6.9,14.4-12.4,29.8-16.8,45.6c-4.3,15.8-7.4,32.1-9.1,48.5c-1.7,16.4-1.9,32.9-0.1,48.9c1.8,15.9,5.8,31.5,13.2,43.7
						c1.8,3.1,3.9,5.8,6.1,8.3c2.2,2.5,4.7,4.7,7.3,6.4c0.6,0.5,1.3,0.9,2,1.3c0.7,0.4,1.3,0.8,2.1,1.2c1.5,0.7,3,1.5,4.5,2.2
						l4.6,1.7l4.6,1.2c12.5,2.7,25.3-0.9,36.3-9c11.1-8.1,20.6-19.9,28.3-33.3c7.7-13.4,13.8-28.3,18.6-43.8
						c4.8-15.5,8.1-31.7,10.1-48.1l1.4-12.6c0.5-4.3,1-8.6,1.7-12.9c0.7-4.3,1.5-8.6,2.2-12.9c0.9-4.3,1.9-8.6,2.9-12.8
						c2.4-8.4,4.9-16.9,9.1-24.7c1-2,2.3-3.8,3.4-5.7l2-2.6c0.4-0.4,0.6-0.9,1-1.3c0.4-0.4,0.8-0.8,1.2-1.1l1.2-1.1
						c0.4-0.4,0.9-0.6,1.4-0.9l1.4-0.8l1.5-0.5c2-0.5,4.3-0.2,5.8,1.2c-1.9-0.5-3.6,0.1-4.9,1.2l-1,0.8l-0.9,1.1
						c-0.3,0.4-0.6,0.6-0.8,1.1l-0.7,1.2c-1,1.5-1.6,3.5-2.4,5.2c-0.6,1.9-1.2,3.8-1.7,5.7c-2.1,7.7-3,16.1-4.3,24.2
						c-0.4,4.2-0.9,8.3-1.4,12.4c-0.4,4.2-0.7,8.4-1.2,12.5c-0.6,8.5-1.3,16.6-2.2,25.5c-1.9,17.6-5.1,35-10,51.9
						c-2.5,8.4-5.2,16.8-8.5,24.9c-3.3,8.1-7.1,16-11.3,23.6c-4.2,7.6-9.1,14.9-14.6,21.6c-5.5,6.7-11.7,12.9-18.7,17.9
						c-7,5-14.8,8.9-23,11c-8.3,2.1-16.9,2.2-25.2,0.5c-2.1-0.5-4.1-1.1-6.1-1.6c-2-0.7-4-1.5-5.9-2.2c-1.9-0.8-3.8-1.8-5.7-2.8
						c-0.9-0.4-1.9-1.1-2.9-1.6c-1-0.6-1.9-1.1-2.8-1.8c-3.8-2.5-7.2-5.7-10.3-9.1c-3.1-3.4-5.9-7.2-8.2-11.2
						c-4.8-8-8.3-16.7-10.7-25.6c-2.5-8.9-4-17.9-5-26.9c-1.8-18-1.4-36,0.6-53.6c2-17.6,5.4-34.9,10.2-51.7
						c4.7-16.8,10.8-33.1,18.2-48.6c7.5-15.5,16.5-30.2,27.4-43.1c5.4-6.5,11.4-12.4,17.9-17.6c3.2-2.6,6.6-5,10.1-7.2
						c1.8-1.1,3.5-2.2,5.4-3.1l2.7-1.4l2.7-1.2l10.6-4.8l2.7-1.2l2.8-1l5.5-1.9l5.5-1.9c1.8-0.7,3.7-1,5.6-1.5l5.6-1.4
						c1.9-0.4,3.7-1,5.7-1.2l11.5-1.7l11.6-0.6c3.9,0.1,7.8,0.4,11.7,0.6c3.9,0.6,7.8,1.1,11.6,1.9c3.8,1,7.7,1.8,11.5,3.2
						c1.9,0.7,3.8,1.2,5.6,2.1l5.5,2.5c3.6,1.9,7.2,3.8,10.7,6.2c1.8,1.1,3.5,2.5,5.2,3.7c1.7,1.4,3.2,2.6,5.2,4.7
						c3.1,3.1,3.4,8.6,0.7,12.2c-2.7,3.6-7.3,3.9-10.4,0.9L308.8,129.4z"/>
				</g>
			</g>
			<g>
				<g>
					<path class="st0" d="M455.1,123.1c0,0,44.2-47.4,129.2-4.9c85,42.5,120.6,248.3,52.7,285.6c-59.5,32.6-111.3-48.4-119.8-144.3
						s-28-82-28-82"/>
				</g>
			</g>
			<g class="st1">
				<g>
					<path class="st2" d="M584.3,118.1c-72.4-36.2-115.2-7.1-126.3,2.3c20-10.5,57.8-20.3,112.3,7c80.5,40.3,116.8,227.3,62.5,278.4
						c1.4-0.6,2.8-1.3,4.2-2.1C704.9,366.5,669.3,160.6,584.3,118.1z"/>
				</g>
			</g>
			<g>
				<g>
					<path class="st5" d="M450.1,116.7c2-2,3.5-3.2,5.2-4.7c1.7-1.3,3.4-2.6,5.2-3.7c3.5-2.4,7.1-4.3,10.7-6.2l5.5-2.5
						c1.9-0.8,3.8-1.4,5.6-2.1c3.8-1.5,7.6-2.2,11.5-3.2c3.9-0.8,7.8-1.3,11.6-1.9c3.9-0.2,7.8-0.5,11.7-0.6l11.7,0.6l11.5,1.7
						c1.9,0.2,3.8,0.8,5.7,1.2l5.6,1.4c1.9,0.5,3.8,0.8,5.6,1.5l5.5,1.9l5.5,1.9l2.8,1l2.7,1.2l10.7,4.8l2.7,1.2l2.7,1.4
						c1.8,0.9,3.6,2.1,5.3,3.1c3.5,2.2,6.9,4.6,10.1,7.2c6.5,5.2,12.5,11.2,17.9,17.6c10.9,12.9,19.9,27.6,27.4,43.1
						c7.5,15.5,13.5,31.8,18.2,48.6c4.7,16.8,8.2,34.1,10.2,51.7c2,17.6,2.4,35.6,0.6,53.6c-1,9-2.5,18-5,26.9
						c-2.5,8.9-5.9,17.6-10.7,25.6c-2.4,4-5.2,7.8-8.2,11.2c-3.1,3.4-6.5,6.6-10.3,9.1c-0.9,0.7-1.9,1.2-2.8,1.8
						c-1,0.6-1.9,1.2-2.9,1.6c-1.9,0.9-3.8,1.9-5.7,2.8c-2,0.8-3.9,1.5-5.9,2.2c-2,0.6-4.1,1.1-6.1,1.6c-8.3,1.8-17,1.6-25.2-0.5
						c-8.3-2.1-16.1-6-23-11c-7-5-13.2-11.2-18.7-17.9c-5.5-6.7-10.3-13.9-14.6-21.6c-4.3-7.6-8-15.5-11.3-23.6
						c-3.3-8.1-6-16.5-8.5-24.9c-4.8-16.9-8.1-34.3-10-51.9c-0.9-9-1.6-17.1-2.2-25.5c-0.5-4.1-0.8-8.3-1.2-12.5
						c-0.4-4.1-1-8.3-1.4-12.4c-1.2-8.1-2.2-16.5-4.3-24.2c-0.5-1.9-1.1-3.8-1.7-5.7c-0.8-1.7-1.4-3.7-2.4-5.2l-0.7-1.2
						c-0.2-0.4-0.5-0.7-0.8-1.1l-0.9-1.1l-1-0.8c-1.3-1.1-3.1-1.7-4.9-1.2c1.5-1.4,3.7-1.7,5.8-1.2l1.5,0.5l1.4,0.8
						c0.5,0.3,1,0.5,1.4,0.9l1.2,1.1c0.4,0.4,0.8,0.7,1.2,1.1c0.4,0.4,0.7,0.8,1,1.3l2,2.6c1.1,1.9,2.4,3.7,3.4,5.7
						c4.2,7.9,6.7,16.3,9.1,24.7c1,4.2,2,8.5,2.9,12.8c0.8,4.3,1.6,8.6,2.2,12.9c0.7,4.3,1.2,8.6,1.7,12.9l1.5,12.6
						c2.1,16.4,5.4,32.6,10.2,48.1c4.8,15.5,10.9,30.4,18.6,43.8c7.7,13.4,17.2,25.2,28.3,33.3c11.1,8.1,23.8,11.6,36.3,9l4.7-1.2
						l4.6-1.7c1.5-0.7,3-1.5,4.5-2.2c0.8-0.3,1.4-0.8,2.1-1.2c0.7-0.4,1.4-0.8,2-1.3c2.6-1.8,5.1-4,7.3-6.4c2.2-2.5,4.3-5.2,6.1-8.3
						c7.3-12.2,11.3-27.8,13.2-43.7c1.8-16,1.6-32.6-0.1-48.9c-1.7-16.4-4.8-32.7-9-48.5c-4.4-15.8-9.9-31.1-16.8-45.6
						c-6.9-14.4-15.1-27.9-24.8-39.6c-4.8-5.8-10.1-11.1-15.7-15.7c-2.8-2.3-5.7-4.4-8.7-6.3c-1.5-0.9-3-1.9-4.5-2.7l-2.3-1.2
						l-2.5-1.1l-10-4.5l-2.5-1.1l-2.5-0.9l-5.1-1.8l-5.1-1.8c-1.7-0.6-3.4-0.9-5.2-1.4l-5.2-1.3c-1.7-0.4-3.4-1-5.2-1.1l-10.4-1.5
						l-10.5-0.5c-3.5,0.1-6.9,0.4-10.4,0.5c-3.4,0.6-6.9,0.9-10.2,1.7c-3.3,0.9-6.8,1.5-10,2.8c-1.6,0.6-3.3,1.1-4.9,1.8L477,118
						c-3.1,1.6-6.2,3.3-9.1,5.2c-1.5,0.9-2.8,2-4.2,3.1l-2,1.6l-0.9,0.8l-0.4,0.4l-0.3,0.3l-0.3,0.3c-3.1,3.1-7.8,2.7-10.5-0.9
						C446.7,125.2,447,119.9,450.1,116.7z"/>
				</g>
			</g>
			<g>
				<g>
					<g>
						<path class="st2" d="M382.6,90.5"/>
					</g>
				</g>
				<g>
					<g>
						<path class="st14" d="M382.6,90.5"/>
					</g>
				</g>
			</g>
			<g>
				<g>
					<g>
						<g>
							<ellipse class="st2" cx="382.6" cy="447.5" rx="75.9" ry="126.7"/>
						</g>
					</g>
					<g>
						<g>
							<path class="st5" d="M382.6,575.3c-42.4,0-76.9-57.4-76.9-127.8s34.5-127.8,76.9-127.8s76.9,57.4,76.9,127.8
								C459.5,518,425,575.3,382.6,575.3z M382.6,322c-41.3,0-74.9,56.3-74.9,125.5S341.3,573,382.6,573s74.9-56.3,74.9-125.5
								S423.9,322,382.6,322z"/>
						</g>
					</g>
				</g>
				<g>
					<g>
						<path class="st5" d="M382.6,582.9c-46,0-83.4-60.7-83.4-135.4s37.4-135.4,83.4-135.4S466,372.8,466,447.5
							C466,522.1,428.6,582.9,382.6,582.9z M382.6,329.5c-37.7,0-68.4,52.9-68.4,118s30.7,118,68.4,118s68.4-52.9,68.4-118
							C451,382.4,420.3,329.5,382.6,329.5z"/>
					</g>
				</g>
			</g>
			<g>
				<g>
					<ellipse class="st5" cx="382" cy="480.5" rx="53.2" ry="61.9"/>
				</g>
			</g>
			<g>
				<g>
					<g>
						<path class="st15" d="M382,657.2c38,0,60.5-34.1,51.2-102.8c-1.3-9.2-3.1-17.8-5.4-25.7c-14.6-51.2-77.1-51.2-91.7,0
							c-2.2,7.9-4.1,16.5-5.4,25.7C321.4,623.1,344,657.2,382,657.2z"/>
					</g>
				</g>
				<g>
					<g>
						<path class="st5" d="M382,658.3c-16.8,0-30.6-6.7-40-19.4c-13.1-17.9-17.3-47.1-12.2-84.7c1.2-8.8,3-17.6,5.4-25.9
							c6.8-23.8,25.1-39.2,46.8-39.2l0,0c21.6,0,40,15.4,46.8,39.2c2.4,8.3,4.2,17,5.4,25.9c5.1,37.6,0.9,66.8-12.2,84.7
							C412.6,651.6,398.8,658.3,382,658.3z M382,491.5c-20.8,0-38.4,14.8-44.9,37.6c-2.3,8.2-4.1,16.8-5.3,25.5
							c-5,36.9-1,65.5,11.8,82.8c8.9,12.2,22.2,18.6,38.4,18.6s29.5-6.4,38.4-18.6c12.7-17.3,16.8-46,11.8-82.8
							c-1.2-8.7-3-17.3-5.3-25.5C420.4,506.2,402.8,491.5,382,491.5z"/>
					</g>
				</g>
			</g>
			<g class="st1">
				<g>
					<path class="st2" d="M409.6,646.5c-52.8,0-84.1-40.3-71.1-121.5c0.2-1.3,0.5-2.5,0.7-3.7c-1,2.4-1.9,4.8-2.6,7.4
						c-2.2,7.9-4.1,16.5-5.4,25.7c-9.4,68.7,13.2,102.8,51.2,102.8c12.3,0,23-3.6,31.5-10.8C412.5,646.5,411.1,646.5,409.6,646.5z"
						/>
				</g>
			</g>
			<g class="st3">
				<g>
					<path class="st4" d="M328,595.4c1.3-9.2,3.1-17.8,5.4-25.7c14.6-51.2,77.1-51.2,91.7,0c2.2,7.9,4.1,16.5,5.4,25.7
						c0.3,2.5,0.6,4.9,0.9,7.3c1.8-13.6,1.7-29.6-0.9-48.3c-1.3-9.2-4.9-23.3-7.2-31.2c-14.6-51.2-75.3-45.7-89.9,5.5
						c-2.2,7.9-4.1,16.5-5.4,25.7c-2.5,18.6-2.7,34.7-0.9,48.3C327.4,600.3,327.7,597.8,328,595.4z"/>
				</g>
			</g>
			<g>
				<g>
					<path class="st5" d="M389.5,454.1c0.1,10-0.2,20-0.5,30c-0.3,10-0.9,20-1.4,30c-0.6,10-1.3,20-2.2,30c-0.9,10-1.9,20-3.3,30
						c-1.4-10-2.5-20-3.3-30c-0.9-10-1.6-20-2.2-30c-0.6-10-1.1-20-1.4-30c-0.4-10-0.6-20-0.5-30c0-4.8,3.4-8.7,7.6-8.6
						C386.1,445.5,389.4,449.4,389.5,454.1z"/>
				</g>
			</g>
			<g>
				<g>
					<path class="st5" d="M382,665.9c-18.8,0-34.3-7.6-44.9-22.1c-14.4-19.6-19.1-51-13.7-90.8c9.8-71.7,52.7-104.9,54.5-106.2
						c2.5-1.9,5.7-1.9,8.2,0c1.8,1.4,44.8,34.6,54.5,106.2c5.4,39.8,0.7,71.2-13.7,90.8C416.3,658.3,400.8,665.9,382,665.9z
						 M382,465c-10.3,9.8-36.8,39.4-43.8,90.7c-4.7,34.6-1.1,61.1,10.3,76.7c7.8,10.6,19,15.9,33.5,15.9s25.7-5.4,33.5-16
						c11.5-15.6,15-42.1,10.3-76.7C418.8,504.4,392.3,474.8,382,465z"/>
				</g>
			</g>
			<g>
				<g>
					<g>
						<path class="st2" d="M382,278.5c53,0,127.5,29.7,127.5,91.4S435,485.7,382,485.7s-127.5-54.1-127.5-115.8
							S328.9,278.5,382,278.5z"/>
					</g>
				</g>
				<g>
					<g>
						<path class="st4" d="M382,486.9c-50.8,0-128.5-52.4-128.5-117c0-63.1,76.7-92.6,128.5-92.6s128.5,29.4,128.5,92.6
							C510.5,434.5,432.7,486.9,382,486.9z M382,279.7c-51,0-126.6,28.7-126.6,90.2c0,59.1,71.3,114.6,126.6,114.6
							S508.5,429,508.5,369.9C508.5,308.4,433,279.7,382,279.7z"/>
					</g>
				</g>
			</g>
			<g class="st3">
				<g>
					<path class="st4" d="M479.3,312.2c6.3,10.6,10,22.6,10,36.3c0,61.7-74.5,115.8-127.5,115.8c-29.2,0-64.8-16.4-91-41.4
						c25.4,36.7,72.6,62.8,109.5,62.8c53,0,127.5-54.1,127.5-115.8C507.8,345.8,496.4,326.6,479.3,312.2z"/>
				</g>
			</g>
			<g>
				<g>
					<path class="st5" d="M382,493.8c-27.5,0-61.1-13.9-87.8-36.3c-29.7-25-46.8-56.9-46.8-87.6c0-31.1,16.5-57.4,47.7-76
						c24.5-14.7,57-23.5,86.9-23.5c29.9,0,62.4,8.8,86.9,23.5c31.2,18.7,47.7,45,47.7,76c0,30.7-17,62.6-46.8,87.6
						C443.1,479.9,409.5,493.8,382,493.8z M382,286.6c-48.6,0-120.6,26.5-120.6,83.3c0,54.4,69,107.7,120.6,107.7
						s120.6-53.2,120.6-107.7C502.5,313.1,430.6,286.6,382,286.6z"/>
				</g>
			</g>
			<g>
				<g>
					<path class="st5" d="M384.3,311.1c0,0-69.4-2.2-53.5,41.8c6.1,16.9,15.5,29,24.7,37.4c16.9,15.4,40.7,15.4,57.6,0
						c9.2-8.4,18.5-20.4,24.7-37.4C453.7,308.9,384.3,311.1,384.3,311.1z"/>
				</g>
			</g>
			<g>
				<g>
					<path class="st5" d="M384.3,410.6c-11.8,0-23.6-4.5-33.4-13.5c-12-11-21.1-24.8-26.9-40.8c-5.5-15.1-2.3-25.6,1.3-31.8
						c13.3-22.6,53.5-22.3,59.1-22.1c5.5-0.1,45.8-0.5,59.1,22.1c3.6,6.1,6.8,16.7,1.3,31.8c-5.8,16.1-14.9,29.8-26.9,40.8
						C407.9,406.1,396.1,410.6,384.3,410.6z M381.8,319.8c-14.7,0-37.8,3.8-44.1,14.6c-0.8,1.4-3.3,5.6,0.1,15.2
						c4.8,13.3,12.4,24.8,22.4,33.9c14.2,13,34.1,13,48.3,0c10-9.2,17.6-20.6,22.4-33.9c3.5-9.5,1-13.8,0.1-15.2
						c-6.7-11.4-32.1-15-46.5-14.6l-0.2,0l-0.2,0C383.4,319.8,382.6,319.8,381.8,319.8z"/>
				</g>
			</g>
			<g>
				<g>
					<ellipse class="st2" cx="404.8" cy="330.7" rx="25" ry="16.4"/>
				</g>
				<g>
					<path class="st5" d="M404.8,348.2c-14.3,0-26-7.8-26-17.5s11.6-17.5,26-17.5s26,7.8,26,17.5S419.1,348.2,404.8,348.2z
						 M404.8,315.4c-13.3,0-24.1,6.9-24.1,15.3s10.8,15.3,24.1,15.3s24.1-6.9,24.1-15.3C428.8,322.3,418,315.4,404.8,315.4z"/>
				</g>
			</g>
			<g>
				<g>
					<ellipse class="st2" cx="413.3" cy="361.1" rx="6.2" ry="7.3"/>
				</g>
				<g>
					<path class="st5" d="M413.3,369.5c-4,0-7.2-3.8-7.2-8.4s3.2-8.4,7.2-8.4s7.2,3.8,7.2,8.4C420.5,365.8,417.3,369.5,413.3,369.5z
						 M413.3,355c-2.9,0-5.3,2.8-5.3,6.2s2.4,6.2,5.3,6.2s5.3-2.8,5.3-6.2C418.6,357.7,416.3,355,413.3,355z"/>
				</g>
			</g>
			<g class="st3">
				<g>
					<path class="st4" d="M529.8,179.7c0.8-40.3,18.3-56.6,40.1-68.1c-75.5-30.6-114.7,11.5-114.7,11.5l34,54.4c0,0,19.5-13.8,28,82
						c8.5,95.9,60.3,176.9,119.8,144.3c23-12.6,34.2-44.7,35.5-83.1C615.8,371.8,525.9,368.4,529.8,179.7z"/>
				</g>
			</g>
			<g>
				<g>
					<path class="st6" d="M434.4,813.2c-0.8-72.8,4.4-138.2,4.4-138.2L326,739.9C326,826.1,364,878,364,878H438h19.5
						c2.6-6.1,4-12.7,4-19.6C461.6,839.3,450.7,822.5,434.4,813.2z"/>
				</g>
			</g>
			<g>
				<g>
					<path class="st5" d="M327,739.7c5.1,11.3,8.2,22.6,11.6,34l2.3,8.5c0.8,2.9,1.4,5.7,2.2,8.6c1.6,5.7,3.1,11.4,4.9,17
						c3.3,11.3,7,22.5,10.7,33.6c3.8,11,7.9,22.2,12.1,32.7l-6.9-4.9l46.7,0.6c15.6,0.2,31.2,0.2,46.7,0.2l-6.2,4.5
						c2.1-4.9,3.2-10.1,3.3-15.4c0-5.3-0.9-10.6-2.9-15.5c-1.9-4.9-4.8-9.4-8.3-13.3c-3.5-3.9-7.6-7.1-12.1-9.7l-0.1-0.1
						c-2.4-1.4-3.8-4.2-3.8-7.1l-0.1-39.6c0-13.2,0.3-26.3,1.2-39.5c0.9-13.1,2.2-26.2,3.9-39.2c1.8-13,3.7-26,6.7-38.9
						c0.1-0.7,0.8-1.1,1.3-0.9c0.5,0.1,0.8,0.6,0.8,1.1c1,13.2,1.4,26.4,1.7,39.5c0.2,13.1,0.3,26.2,0.1,39.2
						c-0.1,13.1-0.5,26.1-1.1,39.1c-0.5,13-0.7,26-0.6,39l-3.9-7.2c5.6,3.3,10.9,7.4,15.6,12.5c4.6,5.1,8.6,11.3,11.4,18.3
						c2.8,6.9,4.2,14.8,4.1,22.6c-0.1,7.8-1.8,15.5-4.8,22.4l0,0c-1.2,2.8-3.7,4.5-6.2,4.5c-15.6,0-31.2,0-46.7,0.2l-46.7,0.6
						c-3,0-5.6-1.9-6.8-4.9l0-0.1c-4.8-11.3-9-22.5-12.9-34c-4-11.4-7.3-23.1-10.5-34.9c-1.6-5.9-3-11.8-4.4-17.8
						c-1.3-6-2.7-11.9-3.6-18c-0.5-3.1-0.9-6.1-1.2-9.2c-0.3-3.1-0.4-6.2-0.6-9.3c-0.3-6.2,0-12.5,0.8-18.8c0.1-0.7,0.6-1.2,1.3-1.1
						C326.5,739,326.8,739.3,327,739.7L327,739.7z"/>
				</g>
			</g>
			<g class="st3">
				<g>
					<path class="st4" d="M377.6,858.3c-19.7-19.7-8.4-127.8,37.5-127.5c8.2,0.1,14.9,2.1,20.4,5.4c1.3-36.3,3.3-61.3,3.3-61.3
						L326,739.9C326,826.1,364,878,364,878H438h19.5c2.6-6.1,4-12.7,4-19.6c0-2.7-0.2-5.3-0.6-7.9
						C452.9,870.2,395.3,876,377.6,858.3z"/>
				</g>
			</g>
			<g class="st3">
				<g>
					<path class="st4" d="M251.9,834.3c-10.5-4.8-8.3-13.5-3.1-21.4c-0.3,0.1-16.5-64,7.2-80.2c26.3-18,39.1,6.3,39.1,6.3l2.7,29.8
						c6.7-14.1,4.5-30.1-17.1-46.6c-49.6-38.1-61.7,38.4-127.3,39.9c-44.9,1.1-39.4-87.2-39.4-87.2C84,835.5,186.8,878,186.8,878
						H292C287.9,850,270.5,842.8,251.9,834.3z"/>
				</g>
			</g>
			<g>
				<g>
					<g>
						
							<ellipse transform="matrix(0.9941 -0.1086 0.1086 0.9941 -22.8569 49.2188)" class="st16" cx="440.4" cy="234.5" rx="24.3" ry="36.4"/>
					</g>
					<g>
						<path class="st16" d="M442.5,271.2c-2,0-4-0.4-6-1.1c-7.5-2.7-13.9-10.1-17.7-20.1c-6.9-18.3-2.8-40.2,9-48.8
							c4.9-3.6,10.8-4.4,16.4-2.4c7.5,2.7,13.9,10,17.7,20.1c6.9,18.3,2.8,40.2-9,48.8C449.7,270,446.1,271.2,442.5,271.2z
							 M438.1,198.6c-3.4,0-6.8,1.1-9.8,3.4c-11.5,8.3-15.4,29.7-8.7,47.6l0,0c3.7,9.9,9.9,17,17.2,19.6c5.5,2,10.9,1.2,15.7-2.3
							c11.5-8.3,15.4-29.7,8.7-47.6c-3.7-9.9-9.9-17-17.2-19.6C442,199,440,198.6,438.1,198.6z"/>
					</g>
				</g>
				<g>
					<g>
						
							<ellipse transform="matrix(0.9934 -0.1147 0.1147 0.9934 -23.401 50.9417)" class="st2" cx="431" cy="228.8" rx="6.5" ry="12.6"/>
					</g>
				</g>
				<g>
					<g>
						<path class="st2" d="M450.1,242.9c0.7,3.4,2.7,5.6,4.4,5.1c1.7-0.6,2.5-3.8,1.8-7.2s-2.7-5.6-4.4-5.1
							C450.2,236.3,449.4,239.5,450.1,242.9z"/>
					</g>
				</g>
			</g>
			<g>
				<g>
					<g>
						
							<ellipse transform="matrix(0.1086 -0.9941 0.9941 0.1086 59.8606 535.8135)" class="st17" cx="328.7" cy="234.5" rx="36.4" ry="24.3"/>
					</g>
					<g>
						<path class="st17" d="M326.5,271.2c-3.6,0-7.2-1.2-10.3-3.5c-11.8-8.6-15.9-30.5-9-48.8c3.8-10.1,10.2-17.4,17.7-20.1
							c5.6-2,11.4-1.2,16.4,2.4c11.8,8.6,15.9,30.5,9,48.8l0,0c-3.8,10.1-10.2,17.4-17.7,20.1C330.5,270.8,328.5,271.2,326.5,271.2z
							 M330.9,198.6c-1.9,0-3.9,0.4-5.9,1.1c-7.2,2.6-13.5,9.8-17.2,19.6c-6.7,17.9-2.8,39.3,8.7,47.6c4.8,3.5,10.2,4.3,15.7,2.3
							c7.2-2.6,13.5-9.8,17.2-19.6l0,0c6.7-17.9,2.8-39.3-8.7-47.6C337.6,199.7,334.3,198.6,330.9,198.6z"/>
					</g>
				</g>
				<g>
					<g>
						
							<ellipse transform="matrix(0.1147 -0.9934 0.9934 0.1147 71.9429 538.3588)" class="st2" cx="338" cy="228.8" rx="12.6" ry="6.5"/>
					</g>
				</g>
				<g>
					<g>
						
							<ellipse transform="matrix(0.1612 -0.9869 0.9869 0.1612 26.1533 514.4656)" class="st2" cx="315.7" cy="241.8" rx="6.3" ry="3.3"/>
					</g>
				</g>
			</g>
			<g>
				<g>
					<path class="st5" d="M433.4,839.2c2.4,1.9,4,4.8,5.4,7.9c1.3,3.1,2.2,6.5,2.8,9.9c0.6,3.4,0.9,6.9,1.1,10.4
						c0,1.7,0.1,3.5,0,5.2l-0.2,5.2c-0.1,4-3,7.1-6.5,6.9c-3.4-0.2-6.1-3.5-5.9-7.5c0-0.9,0.2-1.8,0.5-2.5l0.1-0.2l1.5-4.2
						c0.5-1.4,0.9-2.8,1.4-4.3c0.8-2.9,1.5-5.8,1.9-8.8c0.5-3,0.6-6.1,0.4-9.1C435.6,845,435,841.9,433.4,839.2z"/>
				</g>
			</g>
			<g>
				<g>
					<path class="st5" d="M406.6,841.6c1.6,2.3,3,4.8,4.1,7.4c1.2,2.7,2.2,5.5,3,8.4c0.8,3,1.4,6.1,1.8,9.2c0.4,3.2,0.4,6.5,0.3,9.8
						v0.1c-0.1,4-3,7.1-6.4,7c-3.4-0.1-6.1-3.5-6-7.5c0-1,0.3-2,0.6-2.9c0.9-2.2,1.8-4.6,2.4-7.1c0.7-2.5,1.1-5.1,1.3-7.8
						c0.2-2.7,0.3-5.5,0.1-8.3C407.6,847.2,407.3,844.4,406.6,841.6z"/>
				</g>
			</g>
			<g>
				<g>
					<path class="st5" d="M519.2,839.2c2.3,1.9,4,4.8,5.3,7.9c1.3,3.1,2.2,6.5,2.8,9.9c0.6,3.4,0.9,6.9,1.1,10.4
						c0,1.7,0.1,3.5,0,5.2l-0.2,5.2c-0.1,4-3,7.1-6.5,6.9c-3.4-0.2-6.1-3.5-5.9-7.5c0-0.9,0.2-1.8,0.5-2.5l0.1-0.2l1.5-4.2
						c0.5-1.4,0.9-2.8,1.4-4.3c0.8-2.9,1.5-5.8,1.9-8.8c0.5-3,0.6-6.1,0.4-9.1C521.3,845,520.8,841.9,519.2,839.2z"/>
				</g>
			</g>
			<g>
				<g>
					<path class="st5" d="M496.3,841.6c1.6,2.3,3,4.8,4.1,7.4c1.2,2.7,2.2,5.5,3,8.4c0.8,3,1.4,6.1,1.8,9.2c0.4,3.2,0.4,6.5,0.3,9.8
						v0.1c-0.1,4-3,7.1-6.4,7c-3.4-0.1-6.1-3.5-6-7.5c0-1,0.3-2,0.6-2.9c0.9-2.2,1.8-4.6,2.4-7.1c0.7-2.5,1.1-5.1,1.3-7.8
						c0.2-2.7,0.3-5.5,0.1-8.3C497.4,847.2,497,844.4,496.3,841.6z"/>
				</g>
			</g>
		</g>
		<g>
			<g>
				<g>
					<g>
						<path class="st6" d="M1040.1,714.9c-3.6-10.6-8.4-18.1-18-11.2c-15.6,11.2-1.4,43.3,1.9,57.8c5.3,23,9.6,48.5-4.4,69.1
							c-23.4,34.4-72.1,23.2-96.3-4c-9.8-11-17.9-26.7-16.7-43.1c0.6-8.3,2.3-18.6,11-18.5c13.1,0.2,7.9,12.6,10.3,21.2
							c6.6,23.3,45.7,47.4,62.7,25.4c11-14.2-3.6-40.3-8-54c-9.9-30.5-13.5-63.1,6.3-88.8c26-33.8,66.8-28.9,90.2,6.3
							c7.2,10.8,13.3,23.1,8.8,37.3C1080.3,737,1049.7,738.7,1040.1,714.9z"/>
					</g>
				</g>
				<g>
					<g>
						<path class="st4" d="M978.2,853.2c-20,0-41.4-9.8-55.6-25.8c-11.8-13.3-18-29.4-17-44.1c0.7-9.1,2.6-19.6,11.9-19.6
							c0,0,0.1,0,0.2,0c10.2,0.1,10.3,7.6,10.5,14.2c0,2.7,0.1,5.5,0.8,7.9c4,13.9,20.1,28.4,35.9,32.3c10.5,2.6,19.4,0,25.1-7.3
							c8.3-10.8,0.8-29.6-4.6-43.3c-1.4-3.5-2.7-6.8-3.6-9.5c-12.5-38.6-10.4-68.1,6.5-90c12.1-15.7,28-23.9,44.8-23.2
							c17.8,0.7,34.9,11.5,47,29.6c7.1,10.6,13.7,23.4,9,38.4c-3.7,11.8-12.9,19.6-24.2,20.1c-11.1,0.6-21-6.1-25.6-17.5l0-0.1
							c-2.6-7.6-5.2-11.6-8.3-12.7c-2.3-0.9-5.1-0.2-8.3,2.1c-11.9,8.6-5.3,30.5-0.5,46.5c1.2,3.9,2.2,7.2,2.8,10
							c5.2,22.9,9.6,49.1-4.6,70.1c-8.8,13-21.8,20.5-37.6,21.7C981.3,853.2,979.7,853.2,978.2,853.2z M917.6,766.1
							c-7.6,0-9.3,8.8-9.9,17.5c-1.5,19.9,11,36.1,16.4,42.2c14.7,16.5,38.3,26.5,58.7,24.9c15.2-1.2,27.7-8.4,36.1-20.9
							c13.7-20.1,9.6-44.6,4.2-68c-0.6-2.7-1.6-6-2.8-9.8c-4.8-15.8-12-39.6,1.3-49.2c3.8-2.7,7-3.5,10-2.4
							c4.8,1.8,7.6,8.5,9.5,14.1c4.2,10.5,13.3,16.7,23.7,16.2c10.4-0.6,18.9-7.7,22.4-18.6c4.3-13.9-2-26.1-8.7-36.2
							c-11.7-17.5-28.2-28-45.5-28.7c-16.2-0.7-31.6,7.3-43.2,22.4c-16.3,21.2-18.3,49.8-6.1,87.6c0.9,2.7,2.2,5.9,3.5,9.4
							c5.7,14.3,13.5,33.8,4.3,45.8c-6.1,7.9-15.7,10.8-27,8c-16.5-4-33.2-19.2-37.4-33.8c-0.8-2.7-0.8-5.7-0.9-8.5
							c-0.1-6.9-0.2-11.8-8.5-11.9C917.7,766.1,917.6,766.1,917.6,766.1z"/>
					</g>
				</g>
			</g>
			<g class="st3">
				<g>
					<path class="st4" d="M1079.2,675.1c-0.4-0.7-0.9-1.3-1.4-1.9c-0.3,6.8-3,13.4-10.7,17.9c-19.3,11.1-37.2-23.4-59.1-4.2
						c-8,7-12.4,18.1-12.6,29.7c-0.8,57.1,40.3,94.9-6.4,97c-17.7,18.6-54.6-4.7-61-27.3c-2.5-8.6,2.8-21.1-10.3-21.2
						c-8.7-0.1-10.4,10.2-11,18.5c-1.2,16.4,6.9,32.2,16.7,43.1c24.2,27.2,72.9,38.4,96.3,4c14-20.6,9.7-46,4.4-69.1
						c-3.3-14.4-17.5-46.5-1.9-57.8c9.6-6.9,14.4,0.6,18,11.2c9.6,23.8,40.2,22,47.9-2.5C1092.4,698.2,1086.3,685.9,1079.2,675.1z"
						/>
				</g>
			</g>
			<g>
				<g>
					<path class="st5" d="M978.3,860.9c-21.7,0-44.8-10.6-60.2-27.9c-13.3-14.9-20.2-33.3-19-50.3c1.6-22.2,11.1-26.7,18.7-26.6
						c16.6,0.2,16.9,15.8,17,21.7c0,2.1,0.1,4.3,0.5,5.6c3.2,11.2,17.7,23.9,31,27.1c5.8,1.4,13.7,1.7,18.8-4.9
						c5.4-7-1.3-23.8-5.7-34.9c-1.4-3.6-2.8-7-3.8-10.1c-13.4-41.6-10.9-73.6,7.7-97.8c13.4-17.4,31.1-26.6,49.9-25.8
						c19.8,0.8,38.7,12.7,52,32.5c7.7,11.5,15.8,27.2,10,45.8c-4.6,14.8-16.1,24.5-30.1,25.2c-13.9,0.7-26.1-7.7-31.9-22
						c-0.1-0.2-0.1-0.3-0.2-0.5c-2.5-7.3-4.1-8.2-4.2-8.3c0,0-0.8,0-2.7,1.4c-7.4,5.4-1.6,24.6,2.3,37.4c1.2,3.9,2.3,7.5,3,10.6
						c5.7,24.7,10.3,53.1-5.8,76.8c-10,14.8-24.7,23.3-42.3,24.6C981.6,860.9,979.9,860.9,978.3,860.9z M917.6,773.8
						c-0.8,0-2.5,0.3-3.3,10.4c-1.2,16.6,9.6,30.7,14.4,36c13.4,15.1,34.9,24.2,53.6,22.8c9.2-0.7,22.2-4.4,31.4-17.9
						c11.8-17.3,8-39.8,3-61.3c-0.6-2.4-1.6-5.8-2.6-9.3c-5.1-17-13.7-45.5,4.1-58.3c5.5-3.9,10.7-5,15.5-3.1
						c7.3,2.8,11,11.2,13.5,18.3c3.7,9,11.4,11.9,17.3,11.6c6-0.3,13.5-4,16.4-13.6c2.7-8.5,0.5-16.6-7.7-28.9
						c-10.5-15.7-25.2-25.1-40.5-25.7c-14.2-0.6-27.7,6.5-38.1,19.9c-14.7,19.1-16.2,44.4-4.8,79.8c0.8,2.4,2,5.5,3.3,8.8
						c6.1,15.3,15.3,38.4,3.2,54.2c-7.8,10.1-19.5,13.8-33.2,10.4c-18.8-4.6-37.4-21.7-42.3-38.9c-1.1-3.8-1.2-7.5-1.2-10.8
						c0-1.3-0.1-3.1-0.2-4.2C919,773.9,918.4,773.8,917.6,773.8C917.6,773.8,917.6,773.8,917.6,773.8z M919.9,774.2L919.9,774.2
						L919.9,774.2z"/>
				</g>
			</g>
			<g>
				<g>
					<g>
						<path class="st6" d="M628.1,696.1l24.6,140.1c-10.5,4.8-19.5,16-17.2,40.9h24.4h23h25.4l29.4-181L628.1,696.1L628.1,696.1z"/>
					</g>
				</g>
				<g>
					<g>
						<path class="st4" d="M709,878.2h-74.4l-0.1-1c-1.9-21.2,3.8-35.2,17-41.7L626.9,695h111.9l-0.2,1.4L709,878.2z M636.4,875.9
							h71l29-178.6h-107l24.5,139.6l-0.8,0.4C640.4,843,634.8,856,636.4,875.9z"/>
					</g>
				</g>
			</g>
			<g class="st3">
				<g>
					<path class="st4" d="M626.2,702.5L676.1,844c-10.5,4.8-25.8,9.2-23.5,34l22.9-0.9h23h25.4l29.4-181L626.2,702.5z"/>
				</g>
			</g>
			<g>
				<g>
					<path class="st5" d="M708.2,885.9h-72.7c-3.9,0-7.2-3.4-7.6-7.9c-2.5-27.1,7.3-40.3,16.2-46.7l-23.4-133.4
						c-0.8-4.8,1.8-9.5,5.9-10.4c4.1-1,8.2,2.1,9,6.9l24.6,140.1c0.7,4.2-1.2,8.4-4.7,10c-5.5,2.5-12.4,7.7-12.7,23.8h59.1l20-123.1
						c0.8-4.8,4.8-8,8.9-7.1s6.9,5.5,6.1,10.4l-21.1,130.3C715,882.9,711.8,885.9,708.2,885.9z"/>
				</g>
			</g>
			<g>
				<g>
					<path class="st6" d="M792.3,546.3c0,0,11.9,57.9,59.2,70c47.3,12.1,120.5,60.7,90.2,186.4c-30.3,125.7-192.5-19.1-192.5-19.1
						s-102,26.1-138.5-70.4C574.2,616.7,671.5,454.8,792.3,546.3z"/>
				</g>
			</g>
			<g class="st3">
				<g>
					<ellipse class="st4" cx="722.4" cy="574" rx="98.8" ry="95"/>
				</g>
			</g>
			<g class="st3">
				<g>
					<path class="st4" d="M831.1,747.6c-9.1,7.3-20.2,32-20.2,32s-10.2-12.7-116.9-27.7c-60.8-8.5-82.9-44.1-90.7-73
						c0.9,12,3.3,23.6,7.4,34.3c36.5,96.5,138.5,70.4,138.5,70.4S804.6,833,856.6,849C795.5,800.5,839.6,740.8,831.1,747.6z"/>
				</g>
			</g>
			<g>
				<g>
					<ellipse class="st18" cx="720.3" cy="519.2" rx="102.9" ry="119.6"/>
				</g>
			</g>
			<g>
				<g>
					<path class="st5" d="M886.3,862.8c-54.6,0-124.1-57-139-69.8c-8.3,1.6-30,4.9-54.9,0.3c-42-7.7-72.7-34.2-88.7-76.6
						c-20.7-54.6-2.5-129.1,42.2-173.2c43.3-42.7,98.2-44.4,150.7-4.7c1.6,1.2,2.8,3.2,3.2,5.4c0.5,2.3,11.6,52.7,53.4,63.4
						c18,4.6,62.6,20.5,87.2,68.2c18,34.9,20.9,78.4,8.7,129.2c-6.7,28-20.2,46.1-39.9,53.7C902,861.6,894.3,862.8,886.3,862.8z
						 M749.2,774.7c1.7,0,3.3,0.6,4.6,1.8c1,0.9,97.4,86,150.5,65.4c14.8-5.8,24.7-19.4,30-41.7c11.1-45.9,8.7-84.7-7.1-115.3
						c-21.6-41.8-61.3-55.9-77.4-60c-44.8-11.5-60.5-59.3-64.1-73c-45.7-33.3-93-31.5-130.1,5.1c-39.1,38.6-55.8,105.6-38.1,152.5
						c14,36.9,39.8,59.2,76.7,66.1c28.4,5.3,53-0.8,53.2-0.8C748.1,774.8,748.6,774.7,749.2,774.7z"/>
				</g>
			</g>
			<g>
				<g>
					<path class="st5" d="M720.2,645.8c-8.9,0-18-1.3-27-4c-58.2-17.3-93.3-86.4-78.4-154.1c14.9-67.6,74.3-108.5,132.5-91.2
						c58.2,17.3,93.3,86.4,78.4,154.1l0,0C813.1,607.8,768.8,645.8,720.2,645.8z M720.3,406.6c-43.2,0-82.7,33.9-93.9,84.7
						c-13.3,60.2,18.1,121.7,69.8,137.1c51.8,15.4,104.7-21,117.9-81.2s-18.1-121.7-69.8-137.1C736.3,407.7,728.2,406.6,720.3,406.6
						z M819.9,548.9L819.9,548.9L819.9,548.9z"/>
				</g>
			</g>
			<g class="st3">
				<g>
					<path class="st4" d="M747.5,403.3c-45.2-13.5-91,10.1-113.8,54.4c19.2,9.6,36.6,21.7,50.1,42.4c25.4,39,29.5,89.7,28.9,138.2
						c49.4,5.2,96.2-31.8,108.9-89.5C835.8,484.9,802.6,419.7,747.5,403.3z"/>
				</g>
			</g>
			<g>
				<g>
					<ellipse class="st19" cx="697.1" cy="624.2" rx="25.5" ry="29.7"/>
				</g>
				<g>
					<path class="st20" d="M697.1,655c-2.2,0-4.4-0.3-6.6-1c-14.2-4.2-22.7-21-19.1-37.5c3.6-16.5,18.1-26.4,32.2-22.2
						c6.9,2,12.6,7.1,16.2,14.1c3.6,7.1,4.6,15.4,2.9,23.4C719.8,645.7,709,655,697.1,655z M697.2,595.7c-10.9,0-20.9,8.6-23.7,21.4
						c-3.3,15.2,4.6,30.8,17.7,34.7c13.1,3.9,26.5-5.3,29.8-20.5l0,0c1.6-7.4,0.7-15-2.7-21.6s-8.7-11.2-15-13.1
						C701.2,596,699.2,595.7,697.2,595.7z"/>
				</g>
			</g>
			<g class="st3">
				<g>
					<path class="st4" d="M713.1,602.2c-0.8-0.8-1.7-1.4-2.6-2.1c0.9,7.6-0.8,15.6-5.1,22.2c-8,11.9-22.3,14.8-33.2,7.3
						c0.9,7.4,4.1,14.5,9.6,19.4c11.1,10.1,27.1,7.7,35.8-5.2S724.3,612.3,713.1,602.2z"/>
				</g>
			</g>
			<g>
				<g>
					<path class="st21" d="M697.1,662.7c-2.7,0-5.5-0.4-8.2-1.2c-17.7-5.3-28.4-26.3-23.9-46.9s22.6-33,40.3-27.8
						c8.6,2.6,15.8,8.8,20.3,17.7c4.5,8.9,5.8,19.2,3.6,29.2l0,0C725.4,651.1,711.9,662.7,697.1,662.7z M697.2,603.4
						c-8,0-15.3,6.2-17.3,15.6c-2.5,11.1,3.3,22.5,12.9,25.3c9.5,2.8,19.3-3.9,21.8-15l0,0c1.2-5.4,0.5-11-1.9-15.8s-6.3-8.2-11-9.6
						C700.1,603.6,698.6,603.4,697.2,603.4z"/>
				</g>
			</g>
			<g>
				<g>
					<path class="st21" d="M690.8,656.4c-0.2,0-0.5,0-0.7-0.1c-1.6-0.5-2.6-2.4-2.2-4.2l6.3-28.7c0.4-1.9,2-3,3.6-2.5
						c1.6,0.5,2.6,2.4,2.2,4.2l-6.3,28.7C693.4,655.3,692.2,656.4,690.8,656.4z"/>
				</g>
			</g>
			<g>
				<g>
					<path class="st6" d="M871.4,357.6l-81.3,9.5c-11.3-9-24-15.9-37.8-20c-15.3-4.6-30.8-5.3-45.9-3l0,0l-71.1-56.8
						c-7-5.6-16.6-1.9-19.4,7.5c-7.3,24.6-17.3,71-8,117l0.1-0.1c-9.6,14.8-16.8,31-20.4,47.6c-15.4,70.1,36.2,120.1,108.7,141.7
						c72.5,21.6,138.5,6.6,153.9-63.4c4.4-20,4.2-42.3,0-64.4c22.5-33.7,31.5-74.5,35-98.1C886.7,365.3,879.8,356.6,871.4,357.6z"/>
				</g>
			</g>
			<g>
				<g>
					<path class="st0" d="M871.4,357.6l-81.3,9.5c-6.7-5.3-13.8-9.9-21.4-13.6c-20.5,18.4-33.7,47.3-33.7,79.8
						c0,55.7,38.8,100.9,86.8,100.9c10.6,0,20.8-2.2,30.2-6.3c2.5-17.4,1.9-36.2-1.7-54.9c22.5-33.7,31.5-74.5,35-98.1
						C886.7,365.3,879.8,356.6,871.4,357.6z"/>
				</g>
			</g>
			<g>
				<g>
					<g>
						<path class="st15" d="M646.3,328.3c-3.6-2.9-8.6-1-10.1,3.9c-3.6,12.2-8.5,34.5-4.8,57.2c0.2,1.2,0.4,2.3,0.6,3.5l0,0
							c0,0,1.5-2.8,4.7-6.8c7-8.7,21.9-23.4,46.3-28.3l0,0L646.3,328.3z"/>
					</g>
				</g>
				<g>
					<g>
						<path class="st4" d="M631.4,394.2l-0.2-1c-0.2-1.2-0.4-2.4-0.6-3.5c-3.8-23.3,1.4-46.2,4.8-57.8c0.8-2.7,2.5-4.7,4.8-5.6
							c2.3-0.9,4.7-0.5,6.7,1.1l38.2,30.5l-1.7,1.1c-24.3,4.9-39.1,19.6-45.8,27.9c-3.1,3.9-4.6,6.6-4.6,6.6l-0.2,0.4L631.4,394.2z
							 M642.6,328.1c-0.6,0-1.2,0.1-1.8,0.3c-1.7,0.6-3,2.2-3.6,4.1c-3.4,11.4-8.4,33.9-4.7,56.7c0,0.3,0.1,0.6,0.2,1
							c0.8-1.2,2-2.9,3.5-4.8c6.6-8.3,21-22.7,44.6-28.1l-35-27.9C644.8,328.4,643.7,328.1,642.6,328.1z"/>
					</g>
				</g>
			</g>
			<g class="st22">
				<g>
					<path class="st4" d="M658.7,337.4c-2.3-2.2-5.7-1.2-6.9,1.9c-3,7.9-7.4,22.4-6.1,37.8c0.1,0.8,0.1,1.6,0.2,2.4h0
						c0,0,1.2-1.7,3.5-4.2c5.1-5.3,15.8-14.1,32.3-15.6l0,0L658.7,337.4z"/>
				</g>
			</g>
			<g>
				<g>
					<path class="st5" d="M632.1,397.5c-1.8,0-3.5-1.4-3.9-3.6c-0.2-1.2-0.5-2.5-0.7-3.7c-3.9-24.1,1.4-47.7,4.9-59.6
						c1.1-3.7,3.5-6.5,6.7-7.8c3.2-1.2,6.6-0.7,9.4,1.6l36.9,29.5c1.1,0.9,1.8,2.4,1.7,3.9c0,1.6-0.7,3-1.9,3.8
						c-0.4,0.3-1,0.6-1.5,0.6c-23.5,4.7-37.7,18.9-44.1,26.9c-2.9,3.6-4.3,6.1-4.3,6.1c-0.6,1.1-1.7,1.9-2.8,2.1
						C632.5,397.5,632.3,397.5,632.1,397.5z M642.6,331.5c-0.3,0-0.6,0.1-0.8,0.2c-0.8,0.3-1.4,1-1.7,2c-3,10-7.3,28.8-5.4,48.5
						c6.4-7.8,19.1-20.2,38.9-26.6l-29.4-23.5l0,0C643.5,331.7,643,331.5,642.6,331.5z"/>
				</g>
			</g>
			<g>
				<g>
					<g>
						<path class="st15" d="M850.2,385c4.4-0.5,8,4,7.2,9.1c-1.9,12.7-6.9,35-19.6,52.8c-0.7,0.9-1.3,1.8-2,2.7l0,0
							c0,0-0.2-3.3-1.3-8.6c-2.5-11.6-9.5-32.8-28.8-50.8l0,0L850.2,385z"/>
					</g>
				</g>
				<g>
					<g>
						<path class="st4" d="M835.9,451.1l-1.1-0.9l-0.1-0.6c0,0-0.2-3.3-1.3-8.4c-2.4-11-9.2-32.2-28.5-50.2l-0.2-0.3l-0.9-1.6
							l1.6-0.2l44.6-5.1c2.4-0.3,4.7,0.8,6.3,2.8c1.6,2.1,2.3,4.8,1.9,7.6c-1.8,12.1-6.8,35.1-19.8,53.3c-0.7,0.9-1.3,1.9-2,2.8
							L835.9,451.1z M808,390.9c18.3,18,25,38.7,27.3,49.7c0.6,2.6,0.9,4.7,1.1,6.2c0.2-0.2,0.4-0.5,0.5-0.8
							c12.7-17.8,17.6-40.4,19.4-52.2c0.3-2.1-0.2-4.1-1.4-5.6c-1.2-1.5-2.9-2.3-4.7-2.1L808,390.9z"/>
					</g>
				</g>
			</g>
			<g class="st22">
				<g>
					<path class="st4" d="M836.7,384.7c3.1-0.7,5.9,2.2,5.7,5.9c-0.6,9.2-2.9,25.5-10.9,39.1c-0.4,0.7-0.8,1.4-1.3,2.1l0,0
						c0,0-0.3-2.3-1.4-6c-2.4-8.1-8.6-22.6-23.5-33.9l0,0L836.7,384.7z"/>
				</g>
			</g>
			<g>
				<g>
					<path class="st23" d="M835.7,454.2c-0.8,0-1.7-0.3-2.4-0.9c-0.9-0.8-1.6-2.1-1.7-3.5c0,0-0.2-3-1.2-7.8
						c-2.3-10.6-8.8-31-27.4-48.3c-0.3-0.3-0.6-0.7-0.9-1.1c-0.8-1.4-0.8-3.1-0.2-4.5c0.6-1.4,1.8-2.4,3.2-2.6l44.6-5.1l0,0
						c3.3-0.4,6.6,1,8.8,3.9c2.3,2.9,3.3,6.7,2.7,10.6c-1.9,12.4-7,36.1-20.5,54.9c-0.7,1-1.4,1.9-2.1,2.9
						C837.9,453.7,836.8,454.2,835.7,454.2z M815,393.6c14.7,16.7,20.6,34.6,23,45.1c9.8-16.2,13.8-35.1,15.4-45.5
						c0.2-1-0.1-1.9-0.7-2.7c-0.3-0.4-1.1-1.1-2.2-1L815,393.6z"/>
				</g>
			</g>
			<g>
				<g>
					<path class="st5" d="M753.9,618.3c-18.1,0-38-3.1-59.3-9.4c-85.2-25.4-128.8-83.4-113.8-151.6c3.6-16.2,10.2-32.1,19.6-47.3
						c-8.6-47.1,1.8-93.8,8.8-117.8c2-6.9,6.6-12.1,12.5-14.4c5.9-2.3,12.3-1.2,17.4,2.9l69,55.1c15.7-2,31.1-0.8,45.8,3.6
						c13.3,4,26,10.5,37.9,19.5l78.8-9.2l0,0c6.2-0.7,12.2,1.9,16.5,7.2c4.3,5.3,6.1,12.5,5,19.6c-3.3,22-12.1,63.6-34.4,98.7
						c3.8,22.6,3.6,44.8-0.8,64.5C845.7,590.6,808,618.3,753.9,618.3z M614.5,408.9c0.8,2.5,0.5,5.4-1,7.7
						c-9.4,14.4-15.8,29.5-19.2,44.7c-6.7,30.4-0.1,57.8,19.6,81.4c18.5,22.1,47.6,39.6,84.1,50.4c36.5,10.9,69.2,11.8,94.6,2.8
						c27-9.6,44.1-29.9,50.8-60.4c4-18.3,4-39.2,0-60.7c-0.4-2.4,0-4.8,1.3-6.7c22-32.9,30.5-73.3,33.7-94.5
						c0.3-2.1-0.2-4.2-1.5-5.8c-1.2-1.6-3-2.3-4.8-2.1l-81.3,9.5c-1.6,0.2-3.3-0.3-4.6-1.4c-11.1-8.8-23.1-15.1-35.6-18.9
						c-13.8-4.1-28.4-5.1-43.3-2.8c-2.1,0.3-4-0.4-5.5-2L631.3,294c-1.5-1.2-3.4-1.5-5.1-0.9c-1.8,0.7-3.1,2.2-3.7,4.3
						C615.7,320.2,605.8,364.9,614.5,408.9z"/>
				</g>
			</g>
			<g>
				<g>
					<path class="st5" d="M689,519.4c-0.9,2.4-1.6,5-2.2,7.7c-4.8,21.7,2.2,42.6,15.5,46.6s28-10.4,32.8-32.2c0.6-2.7,1-5.4,1.2-8
						L689,519.4z"/>
				</g>
			</g>
			<g>
				<g>
					<g>
						
							<ellipse transform="matrix(0.3813 -0.9244 0.9244 0.3813 -71.0346 995.4023)" class="st15" cx="708.2" cy="550.8" rx="10.3" ry="13.6"/>
					</g>
				</g>
				<g>
					<g>
						<path class="st24" d="M710.8,562.8c-1.6,0-3.3-0.2-4.9-0.7c-3.7-1.1-6.8-3.2-9-6.1c-2.2-2.9-3.1-6.3-2.4-9.4
							c1.4-6.2,8.7-9.4,16.4-7.1c7.7,2.3,12.8,9.2,11.4,15.4l0,0C721.2,559.8,716.5,562.8,710.8,562.8z M705.8,541.1
							c-4.7,0-8.6,2.3-9.4,6.1c-0.5,2.3,0.2,4.9,2,7.2c1.9,2.5,4.7,4.4,8,5.4c6.6,2,12.9-0.5,14-5.4c1.1-5-3.4-10.6-10-12.6
							C708.8,541.3,707.2,541.1,705.8,541.1z"/>
					</g>
				</g>
			</g>
			<g>
				<g>
					<path class="st5" d="M739.2,501.8c-2.1,7.9-16.7,14.8-23.5,12.4c-6.8-2.5-14.1-17.2-12-25.2c2.1-7.9,12.8-6.1,19.7-3.6
						C730.1,487.8,741.3,493.8,739.2,501.8z"/>
				</g>
			</g>
			<g>
				<g>
					<path class="st2" d="M731.8,497.9c-0.4,1.4-3.1,1.7-6.2,0.6s-5.2-3.1-4.8-4.6c0.4-1.4,3.1-1.7,6.2-0.6S732.2,496.5,731.8,497.9
						z"/>
				</g>
				<g>
					<path class="st5" d="M729.1,499.4c-1,0-2.2-0.2-3.5-0.7c-1.5-0.5-2.8-1.3-3.7-2.2c-1-0.9-1.4-1.9-1.2-2.6s1-1.3,2.2-1.4
						c1.2-0.1,2.7,0.1,4.2,0.6c3.2,1.1,5.3,3.3,4.9,4.8l0,0C731.8,498.9,730.7,499.4,729.1,499.4z M723.6,492.9c-0.2,0-0.4,0-0.6,0
						c-1.1,0.1-1.8,0.5-1.9,1.1s0.2,1.4,1.1,2.2c0.9,0.8,2.2,1.6,3.6,2.1c2.9,1,5.6,0.8,5.9-0.4l0,0c0.3-1.3-1.8-3.2-4.7-4.3
						C725.8,493.1,724.6,492.9,723.6,492.9z"/>
				</g>
			</g>
			<g>
				<g>
					<path class="st6" d="M747.9,523.5c-1.4,6.2-9.7,15.9-19.2,13.1s-16-10.1-14.6-16.4c-1.4,6.2-10.1,9-19.6,6.2
						s-12.8-16-11.4-22.2"/>
				</g>
			</g>
			<g>
				<g>
					<path class="st5" d="M747.9,523.5c0,2.4-0.7,4.7-1.7,6.9c-1,2.2-2.4,4.1-4,5.8c-1.6,1.7-3.6,3.1-5.8,4.1
						c-2.2,0.9-4.7,1.3-7.2,1c-1.3-0.1-2.3-0.4-3.4-0.7c-1.1-0.3-2.1-0.7-3.2-1.1c-2.1-0.9-4.2-2.1-6.1-3.6c-2-1.6-3.8-3.5-5.4-6.2
						c-0.8-1.4-1.4-3-1.8-4.8c-0.4-1.9-0.4-4,0-6c0.6-3.1,3.3-5.1,6-4.4c2.7,0.7,4.4,3.8,3.8,6.9l-0.1,0.3l0,0
						c-0.5,2-1.4,3.9-2.5,5.3c-1.1,1.4-2.3,2.5-3.6,3.2c-2.5,1.5-4.9,2.2-7.3,2.5c-2.4,0.2-4.7,0.2-6.9-0.3
						c-1.1-0.2-2.2-0.5-3.3-0.8c-1-0.4-2.1-0.7-3.3-1.3c-2.3-1.1-4.3-2.9-5.9-4.9c-1.6-2.1-2.7-4.4-3.4-6.9
						c-0.7-2.4-1.1-4.9-1.1-7.4c0-2.4,0.3-4.9,1.3-7c0.3,4.6,2,8.6,4.1,11.7c2.1,3.2,4.8,5.2,7.5,5.8c0.6,0.2,1.5,0.3,2.3,0.4
						c0.8,0.1,1.7,0.2,2.5,0.2c1.6,0,3.2-0.1,4.7-0.5c1.5-0.3,2.8-0.9,3.7-1.6c1-0.7,1.2-1.2,1.2-1.5l9.7,2.9c0,0.2-0.1,0.9,0.5,2
						c0.5,1.1,1.5,2.3,2.6,3.4c1.2,1.1,2.5,2.1,4,3.1c0.7,0.5,1.5,0.8,2.2,1.2c0.8,0.4,1.6,0.8,2.2,1c2.6,1,5.8,0.7,9-0.9
						C742.6,529.9,745.7,527.4,747.9,523.5z"/>
				</g>
			</g>
			<g>
				<g>
					<g>
						<g>
							<g>
								<line class="st25" x1="635.5" y1="490" x2="611.8" y2="482.9"/>
							</g>
						</g>
						<g>
							<g>
								<path class="st5" d="M634.8,493.2l-23-10.3l24.4,3.9c1.6,0.2,2.7,1.9,2.5,3.8c-0.2,1.8-1.7,3.1-3.2,2.9
									C635.2,493.4,635,493.3,634.8,493.2z"/>
							</g>
						</g>
					</g>
					<g>
						<g>
							<g>
								<line class="st25" x1="634.8" y1="506.3" x2="610.8" y2="511.9"/>
							</g>
						</g>
						<g>
							<g>
								<path class="st5" d="M635.3,509.6l-24.6,2.3l23.5-8.8c1.5-0.6,3.1,0.4,3.6,2.2s-0.3,3.6-1.8,4.2
									C635.8,509.5,635.5,509.6,635.3,509.6z"/>
							</g>
						</g>
					</g>
					<g>
						<g>
							<g>
								<line class="st25" x1="640.2" y1="521.4" x2="620.6" y2="538.5"/>
							</g>
						</g>
						<g>
							<g>
								<path class="st5" d="M641.9,524.1l-21.3,14.4l17.9-19.7c1.2-1.3,3-1.2,4.1,0.1s1,3.5-0.1,4.7
									C642.3,523.8,642.1,523.9,641.9,524.1z"/>
							</g>
						</g>
					</g>
				</g>
				<g>
					<g>
						<g>
							<g>
								<line class="st25" x1="797.5" y1="538.3" x2="821.2" y2="545.3"/>
							</g>
						</g>
						<g>
							<g>
								<path class="st5" d="M798.2,535l23,10.3l-24.4-3.9c-1.6-0.2-2.7-1.9-2.5-3.8s1.7-3.1,3.2-2.9C797.7,534.9,798,535,798.2,535
									z"/>
							</g>
						</g>
					</g>
					<g>
						<g>
							<g>
								<line class="st25" x1="791.3" y1="553" x2="810.1" y2="571.3"/>
							</g>
						</g>
						<g>
							<g>
								<path class="st5" d="M793.2,550.4l16.9,20.9l-20.6-15.8c-1.3-1-1.7-3.1-0.8-4.6c0.9-1.5,2.7-2,4-1
									C792.8,550.1,793,550.2,793.2,550.4z"/>
							</g>
						</g>
					</g>
					<g>
						<g>
							<g>
								<line class="st25" x1="780.3" y1="563.1" x2="790.5" y2="589.1"/>
							</g>
						</g>
						<g>
							<g>
								<path class="st5" d="M782.9,561.8l7.5,27.3l-12.7-24.6c-0.8-1.6-0.4-3.6,1-4.6c1.4-0.9,3.1-0.4,4,1.1
									C782.8,561.3,782.9,561.5,782.9,561.8z"/>
							</g>
						</g>
					</g>
				</g>
			</g>
			<g>
				<g>
					<path class="st5" d="M831.7,748.6c-5.5,7.1-10.2,15.1-13.6,23.4c-3.4,8.2-5.3,16.9-5.3,25.2c-0.1,4.2,0.6,8.2,1.4,12.2
						c0.8,4,2.2,7.8,3.8,11.5c3.2,7.5,7.6,14.6,12.3,21.8l0.1,0.1c2.6,3.9,2,9.5-1.4,12.5c-3,2.6-7,2.4-9.7-0.4
						c-6.8-6.9-12.4-15.8-16.3-26c-0.5-1.2-1-2.6-1.3-3.9c-0.4-1.3-0.8-2.6-1.2-4c-0.6-2.8-1.2-5.5-1.5-8.3
						c-0.7-5.6-0.7-11.4,0.1-16.9c1.5-11.1,5.8-21.2,11.3-29.4c5.6-8.2,12.3-14.9,20-19.8c0.5-0.3,1.2-0.1,1.5,0.5
						C832.2,747.6,832.1,748.2,831.7,748.6L831.7,748.6z"/>
				</g>
			</g>
			<g>
				<g>
					<path class="st6" d="M689.3,722.3l20,113.9c-10.5,4.8-19.5,16-17.2,40.9h24.4h23h25.4l21.1-130.3L689.3,722.3z"/>
				</g>
			</g>
			<g>
				<g>
					<path class="st5" d="M690.4,722c3.2,9.1,5.8,18.4,8.4,27.7c2.5,9.3,4.8,18.6,6.9,28c2.1,9.4,4,18.8,5.9,28.3
						c1.8,9.4,3.6,18.9,5.2,28.4l0,0.1c0.7,4.2-1.3,8.3-4.7,9.9c-2.6,1.2-4.8,2.7-6.6,4.6c-1.8,1.9-3.3,4.3-4.3,7.1
						c-1.1,2.8-1.7,6-2,9.4c-0.3,3.4-0.2,7.1,0.1,10.7l-7-7.4c6.1,0.1,12.1,0.1,18.2,0l18.2-0.1l36.3-0.5l-7.5,7.2
						c1.7-10.9,3.4-21.7,5.2-32.6l2.8-16.2l3-16.2c2-10.8,4.2-21.6,6.9-32.2c2.7-10.7,5.6-21.3,9.5-31.7c0.3-0.7,1-1,1.6-0.7
						c0.4,0.2,0.7,0.7,0.7,1.2c0.3,11.3-0.2,22.4-1.1,33.5c-0.8,11.1-2.1,22-3.6,32.9l-2.3,16.4l-2.5,16.3
						c-1.7,10.9-3.5,21.7-5.3,32.6l0,0.2c-0.7,4.2-3.9,7.1-7.4,7l-36.3-0.5l-18.2-0.1c-6.1-0.1-12.1,0-18.2,0c-3.7,0-6.7-3.2-7-7.4
						c-0.4-4.5-0.6-9.1-0.3-13.9c0.4-4.8,1.2-9.7,2.8-14.5c1.7-4.8,4.2-9.4,7.6-13.1c3.3-3.7,7.3-6.4,11.3-8.3l-4.7,9.9
						c-1.7-9.5-3.3-19-4.8-28.5c-1.5-9.5-2.9-19.1-4.1-28.7c-1.2-9.6-2.3-19.2-3.1-28.9c-0.8-9.7-1.5-19.4-1.6-29.3
						c0-0.8,0.5-1.4,1.2-1.4C689.8,721.2,690.2,721.5,690.4,722z"/>
				</g>
			</g>
			<g>
				<g>
					<path class="st6" d="M940.2,807.2c0,0-17.1,61.8-37.8,69.9H786.7c0,0-20.4-91.4,82.2-39.1"/>
				</g>
			</g>
			<g>
				<g>
					<path class="st5" d="M945.3,815.6c-1.9,6.7-4,12.8-6.3,19.1c-2.3,6.2-4.9,12.3-7.8,18.4c-2.9,6-6.2,11.9-10.2,17.5
						c-2,2.8-4.3,5.5-6.9,8c-2.6,2.5-5.7,4.8-9.5,6.2c-0.7,0.3-1.4,0.4-2.2,0.4h0l-110.6,0h-0.1c-3.3,0-6-2.6-6.7-6.1
						c-0.3-1.5-0.5-2.6-0.7-3.9c-0.2-1.2-0.4-2.4-0.5-3.6c-0.3-2.4-0.5-4.9-0.6-7.4c-0.2-4.9,0-10.1,0.9-15.2
						c0.9-5.2,2.6-10.5,5.5-15.3c2.9-4.8,7-8.7,11.6-11c4.5-2.3,9.1-3.3,13.5-3.4c4.4-0.2,8.6,0.5,12.6,1.5
						c8,2.1,15.4,5.6,22.2,10.2c1.1,0.8,1.5,2.5,0.8,3.8c-0.5,1-1.4,1.5-2.3,1.3l0,0c-7.6-1-15-2.2-22-2.3c-7-0.2-13.8,0.9-18.5,3.9
						c-2.3,1.6-4.2,3.4-5.6,5.9c-1.5,2.4-2.5,5.5-3.2,9c-0.7,3.4-1,7.2-1,11.1c0,1.9,0.1,3.9,0.3,5.8c0.1,1,0.2,1.9,0.3,2.9
						c0.1,0.9,0.3,2,0.4,2.6l-6.8-6.1l110.6,0l-2.2,0.4c3.3-1.2,7-4.9,10.2-9.3c3.2-4.4,6.1-9.6,8.7-15c2.6-5.4,5-11.1,7.2-16.9
						c2.2-5.8,4.2-11.8,5.8-17.6l0-0.2c1.2-4.2,5.2-6.5,8.8-5.1C944.6,806.8,946.5,811.4,945.3,815.6L945.3,815.6z"/>
				</g>
			</g>
			<g class="st3">
				<g>
					<g>
						<path class="st4" d="M805,824c-27,10.2-17.4,53.1-17.4,53.1h115.7c15.3-5.9,28.7-41.3,34.6-59.3c2.5-7.8,3.9-11.6,4.8-15.1
							c2.2-9.3,4-24.4-1.7-45.1c1.4,30.9-15.1,59.9-42.6,74.7C868.8,848.1,831.7,844.9,805,824z"/>
					</g>
				</g>
			</g>
			<g class="st13">
				<g>
					<g>
						<path class="st4" d="M709.3,836.2c-10.5,4.8-19.5,16-17.2,40.9h24.4h23h25.4l13.2-81.3C764.9,818.7,743.7,837.8,709.3,836.2z"
							/>
					</g>
				</g>
			</g>
			<g>
				<g>
					<g>
						<path class="st26" d="M723.3,845.4c-1.6,2.1-2.3,4.8-2.7,7.3c-0.4,2.6-0.5,5.2-0.3,7.8c0.1,2.6,0.5,5.2,1,7.7l0.8,3.8l1,3.7
							l0,0.2c0.9,3.2-0.7,6.7-3.5,7.7s-5.8-0.8-6.6-4c-0.2-0.7-0.3-1.5-0.2-2.2l0.2-4.5c0.1-1.5,0.3-3,0.4-4.4
							c0.4-3,0.9-5.9,1.7-8.7c0.7-2.8,1.8-5.6,3.1-8.1C719.5,849.1,721.2,846.8,723.3,845.4z"/>
					</g>
				</g>
				<g>
					<g>
						<path class="st26" d="M742.2,847.9c-1.6,4.9-2.3,10.1-2.3,15c0,2.5,0.2,4.9,0.6,7.2c0.3,2.3,1,4.5,1.6,6.6
							c1,3.4-0.5,7.2-3.4,8.4c-2.9,1.2-6.2-0.5-7.2-3.9c-0.3-0.9-0.4-1.8-0.3-2.6l0-0.1c0.2-3,0.4-6,1-8.8c0.5-2.9,1.3-5.6,2.3-8.2
							C736.4,856.3,739,851.7,742.2,847.9z"/>
					</g>
				</g>
			</g>
			<g>
				<g>
					<g>
						<path class="st5" d="M658.7,849.3c-1.4,1.9-2,4.2-2.4,6.4c-0.4,2.3-0.4,4.6-0.3,6.8c0.1,2.3,0.5,4.5,0.9,6.7l0.7,3.3l0.9,3.2
							l0,0.1c0.8,2.8-0.6,5.9-3,6.8s-5-0.7-5.8-3.5c-0.2-0.6-0.2-1.3-0.2-1.9l0.2-3.9c0.1-1.3,0.2-2.6,0.4-3.9
							c0.3-2.6,0.8-5.1,1.5-7.6c0.6-2.5,1.5-4.9,2.7-7.1C655.4,852.6,656.8,850.5,658.7,849.3z"/>
					</g>
				</g>
				<g>
					<g>
						<path class="st5" d="M676.7,849.7c-1.5,4.6-2.2,9.4-2.2,14c0,2.3,0.2,4.6,0.5,6.7c0.3,2.2,0.9,4.2,1.5,6.2
							c1,3.2-0.4,6.7-3.2,7.9c-2.7,1.1-5.8-0.5-6.8-3.7c-0.2-0.8-0.3-1.6-0.3-2.4l0-0.1c0.2-2.8,0.4-5.6,1-8.2
							c0.5-2.7,1.2-5.2,2.2-7.6C671.3,857.6,673.7,853.3,676.7,849.7z"/>
					</g>
				</g>
			</g>
			<g class="st22">
				<g>
					<g>
						<path class="st4" d="M870.6,357.6l-81.3,9.5c-2-2.8-10.5-14.6-27.2-18.6c-14.8-3.5-26.7,1.2-30.2,2.8
							c12.3,2.1,33.6,7.3,54.2,22.5c49.6,36.4,50.5,97,50.7,107c0.2,14.5,0.3,50.1-25.6,82.8c-17.8,22.5-39.6,33.4-51.3,38.2
							c7.2,1.1,37,4.7,61.4-14c18.8-14.4,24.6-34.1,28.2-50.3c4.4-20,4.2-42.3,0-64.4c22.5-33.7,31.5-74.5,35-98.1
							C885.9,365.3,879,356.6,870.6,357.6z"/>
					</g>
				</g>
			</g>
			<g>
				<g>
					<path class="st5" d="M648.3,445c3.3-4.9,8.2-7.9,13.6-9.2c2.7-0.6,5.6-0.6,8.4-0.2c2.8,0.6,5.7,1.6,8.2,3.3
						c1.3,0.8,2.4,1.8,3.5,2.7c1.1,0.9,2.1,2.1,3.2,3.2c1.9,2.4,3.7,5.1,4.8,8.2c2.3,6.1,2.5,13.5-0.7,18.6
						c-1.9-5.8-4.5-9.6-7.2-12.8c-1.4-1.6-2.9-2.9-4.4-4.2c-0.8-0.6-1.5-1.3-2.4-1.9c-0.8-0.6-1.7-1.3-2.5-1.7l-1.2-0.8
						c-0.4-0.2-0.8-0.4-1.2-0.6c-0.8-0.6-1.7-0.7-2.5-1.2c-1.8-0.7-3.6-1.3-5.7-1.8C658.1,445.8,653.6,445.3,648.3,445z"/>
				</g>
			</g>
			<g>
				<g>
					<path class="st5" d="M811,487.1c-4.8-2.6-8.9-4.8-12.8-6.2c-2-0.7-3.9-1.2-5.7-1.7c-0.9-0.1-1.8-0.4-2.7-0.4
						c-0.5,0-0.9-0.1-1.3-0.1l-1.3,0c-0.9-0.1-1.9,0.1-2.9,0.1c-1,0-1.9,0.2-2.9,0.3c-1.9,0.3-3.8,0.6-5.6,1.2
						c-3.7,1.2-7.6,3.1-11.6,7.1c-0.6-6.3,2.6-12.7,7.1-16.7c2.3-2.1,4.9-3.4,7.6-4.5c1.3-0.4,2.7-0.8,4.1-1.1
						c1.4-0.1,2.7-0.4,4.2-0.4c2.9-0.1,5.8,0.7,8.6,1.8c2.7,1.2,5.2,2.8,7.3,4.9C807,475.5,810.1,480.9,811,487.1z"/>
				</g>
			</g>
			<g>
				<g>
					<path class="st5" d="M714.1,526.1c-0.5,0-1.1-0.1-1.6-0.3c-2.6-1-4-4.3-3.1-7.4l4.7-16.1c0.9-3,3.7-4.7,6.3-3.6s4,4.3,3.1,7.4
						l-4.7,16.1C718.1,524.5,716.2,526.1,714.1,526.1z"/>
				</g>
			</g>
			<g>
				<g>
					<g>
						<path class="st26" d="M815.5,844.3c-1.5,2-2.2,4.5-2.6,6.9c-0.4,2.4-0.5,4.9-0.3,7.4c0.1,2.4,0.5,4.9,0.9,7.2l0.8,3.6l1,3.5
							l0,0.1c0.8,3.1-0.6,6.3-3.3,7.3s-5.4-0.7-6.3-3.8c-0.2-0.7-0.2-1.4-0.2-2.1l0.2-4.2c0.1-1.4,0.3-2.8,0.4-4.2
							c0.4-2.8,0.8-5.6,1.6-8.2c0.7-2.7,1.7-5.3,2.9-7.7C811.9,847.8,813.4,845.5,815.5,844.3z"/>
					</g>
				</g>
				<g>
					<g>
						<path class="st26" d="M833.3,846.6c-1.5,4.6-2.2,9.5-2.2,14.1c0,2.3,0.2,4.6,0.5,6.8c0.3,2.2,0.9,4.3,1.5,6.3
							c1,3.2-0.4,6.8-3.2,7.9c-2.8,1.2-5.8-0.5-6.8-3.7c-0.2-0.8-0.3-1.6-0.3-2.5l0-0.1c0.2-2.9,0.4-5.6,1-8.3
							c0.5-2.7,1.3-5.2,2.2-7.7C827.8,854.6,830.2,850.2,833.3,846.6z"/>
					</g>
				</g>
			</g>
		</g>
	</g>
</g>
</svg>
