<?xml version="1.0" encoding="utf-8"?>
<!-- Generator: Adobe Illustrator 25.2.0, SVG Export Plug-In . SVG Version: 6.00 Build 0)  -->
<svg version="1.1" id="Layer_1" xmlns="http://www.w3.org/2000/svg" xmlns:xlink="http://www.w3.org/1999/xlink" x="0px" y="0px"
	 viewBox="0 0 2031.82 1240.62" style="enable-background:new 0 0 2031.82 1240.62;" xml:space="preserve">
<style type="text/css">
	.st0{fill:#E07E42;}
	.st1{fill:#FFE0AD;}
	.st2{fill:#F2D19E;}
	.st3{fill:#F08547;}
	.st4{fill:none;stroke:#E1BE91;stroke-width:5.8357;stroke-linecap:round;stroke-linejoin:round;stroke-miterlimit:10;}
	.st5{fill:#F0EBF0;}
	.st6{fill:#6BA9BA;}
	.st7{fill:#F4D3A1;}
	.st8{fill:#F0E8EB;}
	.st9{fill:none;stroke:#524643;stroke-width:10.0606;stroke-linecap:round;stroke-linejoin:round;stroke-miterlimit:10;}
	.st10{fill:none;stroke:#524643;stroke-width:5.7809;stroke-linecap:round;stroke-linejoin:round;stroke-miterlimit:10;}
	.st11{fill:#524643;}
	.st12{opacity:0.3;fill:#C7C7C7;enable-background:new    ;}
	.st13{fill:#83462B;}
	.st14{fill:#F4A061;}
	.st15{fill:none;stroke:#E08B58;stroke-width:4.459;stroke-linecap:round;stroke-linejoin:round;stroke-miterlimit:10;}
	.st16{fill:#FBC883;}
	.st17{fill:#E98C54;}
	.st18{fill:#F2F0E7;}
	.st19{fill:#E2955B;}
	.st20{fill:none;stroke:#AE6D36;stroke-width:3.4172;stroke-linecap:round;stroke-linejoin:round;stroke-miterlimit:10;}
	.st21{fill:#F0866F;}
	.st22{fill:none;stroke:#AE6D36;stroke-width:6.8344;stroke-linecap:round;stroke-linejoin:round;stroke-miterlimit:10;}
	.st23{fill:none;stroke:#E08B58;stroke-width:5.1258;stroke-linecap:round;stroke-linejoin:round;stroke-miterlimit:10;}
</style>
<g>
	<g>
		<path class="st0" d="M340.11,1004.12c13.53,12.41,37.16,47.94,66.16,67.24c12.9,8.58,59.21,6.28,55.72,24
			c0.19,6.15-12.05,5.76-22.52,5.6c-13,0.22-23.58,0.37-40.89,0.13c-42.4-0.58-48.98,0.12-78.05-24.87L340.11,1004.12z"/>
		<path class="st1" d="M406.27,1071.36c-1.04-0.69-2.04-1.44-3.06-2.17c-5.06,5.67-8.89,20.11-6.35,31.88
			c0.58,0,1.13,0.01,1.72,0.02c17.32,0.24,27.89,0.09,40.89-0.13c10.47,0.16,22.71,0.54,22.52-5.6
			C465.48,1077.64,419.17,1079.94,406.27,1071.36z"/>
		<path class="st2" d="M169.55,992.92c24.91,38.82,11.57,87.08,2.88,102.43c-3.26,5.75,11.44,6.63,10.43,23.56
			c-11.08,1.04-16.97,0.65-27.26,0c-10.97-6.79-65.98-123.9-61.64-166.27L169.55,992.92z"/>
		<path class="st3" d="M396.05,991.02c0,13.11-3.91,25.49-6.26,33.82c-4.59,16.29-27.93,88.21-79.05,94.72
			c-60.75,7.71-129.06-26.52-174.09-65.74c-46.96-33.42-82.65-56.04-87.74-101.18c-0.23-22.66,9.38-51.53,32.38-71.52
			c15.36-13.36,32.82-16.91,49.92-14.45c9.81,1.42,19.5,4.81,28.6,9.48c21.54,11.01,96.51,74.79,128.73,84.74
			c2.04,0.65,3.91,1.06,5.6,1.23c22.57,2.35,28.17-7.07,43.45-13.98C357.18,939.31,396.05,970.06,396.05,991.02z"/>
		<path class="st1" d="M337.58,948.16c-12.81,5.78-32.93,12.19-47.84,13.1c0.46,27.56,15.89,57.01,35.69,77.27
			c7.81,7.98,16.65,18.74,25.56,27.01c3.19,2.97,10.4,9.97,15.23,12.71c12.07-20.25,21.81-43.02,24.04-50.9
			c2.35-8.32,5.79-23.22,5.79-36.34C396.05,970.05,357.17,939.3,337.58,948.16z"/>
		<path class="st3" d="M313.94,1027.81c15.12,10.95,39.4,43.81,68.39,63.11c12.9,8.59,59.21,6.28,55.73,24
			c0.18,6.14-12.05,5.76-22.53,5.61c-13,0.21-23.58,0.36-40.89,0.12c-42.41-0.58-48.99,0.12-78.05-24.87L313.94,1027.81z"/>
		<path class="st1" d="M382.33,1090.92c-1.04-0.69-2.04-1.44-3.06-2.17c-5.06,5.66-8.89,20.1-6.35,31.88c0.57,0,1.13,0.01,1.72,0.02
			c17.31,0.24,27.88,0.09,40.89-0.12c10.48,0.15,22.71,0.54,22.53-5.61C441.54,1097.2,395.23,1099.51,382.33,1090.92z"/>
		<path class="st4" d="M432.99,1118.3c-0.09-2.71-2.32-5.24-4.47-5.94"/>
		<path class="st4" d="M180.25,1117.59c0.44-2.67-1.65-6.45-3.37-7.92"/>
		<path class="st4" d="M174.67,1118.07c0.44-2.67-1.65-6.45-3.37-7.92"/>
		<path class="st4" d="M436.91,1115.33c-0.09-2.7-2.32-5.23-4.47-5.94"/>
		<path class="st4" d="M457.52,1098.9c-0.09-2.71-2.33-5.24-4.47-5.94"/>
		<path class="st4" d="M460.88,1095.42c-0.09-2.7-2.33-5.23-4.47-5.94"/>
		<path class="st5" d="M393.52,1117.77c-15.09,0.73-30.08-3.17-45.15-4.28c-6.54-0.49-16.83-1.77-22.54-6.49
			c-7-5.78-12.33-14.67-17.86-28.88c-1.7,8.32,2.13,22.11,4.69,27.9c1.54,3.49-2.35,4.8-7.19,5.24c-6.15,0.55-18.23,0.97-30.04-1.23
			c-53.93-10.01-108.7-40.25-118.47-52.87c-10.56-13.64-11.2-32.39-12.87-49.31c-1.25-12.73-3.42-27.76-12.33-37.13
			c-1.35-1.43-2.78-2.74-4.25-4.02c8.67,26.3,14.44,57.73,5.65,84.65c1.15,0.82,2.3,1.63,3.46,2.47
			c12.37,10.77,26.53,21.15,41.78,30.41c-0.06-0.03-0.14-0.06-0.2-0.08c1.65,1,3.28,1.95,4.89,2.89c0.34,0.19,0.68,0.4,1.03,0.59
			c1.75,1.01,3.47,1.98,5.15,2.89c0.58,0.32,1.14,0.65,1.72,0.97c0,0,0-0.01,0-0.03c13.1,7.08,22.93,11.19,22.93,11.18
			c31.41,13.55,65.12,20.94,96.79,16.92c5.22-0.66,10.13-2.04,14.78-3.94c11.9,4.78,24.44,4.7,49.12,5.03
			c17.31,0.24,27.88,0.09,40.89-0.12c9.44,0.14,20.29,0.44,22.21-3.99C422.58,1117.87,409.13,1117.01,393.52,1117.77z"/>
		<path class="st3" d="M90.95,727.82c-11.43-0.57-32.89,14.25-40.04,21.34c-10.11,10.02-16.28,17.49-22.13,31.98
			c-2.7,6.69-4.25,12.96-2.98,16.77c0.76-0.99,6.55-5.88,7.16-6.84c-3.74,9.78-3.8,32.8,2.61,43.15c0.19-0.74,3.82-5.31,3.83-5.39
			c0.02,12.19,8.8,19.06,17.38,31.65c6.09,8.96,25.2,25.84,28.14,28.96l11.76-5.69c-11.17-16.69-21.42-41.06-23.9-61.03
			c-2.25-18.04-2.14-37.98,1.98-55.75c2.51-10.86,9.02-27.33,17.04-38.41"/>
		<g>
			<path class="st6" d="M376.21,1017.44c-7.14,2.14-14.69,2.7-22.14,2.8c-10.99,0.17-22.67-2.52-31.83-9.55
				c-8.19-6.28-16.08-16.82-18.79-27.25c-1.67-6.43-2.91-13.27-3.57-19.92c-0.38-3.83,4.69-2.71,8.19-3.13
				c0.02-0.01,5.1-1.41,5.48,2.4c1.72,17.23,6.16,24.76,15.71,33.55c5.14,4.72,13.43,8.61,20.52,9.69
				c15.58,2.37,41.43-7.86,46.69-12.33c2.78-2.36,2.71,4.01,2.28,7.83c-0.44,3.83-2.05,5.74-4.94,7.67
				C388.38,1012.83,382.41,1015.57,376.21,1017.44z"/>
		</g>
		<g>
			<g>
				<path class="st3" d="M338.96,945.34c-22.02-6.22-47.2-59.07-43.2-68.46c2.63-3.43,20.67,9.98,29.59,16.18
					c6.99,4.87,14.97,8.54,22.85,11.45c5.18,3.86,3.84,15.18,1.73,23.25C347.58,936.8,342.98,946.49,338.96,945.34z"/>
				<path class="st7" d="M344.59,928.54c-1.64,3.38-3.78,5.88-6.17,6.23c-6.46-2.5-13.49-8.86-19.77-16.34
					c-0.21-0.24-0.41-0.48-0.6-0.72c-10.73-13.03-19.06-29.25-18.12-34.94c0-0.07,0.02-0.15,0.05-0.22
					c0.02-0.24,0.09-0.44,0.18-0.64c2.2-2.69,16.82,8.87,24.55,13.91c6.07,3.93,14.11,7.37,20.16,11.39
					C349.09,910,348.06,921.31,344.59,928.54z"/>
				<path class="st8" d="M344.59,928.54c-1.64,3.38-3.78,5.88-6.17,6.23c-6.46-2.5-13.49-8.86-19.77-16.34
					c-0.21-0.24-0.41-0.48-0.6-0.72c-10.61-13.44-18.94-29.42-18.12-34.94c0-0.07,0.02-0.15,0.05-0.22
					c0.02-0.24,0.09-0.44,0.18-0.64c0.37,0,7.23,13.93,12.81,21c3.72,4.79,9.65,10.79,14.2,14.73
					C331.05,921.03,339.55,925.75,344.59,928.54z"/>
			</g>
			<path class="st3" d="M311.97,976.48c0.31,0.87,0.61,1.75,0.97,2.6c6.76,15.44,15.28,24.34,31.45,28
				c10.53,2.39,23.09-1.45,31.95-4.77c13.57-5.09,26.79-13.34,40.53-22.35c20.35-13.36,38.09-42.81,35.24-58.18
				c-6.04-32.47-28.05-18.31-51.54-13.44c-27.49-33.75-95.9-5.5-95.81,35.33C304.78,950.91,308.61,967.3,311.97,976.48z"/>
			<path class="st1" d="M453,920.95c-6.87-34.47-28.94-17.48-52.43-12.62c-7.59-9.32-18.31-13.89-29.84-14.8
				c0.08,0.08,0.16,0.15,0.25,0.23c19.93,2.77,33.91,33.77,33.39,54.52c-0.34,13.72-5.62,26.85-14.62,37.26
				c-5.48,6.33-11.81,13.7-19,18.71c1.89-0.3,3.71-1.26,5.6-1.95c14.04-5.16,27.08-9.9,40.39-19.61
				C452.41,956.65,456.32,937.61,453,920.95z"/>
			<g>
				<path class="st9" d="M385.33,920.92c-5.98-6.53-15.38,0.31-9.67,8.92"/>
			</g>
			<g>
				<path class="st10" d="M431.78,934.85c9.53,3.8,26.35-5.79,17.49-22.86"/>
			</g>
			<g>
				<path class="st11" d="M445.28,900.1c3.14,5.37,5.29,8.98,4.65,11.78c-0.55,2.42-7.02,2.68-9.79,2.29
					c-6.16-0.87-20.13-10.52-13.77-14.02C432.59,896.75,440.89,892.57,445.28,900.1z"/>
				<path class="st12" d="M438.18,897.53c0.54-0.11,3.2-0.51,3.2,0.85c0,1.15-2.35,1.84-3.06,2.07c-1.24,0.4-2.49,0.72-3.8,1.06
					c-0.86,0.22-2.78,0.03-1.8-1.3c0.57-0.76,1.47-1.16,2.31-1.58C436.03,898.14,437.07,897.76,438.18,897.53z"/>
			</g>
			<g>
				<path class="st3" d="M312.39,970.42c-22.7-1.61-56.5-48.34-54.17-58.39c1.99-3.91,22.01,5.56,31.83,9.83
					c7.7,3.35,16.17,5.32,24.41,6.56c5.75,2.74,6.38,14.13,5.69,22.48C319.38,960.24,316.53,970.71,312.39,970.42z"/>
				<path class="st7" d="M315.03,952.75c-1.03,3.65-2.7,6.55-4.99,7.39c-6.77-1.14-14.78-5.95-22.22-12
					c-0.24-0.19-0.49-0.39-0.71-0.58c-12.77-10.6-23.73-24.83-23.78-30.61c-0.01-0.07,0-0.15,0-0.22c-0.02-0.24,0.01-0.46,0.07-0.66
					c1.72-3.09,18.05,5.26,26.5,8.62c6.63,2.62,15.13,4.34,21.76,7.06C316.27,933.62,317.2,944.94,315.03,952.75z"/>
				<path class="st8" d="M315.03,952.75c-1.03,3.65-2.7,6.55-4.99,7.39c-6.77-1.14-14.78-5.95-22.22-12
					c-0.24-0.19-0.49-0.39-0.71-0.58c-12.72-11.02-23.65-25.01-23.78-30.61c-0.01-0.07,0-0.15,0-0.22
					c-0.02-0.24,0.01-0.46,0.07-0.66c0.36-0.08,9.5,12.2,16.19,18.01c4.48,3.94,11.33,8.63,16.47,11.56
					C300.44,948.15,309.61,951.05,315.03,952.75z"/>
			</g>
		</g>
		<path class="st13" d="M284.55,977.62c-3.51,6.43-1.46,7.74,2.55,15.68c4.54,8.96-7.92,11.8-7.35,16.81
			c1.4,12.38,0.94,11.42-4.06,13.55c-17.5,7.48-50.87-4.4-69.74-0.63c-14.29,2.86-25.99-27.08-53.01-34.36
			c-6.39-1.72-0.08-31.47-22.71-38.09c-17.79-5.2-21.28-30.78-17.06-49.48c2.38-10.56,9.38-25.24,18.02-34.43
			c9.81,1.42,19.5,4.81,28.6,9.48c21.54,11.01,96.51,74.79,128.73,84.74C290.2,965,287.59,972.03,284.55,977.62z"/>
		<g>
			<path class="st3" d="M129.09,971.36c24.92,38.81,6.97,108.65-1.72,124c-3.26,5.75,11.45,6.63,10.44,23.56
				c-11.08,1.04-16.97,0.65-27.26,0c-10.96-6.79-65.97-123.9-61.63-166.27L129.09,971.36z"/>
			<path class="st1" d="M127.36,1095.36c3.15-5.57,6.91-15.49,9.24-27.69c-5.11-8.47-20.55-9.63-29.46-8.64
				c-9.73,1.08-18.95,3.95-23.26,12.88c11.49,25.09,22.4,44.38,26.66,47.01c10.3,0.65,16.19,1.04,27.26,0
				C138.81,1101.99,124.11,1101.11,127.36,1095.36z"/>
			<path class="st4" d="M135.63,1117.59c0.44-2.67-1.65-6.45-3.37-7.92"/>
			<path class="st4" d="M129.01,1118.07c0.45-2.67-1.21-5.76-2.93-7.23"/>
		</g>
	</g>
	<g>
		<g>
			<path class="st14" d="M523.68,838.85c0,0-0.56,0.33-1.58,0.94c-1.34,0.79-3.09,1.81-5.49,3.07c-2.41,1.25-5.44,2.73-9.29,4.16
				c-3.86,1.41-8.58,2.82-14.37,3.3c-5.73,0.5-12.72-0.22-19.3-3.09c-3.28-1.41-6.39-3.27-9.19-5.44
				c-18.19-14.11-24.09-42.49-23.89-65.55c0.11-13.4-4.9-26.55-15.65-33.61c-6.13-4.04-19.78-6.7-15.9-17.93
				c4.15-11.99,19.6-3.74,26.39,0.28c3.43,2.04,7.37,4.26,10.34,7c13.55,12.5,14.56,19.34,21.71,40.88
				c3.58,10.98,4.21,23.41,9.58,33.73c6.76,13.01,18.73,1.08,26.88-4.13c8.81-5.63,20.08-4.03,26.27,5.36
				c6.25,9.49,4.29,22.72-4.38,29.58c-0.65,0.52-1.33,0.98-2.02,1.39L523.68,838.85z"/>
			<path class="st15" d="M411.59,724.46c1.87-0.29,5.49,0.55,6.27,2.22"/>
			<path class="st15" d="M414.03,720.22c1.87-0.29,5.49,0.55,6.26,2.22"/>
		</g>
		<path class="st14" d="M782.38,1035.44c-0.63-7.81-2.58-15.92-6.01-23.18c-0.84-1.82-1.79-3.57-2.79-5.26
			c-0.48-0.86-1.03-1.66-1.55-2.48c-0.54-0.84-1.21-1.77-1.82-2.63l-1.57-2.02l-2.12-2.53c-1.44-1.54-2.9-2.96-4.38-4.19
			c-5.92-4.9-11.8-7.77-17.44-10c-5.69-2.19-11.03-3.63-16.47-4.56c-2.53-0.44-5.19-0.67-7.61-0.95c-2.37-0.12-4.73-0.36-6.87-0.37
			c-4.34-0.14-8.22-0.12-11.59-0.04c-3.32,0.08-6.22,0.15-8.6,0.21c-2.23,0.06-4.01,0.1-5.33,0.08c-1.28,0-1.97,0-1.97,0h-0.04
			c-4.53-0.02-8.47,3.63-9.11,8.67c-0.68,5.49,2.82,10.55,7.85,11.3c0,0,0.67,0.1,1.94,0.29c1.23,0.2,3.18,0.46,5.71,0.76
			c2.38,0.29,5.27,0.64,8.59,1.05c3.25,0.42,6.85,0.88,10.66,1.51c1.94,0.27,3.8,0.73,5.8,1.09c1.92,0.5,3.79,0.88,5.83,1.54
			c3.72,1.21,7.87,2.85,11.64,4.91c3.78,2.03,7.36,4.58,9.72,7.17c0.6,0.65,1.06,1.27,1.5,1.86c0.16,0.3,0.33,0.58,0.51,0.85
			c0.17,0.25-0.22-0.31-0.16-0.23l0.04,0.06l0.06,0.12l0.14,0.24l0.27,0.47c0.17,0.3,0.4,0.67,0.51,0.9l0.99,2.41
			c0.34,0.9,0.65,1.8,0.89,2.71c2.02,7.21,1.12,15.29-1.58,23.11c-0.71,2.07-1.54,4.1-2.44,6.05c-2.18,3.29-4.72,6.63-5.98,8.44
			c-2.88,4.16-7.53,6.45-11.43,9.6c0.72,0.18,1.66,0.98,2.61,1.11c-4.88,2.65-11.08,4.12-16.41,5.81c1.3,0.42,3.91,2.25,5.13,2.7
			c-5.76,2.86-9.24,9.83-15.24,12.76c1.55,0.55,5.2-0.24,6.93-0.14c-4.75,5.95-5.82,7.78-7.11,11.59c-1.43,4.26-2.05,13.5-1.05,18.2
			c0.9-1.53,3.9-6.25,5.36-6.92c2.39,7.35-1.13,13.08-4.63,20.3c5.57-1.93,8.19-4.7,12.78-7.67c1.03,1.58,0.91,5.77,1.38,7.67
			c2.03-1.89,7.07-6.99,8.14-9.28c1.47,1.33-0.24,5.14,1.77,7.57c2.75-2.58,9.74-6.94,12.85-9.61c0.22,1.42-0.35,5.18,0,6.54
			c9.17-4.7,13.87-12.79,18.94-22.02c1.11,0.95,3.37,3.31,4.89,3.65c0.93-7.45,5.54-15.72,7-22.89c0.51,1.32,1.32,5.95,2.25,7
			c3.94-7.53,3.56-21.2,4.79-29.83c1.04-3.56,1.96-7.29,2.67-11.22C782.44,1050.82,783.01,1043.27,782.38,1035.44z"/>
		<path class="st16" d="M772.35,1070.67c-2.94,1.96-7.94-0.55-8.82-0.65c-4.67-0.55-4.85-4.63-8.56-7.77
			c-4.04-3.42-10.72,1.81-15.01,0c-0.13,0.18-0.27,0.38-0.39,0.54c-2.88,4.16-7.53,6.45-11.43,9.6c0.72,0.18,1.66,0.98,2.61,1.11
			c-4.88,2.65-11.08,4.12-16.41,5.81c1.3,0.42,3.91,2.25,5.13,2.7c-5.76,2.86-9.24,9.83-15.24,12.76c1.55,0.55,5.2-0.24,6.93-0.14
			c-4.75,5.95-5.82,7.78-7.11,11.59c-1.43,4.26-2.05,13.5-1.05,18.2c0.9-1.53,3.9-6.25,5.36-6.92c2.39,7.35-1.13,13.08-4.63,20.3
			c5.57-1.93,8.19-4.7,12.78-7.67c1.03,1.58,0.91,5.77,1.38,7.67c2.03-1.89,7.07-6.99,8.14-9.28c1.47,1.33-0.24,5.14,1.77,7.57
			c2.75-2.58,9.74-6.94,12.85-9.61c0.22,1.42-0.35,5.18,0,6.54c9.17-4.7,13.87-12.79,18.94-22.02c1.11,0.95,3.37,3.31,4.89,3.65
			c0.93-7.45,5.54-15.72,7-22.89c0.51,1.32,1.32,5.95,2.25,7c3.94-7.53,3.56-21.2,4.79-29.83c0.14-0.48,0.26-0.99,0.39-1.48
			C776.45,1066.85,775.47,1068.6,772.35,1070.67z"/>
		<path class="st17" d="M559.44,987.5c-1.04,21.25,8.23,47.31,38.1,65.53c4.31,2.63,9.13,4.88,10.98,10.38
			c1.77,5.23,0.6,11.5-4.45,13.97c-3.72,1.82-25.1-0.8-24.54,7.17c0.41,5.79,12.91,5.13,23.13,5.09c5.67-0.03,13,0.56,16.56-2.22
			c4.89-3.82,7.21-14.89,10.38-20.18c4.87-8.1,7.39-16.8,17.4-23.81"/>
		<path class="st14" d="M695.39,1021.25c-3.15,8.41-9.27,18.35-10.98,27.47c-1.54,8.16,4.03,31.09,1.07,38.21
			c-2.23,5.38-11.42,4.42-17.59,4.2c-11.33-0.42-7.5-8.61-2.04-13.63c4.2-3.87-1.86-15.49-16.37-25.43
			c-10.47-7.18-27.17-2.92-43.92-15.43"/>
		<g>
			<g>
				<g>
					<path class="st14" d="M556.71,725.49c-10.46,1.29-19.96,6.25-26.38,9.31c-12.54,6-36,41.12-36.15,90.55
						c-0.16,58.75,22.04,111.68,53.39,157.8c31.31,41.52,49.91,55.38,82.71,59.78c18.7,3.68,50.23,0.19,62.95-18.13
						c10.8-15.54,7.89-38.85,4.24-54.93c-2.1-9.22-5.76-18.13-10.38-26.36c-10.92-19.48-69.22-84.73-80.34-114.51
						c-0.72-1.89-1.24-3.63-1.54-5.22c-4.1-21.31-5.52-43.29-4.77-55.7C601.68,747.74,573.44,723.42,556.71,725.49z"/>
				</g>
			</g>
		</g>
		<g>
			<g>
				<g>
					<path class="st18" d="M697.47,969.86c-2.1-9.22-5.76-18.13-10.38-26.36c-10.92-19.48-69.22-84.73-80.34-114.51
						c-0.72-1.89-1.24-3.63-1.54-5.22c-4.1-21.31-5.52-43.29-4.77-55.7c1.23-20.32-27-44.65-43.73-42.58
						c-10.46,1.29-19.96,6.25-26.38,9.31c-12.54,6-36,41.12-36.15,90.55c-0.08,29.89,4.23,54.36,13.99,81.1
						c11.1,5.22,33.95,9.15,48.85,4.24c10.34-3.41,19.16-10.69,25.14-20.58c3.14-5.19,5.82-11.78,10.17-15.97
						c21.61-20.85,50.68,16.21,60.52,35.05c7.3,13.98,11.7,30.92,10.77,47.12c-0.89,15.45-5.93,24.54-14.38,36.32
						c-9.13,12.72-16.55,24.95-31.65,29.05c-10.73,2.91-21.11,6-31.97,3.2c2.43,1.79,10.17,7.83,20.27,12.05
						c6.74,4.83,17.21,8.94,25.35,9.65c29.61,6.44,50.19-1.61,62.39-21.05c0.51-1.56,1.53-3.72,2.31-5.3
						C703.47,1004.94,700.79,984.43,697.47,969.86z"/>
				</g>
			</g>
		</g>
		<path class="st16" d="M500.34,785.22c-5.22,0.84-17.56,14.93-17,29.45c1.79,0.23,5.43-2.37,6.91-2.07
			c-2.61,4.69-10.28,10.19-8.41,16.63c1.27,1.54,5.42-1.01,6.55-1.51c-3.02,7.87-9.81,11.97-8.98,18.26c0.29,2,3.92,3.33,5,2.35
			c-0.98,6.8-2.19,13.54-1.42,20.66c2.17-1.35,3.59-0.21,5.73-2.64c-0.26,5.44,0.26,10.72,3.13,14.44
			c8.77-13.01,14.34,8.69,18.68-6.93c5.72,6.82,7.75,8.78,12.91,6.93c2.3-0.82,1.56-4.26,4.88-4.88c1.74-0.31,6.2,5.53,10.48,5.53
			c3.2,0,4.24-5.91,4.55-8.51c9.71,6.36,10.29,4.15,14.83-4.94c7.36,9.1,9.5-2.47,14.88-3.66c4.22-0.94,7.06,9.28,11.02,3.66
			c5.43-9.42,8.17,0.74,14.54-2.44c0.86-1.68,3.66-7.38,3.83-9.92c5.76,1.68,7.41-6.91,5.64-17.59c4.41,4.4,6.94-8.51,2.82-12.94
			c5.61-2.62,3.87-8.59-1.49-10.76c0.92-0.98,3.97-1.22,3.91-3.81c-0.27-2.47-5.39-6.9-8.35-8.92c3.73-7.76-5.39-10.49-9.1-14.18
			L500.34,785.22z"/>
		<path class="st18" d="M549.42,811.47c18.24,0.92,40.22-2.76,54.86-17.33c-2.21-2.71-6.24-4.56-8.41-6.73l-95.52-2.2
			c-2.33,0.37-6.09,3.41-9.47,7.93C504.24,807.14,530.21,810.5,549.42,811.47z"/>
		<g>
			<g>
				<path class="st19" d="M519.22,704.83c1.47-13.08,9.58-40.21,13.34-41.17c3.9,0.03,18.46,25.71,21.3,37.05
					c-6.33,1.11-10.08,0.93-16.67,1.67L519.22,704.83z"/>
			</g>
			<path class="st14" d="M609.82,760.58c-1.3,9.61-3.07,22.7-8.68,29.67c-13.09,16.29-37.97,18.56-63.94,14.93
				c-31.45-4.4-60.88-7.23-54.44-50.26c2.54-5.63,5.59-10,10.13-12.25c12.86-40.71,35.01-54.94,68.7-46.95
				C595.29,703.71,614.62,724.9,609.82,760.58z"/>
			<path class="st16" d="M553.93,784.75c1.54-5.58,0.69-16.35-2.28-21c-9.36-14.65-35.41-6.76-35.84-7.64
				c-3.58-7.18-15.25-12.72-22.92-13.43c-4.69,1.8-8.72,7.17-10.13,12.25c-10.53,40.58,22.49,47.93,54.44,50.26
				C542.39,805.57,551.28,794.39,553.93,784.75z"/>
			<g>
				<path class="st20" d="M497.7,765.23c-1.88,11.1,14.02,17.08,17.11-0.87"/>
				<path class="st20" d="M529.08,775.78c-2.39,8.74-19.16,6.34-14.27-11.42"/>
			</g>
			<g>
				<path class="st21" d="M523.71,757.81c0.27,3.52-5.52,6.21-7.04,6.84c-2.15,0.9-3.35,0.92-5.08-1.08
					c-1.46-1.68-4.5-7.9-2.76-10.24C511.63,749.49,523.49,755.02,523.71,757.81z"/>
				<path class="st12" d="M517.13,754.32c0.47,0.19,2.63,1.21,1.97,2.01c-0.57,0.67-2.66-0.02-3.29-0.23
					c-1.13-0.36-2.22-0.75-3.37-1.18c-0.74-0.27-2.08-1.3-0.7-1.62c0.78-0.18,1.66,0,2.5,0.16
					C515.23,753.65,516.19,753.93,517.13,754.32z"/>
			</g>
			<g>
				<path class="st22" d="M549.98,750.14c-2.4-8.99-13.42-7.46-15.85-2.31"/>
			</g>
			<g>
				<path class="st22" d="M497.7,734.98c5.23-7.41,14.99-1.61,15.54,4.15"/>
			</g>
			<g>
				<path class="st14" d="M598.52,737.25c4.6-12.98,11.51-46.84,8.45-49.79c-3.65-2.09-33.15,17.67-40.98,26.67
					c0.29-0.34,4.05,8.63,11.9,14.46C584.64,733.59,593.47,737.25,598.52,737.25z"/>
				<path class="st21" d="M605.98,707.14c-0.09,0.61-0.21,1.26-0.31,1.89c-1.66,9.35-4.47,20.55-6.64,26.79
					c-2.59-0.31-4.81-0.76-6.89-1.42c-2.56-0.81-4.92-1.88-7.44-3.41c-2.58-1.57-6.27-4.08-8.14-6.61c-0.85-1.15-4.97-5.52-3.58-7.6
					c6.31-9.36,30.12-24.95,33.42-23.26c0.02,0,0.04,0.02,0.04,0.02c0.04,0.05,0.11,0.12,0.16,0.2
					C607.53,695.18,607.1,700.53,605.98,707.14z"/>
				<path class="st8" d="M605.98,707.14c-0.09,0.61-0.21,1.26-0.31,1.89c-1.66,9.35-4.47,20.55-6.64,26.79
					c-2.59-0.31-4.81-0.76-6.89-1.42l-0.09-0.1c3.16-3.34,6.55-10.83,8.06-15c3.28-9.06,4.24-15.81,6.28-25.33
					c0.04-0.15,0.03-0.3,0.03-0.45c0.02,0,0.04,0.02,0.04,0.02c0.04,0.05,0.11,0.12,0.16,0.2
					C607.44,695.23,607.03,700.49,605.98,707.14z"/>
			</g>
		</g>
		<g>
			<path class="st14" d="M586.47,851.34c0,0-0.04,0.62-0.12,1.78c-0.09,1.5-0.23,3.45-0.52,6.06c-0.31,2.62-0.74,5.86-1.62,9.77
				c-0.89,3.9-2.2,8.52-4.68,13.58c-2.44,5.03-6.33,10.51-11.53,14.6c-2.57,2.05-5.39,3.74-8.26,5.02
				c-13.71,6.18-28.15-0.01-41.16-5.33c-4.2-1.71-8.29-3.42-12.22-4.95c-3.14-1.23-10.8-2.9-12.21-4.69
				c-7.07,4.09-10.14,13.52-13.72,20.79c-1.75,3.55-2.71,5.69-2.71,5.69c-1.92,4.3-6.67,6.09-10.61,3.98
				c-3.53-1.89-5.21-6.26-4.13-10.25l0.03-0.12c0,0,0.64-2.39,1.96-6.63c1.35-4.22,3.29-10.31,6.83-17.64
				c9.51-19.73,22.84-21.35,41.33-16.84c4.44,1.11,8.81,2.3,13.09,3.44c6.56,1.73,13.05,4.19,19.88,4.01
				c-0.37,0-0.75,0.06-1.13,0.07c8.72-3.75,6.23-15.56,6.51-23.56c0.35-10.08,6.94-18.7,16.49-19.3c9.66-0.61,17.94,7.45,18.5,18.01
				c0.04,0.8,0.04,1.59,0,2.37V851.34z"/>
			<path class="st15" d="M465.72,914.58c-0.35-2.04,0.25-6.03,1.74-6.95"/>
			<path class="st15" d="M469.98,916.79c-0.35-2.04,0.26-6.03,1.74-6.95"/>
		</g>
		<path class="st23" d="M668.07,1089.81c-0.72-2.23-0.67-6.89,0.89-8.22"/>
		<path class="st23" d="M677.43,1089.75c0.87-2.17,1.14-6.82-0.31-8.27"/>
	</g>
</g>
</svg>
