<svg width="358" height="358" viewBox="0 0 358 358" fill="none" xmlns="http://www.w3.org/2000/svg">
<circle cx="179" cy="179" r="179" fill="#FFE9C2"/>
<path d="M154.496 218.334C159.676 223.085 168.722 236.687 179.824 244.075C184.762 247.36 202.49 246.479 201.154 253.263C201.227 255.617 196.541 255.468 192.533 255.407C187.557 255.491 183.506 255.548 176.88 255.456C160.648 255.234 158.129 255.502 147.001 245.936L154.496 218.334Z" fill="#E07E42"/>
<path d="M179.824 244.074C179.425 243.81 179.043 243.523 178.652 243.244C176.715 245.414 175.249 250.942 176.221 255.448C176.443 255.448 176.654 255.452 176.88 255.456C183.51 255.547 187.557 255.49 192.533 255.406C196.541 255.467 201.227 255.613 201.154 253.262C202.49 246.478 184.762 247.359 179.824 244.074Z" fill="#FFE0AD"/>
<path d="M89.2025 214.047C98.7385 228.908 93.6317 247.383 90.305 253.259C89.0571 255.46 94.6845 255.797 94.2978 262.278C90.0562 262.676 87.8014 262.527 83.8622 262.278C79.6627 259.679 58.6038 214.847 60.2653 198.627L89.2025 214.047Z" fill="#F2D19E"/>
<path d="M175.911 213.32C175.911 218.338 174.414 223.078 173.515 226.267C171.757 232.503 162.822 260.035 143.253 262.527C119.997 265.479 93.8462 252.375 76.6079 237.361C58.6307 224.567 44.9679 215.908 43.0194 198.627C42.9313 189.952 46.6102 178.9 55.415 171.248C61.2951 166.133 67.9791 164.774 74.5253 165.716C78.2808 166.26 81.9903 167.558 85.474 169.345C93.7199 173.56 122.42 197.976 134.754 201.785C135.535 202.034 136.251 202.191 136.898 202.256C145.538 203.156 147.682 199.55 153.531 196.904C161.031 193.524 175.911 205.296 175.911 213.32Z" fill="#F08547"/>
<path d="M153.527 196.912C148.624 199.124 140.921 201.578 135.213 201.927C135.389 212.477 141.296 223.751 148.876 231.507C151.866 234.562 155.25 238.681 158.661 241.847C159.882 242.984 162.642 245.664 164.491 246.713C169.112 238.96 172.841 230.244 173.694 227.227C174.594 224.042 175.911 218.338 175.911 213.315C175.911 205.292 161.027 193.52 153.527 196.912Z" fill="#FFE0AD"/>
<path d="M144.478 227.404C150.266 231.596 159.561 244.175 170.659 251.563C175.597 254.852 193.326 253.968 191.993 260.751C192.062 263.102 187.38 262.956 183.368 262.899C178.392 262.979 174.342 263.037 167.715 262.945C151.48 262.723 148.961 262.991 137.836 253.424L144.478 227.404Z" fill="#F08547"/>
<path d="M170.659 251.563C170.261 251.299 169.878 251.011 169.487 250.732C167.55 252.899 166.084 258.427 167.056 262.936C167.275 262.936 167.489 262.94 167.715 262.944C174.341 263.036 178.388 262.978 183.368 262.898C187.38 262.955 192.062 263.105 191.993 260.75C193.325 253.967 175.597 254.851 170.659 251.563Z" fill="#FFE0AD"/>
<path d="M190.052 262.044C190.018 261.007 189.164 260.038 188.341 259.771" stroke="#E1BE91" stroke-width="5.8357" stroke-miterlimit="10" stroke-linecap="round" stroke-linejoin="round"/>
<path d="M93.2989 261.773C93.4673 260.751 92.6672 259.304 92.0088 258.741" stroke="#E1BE91" stroke-width="5.8357" stroke-miterlimit="10" stroke-linecap="round" stroke-linejoin="round"/>
<path d="M91.1627 261.957C91.3311 260.935 90.531 259.488 89.8726 258.925" stroke="#E1BE91" stroke-width="5.8357" stroke-miterlimit="10" stroke-linecap="round" stroke-linejoin="round"/>
<path d="M191.553 260.908C191.519 259.874 190.665 258.906 189.842 258.634" stroke="#E1BE91" stroke-width="5.8357" stroke-miterlimit="10" stroke-linecap="round" stroke-linejoin="round"/>
<path d="M199.443 254.618C199.408 253.581 198.551 252.612 197.732 252.344" stroke="#E1BE91" stroke-width="5.8357" stroke-miterlimit="10" stroke-linecap="round" stroke-linejoin="round"/>
<path d="M200.729 253.286C200.695 252.253 199.837 251.284 199.018 251.012" stroke="#E1BE91" stroke-width="5.8357" stroke-miterlimit="10" stroke-linecap="round" stroke-linejoin="round"/>
<path d="M174.942 261.841C169.165 262.121 163.427 260.628 157.658 260.203C155.154 260.015 151.215 259.525 149.029 257.718C146.35 255.506 144.309 252.102 142.192 246.662C141.541 249.847 143.008 255.127 143.988 257.343C144.577 258.679 143.088 259.181 141.235 259.349C138.881 259.56 134.256 259.72 129.735 258.878C109.09 255.046 88.1228 243.47 84.3827 238.639C80.3401 233.417 80.0951 226.239 79.4558 219.762C78.9773 214.888 78.1465 209.135 74.7356 205.548C74.2188 205 73.6714 204.499 73.1086 204.009C76.4277 214.077 78.6365 226.109 75.2716 236.414C75.7118 236.728 76.152 237.038 76.5961 237.36C81.3316 241.483 86.7523 245.457 92.5903 249.001C92.5673 248.99 92.5367 248.979 92.5137 248.971C93.1454 249.354 93.7694 249.717 94.3857 250.077C94.5159 250.15 94.646 250.23 94.78 250.303C95.4499 250.69 96.1084 251.061 96.7515 251.409C96.9736 251.532 97.1879 251.658 97.41 251.781C97.41 251.781 97.41 251.777 97.41 251.769C102.425 254.48 106.188 256.053 106.188 256.049C118.212 261.236 131.117 264.065 143.241 262.526C145.239 262.274 147.119 261.745 148.899 261.018C153.455 262.848 158.255 262.817 167.703 262.944C174.33 263.036 178.376 262.978 183.357 262.898C186.97 262.951 191.124 263.066 191.859 261.37C186.067 261.879 180.918 261.55 174.942 261.841Z" fill="#F0EBF0"/>
<path d="M59.113 112.562C54.7374 112.344 46.5221 118.017 43.7849 120.731C39.9146 124.567 37.5526 127.427 35.3132 132.974C34.2795 135.535 33.6862 137.935 34.1724 139.394C34.4633 139.015 36.6798 137.143 36.9133 136.775C35.4816 140.519 35.4586 149.332 37.9125 153.294C37.9852 153.01 39.3749 151.261 39.3787 151.23C39.3864 155.897 42.7475 158.527 46.0321 163.346C48.3634 166.777 55.6791 173.239 56.8046 174.433L61.3065 172.255C57.0305 165.865 53.1066 156.536 52.1572 148.891C51.2958 141.985 51.3379 134.352 52.9152 127.549C53.876 123.392 56.3682 117.087 59.4384 112.845" fill="#F08547"/>
<path d="M168.316 223.433C165.583 224.252 162.692 224.467 159.84 224.505C155.633 224.57 151.162 223.54 147.655 220.849C144.52 218.445 141.499 214.41 140.462 210.417C139.823 207.956 139.348 205.337 139.095 202.792C138.95 201.325 140.891 201.754 142.231 201.593C142.238 201.59 144.183 201.054 144.328 202.512C144.987 209.108 146.687 211.991 150.343 215.356C152.31 217.163 155.484 218.652 158.198 219.065C164.162 219.973 174.058 216.056 176.072 214.345C177.136 213.442 177.109 215.88 176.945 217.343C176.776 218.809 176.16 219.54 175.054 220.279C172.975 221.668 170.689 222.717 168.316 223.433Z" fill="#6BA9BA"/>
<path d="M154.056 195.832C145.626 193.451 135.987 173.219 137.518 169.624C138.525 168.311 145.431 173.445 148.845 175.818C151.521 177.682 154.576 179.087 157.593 180.201C159.576 181.679 159.063 186.013 158.255 189.102C157.356 192.563 155.595 196.272 154.056 195.832Z" fill="#F08547"/>
<path d="M156.211 189.401C155.583 190.695 154.764 191.652 153.849 191.786C151.376 190.829 148.684 188.394 146.28 185.53C146.2 185.438 146.123 185.347 146.051 185.255C141.943 180.267 138.754 174.057 139.114 171.879C139.114 171.852 139.122 171.822 139.133 171.795C139.141 171.703 139.168 171.626 139.202 171.55C140.044 170.52 145.641 174.945 148.6 176.875C150.924 178.379 154.002 179.696 156.318 181.235C157.933 182.303 157.539 186.633 156.211 189.401Z" fill="#F4D3A1"/>
<path d="M156.211 189.401C155.583 190.695 154.764 191.652 153.849 191.786C151.376 190.829 148.684 188.394 146.28 185.53C146.2 185.438 146.123 185.347 146.051 185.255C141.989 180.11 138.8 173.992 139.114 171.879C139.114 171.852 139.122 171.822 139.133 171.795C139.141 171.703 139.167 171.626 139.202 171.55C139.344 171.55 141.97 176.882 144.106 179.589C145.53 181.423 147.8 183.72 149.542 185.228C151.027 186.526 154.281 188.333 156.211 189.401Z" fill="#F0E8EB"/>
<path d="M143.723 207.753C143.842 208.086 143.957 208.423 144.095 208.748C146.682 214.659 149.944 218.066 156.134 219.467C160.165 220.382 164.974 218.912 168.365 217.641C173.56 215.693 178.621 212.534 183.881 209.085C191.671 203.971 198.463 192.697 197.371 186.813C195.059 174.383 186.633 179.803 177.641 181.668C167.117 168.748 140.929 179.562 140.963 195.193C140.971 197.964 142.437 204.239 143.723 207.753Z" fill="#F08547"/>
<path d="M197.712 186.495C195.082 173.299 186.633 179.803 177.641 181.664C174.735 178.096 170.632 176.346 166.218 175.998C166.248 176.029 166.279 176.055 166.313 176.086C173.943 177.146 179.295 189.014 179.096 196.957C178.966 202.21 176.944 207.236 173.499 211.221C171.401 213.644 168.978 216.466 166.225 218.384C166.949 218.269 167.646 217.901 168.369 217.637C173.744 215.662 178.736 213.847 183.831 210.13C197.486 200.162 198.983 192.873 197.712 186.495Z" fill="#FFE0AD"/>
<path d="M171.807 186.484C169.518 183.984 165.919 186.602 168.105 189.899" stroke="#524643" stroke-width="10.0606" stroke-miterlimit="10" stroke-linecap="round" stroke-linejoin="round"/>
<path d="M189.589 191.816C193.237 193.271 199.676 189.6 196.284 183.065" stroke="#524643" stroke-width="5.7809" stroke-miterlimit="10" stroke-linecap="round" stroke-linejoin="round"/>
<path d="M194.757 178.513C195.959 180.569 196.782 181.951 196.537 183.023C196.327 183.949 193.85 184.049 192.789 183.9C190.431 183.567 185.083 179.872 187.518 178.533C189.899 177.231 193.076 175.631 194.757 178.513Z" fill="#524643"/>
<path opacity="0.3" d="M192.039 177.53C192.246 177.488 193.264 177.335 193.264 177.855C193.264 178.295 192.365 178.56 192.093 178.648C191.618 178.801 191.14 178.923 190.638 179.053C190.309 179.138 189.574 179.065 189.949 178.556C190.167 178.265 190.512 178.112 190.833 177.951C191.216 177.763 191.614 177.618 192.039 177.53Z" fill="#C7C7C7"/>
<path d="M143.884 205.433C135.194 204.817 122.255 186.927 123.147 183.08C123.909 181.583 131.573 185.209 135.332 186.843C138.28 188.126 141.522 188.88 144.677 189.354C146.878 190.403 147.119 194.764 146.855 197.96C146.56 201.536 145.469 205.544 143.884 205.433Z" fill="#F08547"/>
<path d="M144.895 198.668C144.5 200.066 143.861 201.176 142.984 201.497C140.393 201.061 137.326 199.22 134.478 196.904C134.386 196.831 134.291 196.754 134.206 196.682C129.318 192.624 125.122 187.176 125.103 184.963C125.099 184.937 125.103 184.906 125.103 184.879C125.095 184.787 125.107 184.703 125.13 184.627C125.788 183.444 132.04 186.64 135.274 187.926C137.813 188.929 141.066 189.588 143.605 190.629C145.369 191.345 145.725 195.679 144.895 198.668Z" fill="#F4D3A1"/>
<path d="M144.895 198.668C144.5 200.066 143.861 201.176 142.984 201.497C140.393 201.061 137.326 199.22 134.478 196.904C134.386 196.831 134.291 196.754 134.206 196.682C129.337 192.463 125.153 187.107 125.103 184.963C125.099 184.937 125.103 184.906 125.103 184.879C125.095 184.787 125.107 184.703 125.13 184.627C125.268 184.596 128.767 189.297 131.328 191.521C133.043 193.029 135.665 194.825 137.633 195.947C139.309 196.907 142.82 198.018 144.895 198.668Z" fill="#F0E8EB"/>
<path d="M133.227 208.19C131.883 210.651 132.668 211.153 134.203 214.192C135.941 217.622 131.171 218.709 131.389 220.627C131.925 225.367 131.749 224.999 129.835 225.815C123.135 228.678 110.361 224.13 103.137 225.573C97.6665 226.668 93.1876 215.207 82.8438 212.42C80.3976 211.761 82.8132 200.372 74.15 197.838C67.3396 195.847 66.0036 186.055 67.6191 178.896C68.5302 174.854 71.2099 169.234 74.5175 165.716C78.2729 166.259 81.9825 167.557 85.4661 169.345C93.712 173.56 122.412 197.976 134.746 201.785C135.389 203.358 134.39 206.05 133.227 208.19Z" fill="#83462B"/>
<path d="M73.7134 205.793C83.2533 220.651 76.3817 247.387 73.055 253.263C71.807 255.464 77.4382 255.801 77.0516 262.282C72.81 262.68 70.5552 262.531 66.616 262.282C62.4203 259.683 41.3614 214.851 43.0228 198.631L73.7134 205.793Z" fill="#F08547"/>
<path d="M73.0515 253.263C74.2573 251.131 75.6967 247.333 76.5887 242.663C74.6325 239.42 68.7218 238.976 65.3109 239.355C61.586 239.768 58.0564 240.867 56.4065 244.286C60.8051 253.891 64.9816 261.275 66.6124 262.282C70.5555 262.531 72.8103 262.68 77.0481 262.282C77.4347 255.801 71.8073 255.464 73.0515 253.263Z" fill="#FFE0AD"/>
<path d="M76.2173 261.773C76.3858 260.751 75.5857 259.304 74.9272 258.741" stroke="#E1BE91" stroke-width="5.8357" stroke-miterlimit="10" stroke-linecap="round" stroke-linejoin="round"/>
<path d="M73.6829 261.957C73.8552 260.935 73.2197 259.752 72.5613 259.189" stroke="#E1BE91" stroke-width="5.8357" stroke-miterlimit="10" stroke-linecap="round" stroke-linejoin="round"/>
<path d="M224.77 155.066C224.77 155.066 224.556 155.192 224.165 155.426C223.652 155.728 222.982 156.119 222.064 156.601C221.141 157.08 219.981 157.646 218.507 158.194C217.03 158.733 215.223 159.273 213.006 159.457C210.813 159.648 208.137 159.373 205.618 158.274C204.362 157.734 203.172 157.022 202.1 156.191C195.136 150.79 192.878 139.925 192.954 131.098C192.996 125.968 191.078 120.934 186.963 118.231C184.616 116.685 179.391 115.666 180.876 111.367C182.465 106.777 188.379 109.935 190.979 111.474C192.292 112.255 193.8 113.105 194.937 114.154C200.124 118.939 200.511 121.558 203.248 129.804C204.619 134.007 204.86 138.765 206.915 142.716C209.503 147.697 214.086 143.13 217.206 141.135C220.578 138.98 224.893 139.592 227.262 143.187C229.655 146.82 228.905 151.885 225.586 154.511C225.337 154.71 225.076 154.886 224.812 155.043L224.77 155.066Z" fill="#F4A061"/>
<path d="M181.86 111.276C182.576 111.165 183.962 111.486 184.26 112.125" stroke="#E08B58" stroke-width="4.459" stroke-miterlimit="10" stroke-linecap="round" stroke-linejoin="round"/>
<path d="M182.794 109.652C183.51 109.541 184.896 109.863 185.191 110.502" stroke="#E08B58" stroke-width="4.459" stroke-miterlimit="10" stroke-linecap="round" stroke-linejoin="round"/>
<path d="M323.805 230.324C323.564 227.335 322.818 224.23 321.505 221.451C321.183 220.754 320.819 220.084 320.436 219.437C320.253 219.108 320.042 218.802 319.843 218.488C319.636 218.166 319.38 217.81 319.146 217.481L318.545 216.708L317.734 215.739C317.183 215.15 316.624 214.606 316.057 214.135C313.791 212.259 311.54 211.161 309.381 210.307C307.202 209.469 305.158 208.917 303.076 208.561C302.107 208.393 301.089 208.305 300.162 208.198C299.255 208.152 298.352 208.06 297.532 208.056C295.871 208.002 294.386 208.01 293.096 208.041C291.825 208.071 290.714 208.098 289.803 208.121C288.95 208.144 288.268 208.159 287.763 208.152C287.273 208.152 287.009 208.152 287.009 208.152H286.993C285.259 208.144 283.751 209.541 283.506 211.471C283.246 213.572 284.586 215.509 286.511 215.796C286.511 215.796 286.768 215.835 287.254 215.908C287.725 215.984 288.471 216.084 289.44 216.198C290.351 216.309 291.457 216.443 292.728 216.6C293.972 216.761 295.35 216.937 296.809 217.178C297.552 217.282 298.264 217.458 299.029 217.596C299.764 217.787 300.48 217.933 301.261 218.185C302.685 218.648 304.274 219.276 305.717 220.065C307.164 220.842 308.535 221.818 309.438 222.81C309.668 223.059 309.844 223.296 310.012 223.522C310.074 223.637 310.139 223.744 310.208 223.847C310.273 223.943 310.123 223.728 310.146 223.759L310.162 223.782L310.185 223.828L310.238 223.92L310.342 224.1C310.407 224.215 310.495 224.356 310.537 224.444L310.916 225.367C311.046 225.711 311.165 226.056 311.256 226.404C312.03 229.165 311.685 232.258 310.652 235.251C310.38 236.044 310.062 236.821 309.718 237.567C308.883 238.827 307.911 240.106 307.428 240.798C306.326 242.391 304.546 243.268 303.053 244.473C303.328 244.542 303.688 244.849 304.052 244.898C302.184 245.913 299.81 246.476 297.77 247.123C298.267 247.283 299.267 247.984 299.734 248.156C297.529 249.251 296.196 251.919 293.899 253.041C294.493 253.251 295.89 252.949 296.552 252.987C294.734 255.265 294.324 255.966 293.831 257.424C293.283 259.055 293.046 262.592 293.429 264.392C293.773 263.806 294.922 261.999 295.481 261.742C296.395 264.556 295.048 266.75 293.708 269.514C295.84 268.775 296.843 267.714 298.6 266.577C298.995 267.182 298.949 268.786 299.129 269.514C299.906 268.79 301.835 266.838 302.245 265.961C302.808 266.47 302.153 267.929 302.923 268.859C303.975 267.871 306.651 266.202 307.842 265.18C307.926 265.724 307.708 267.163 307.842 267.684C311.352 265.885 313.151 262.787 315.092 259.254C315.517 259.618 316.382 260.521 316.964 260.651C317.32 257.799 319.085 254.633 319.644 251.889C319.839 252.394 320.149 254.166 320.505 254.568C322.014 251.686 321.868 246.453 322.339 243.149C322.737 241.786 323.089 240.358 323.361 238.854C323.828 236.212 324.046 233.322 323.805 230.324Z" fill="#F4A061"/>
<path d="M319.966 243.811C318.84 244.562 316.926 243.601 316.589 243.563C314.801 243.352 314.732 241.79 313.312 240.588C311.766 239.279 309.208 241.281 307.566 240.588C307.516 240.657 307.463 240.734 307.417 240.795C306.314 242.387 304.534 243.264 303.041 244.47C303.317 244.539 303.677 244.845 304.04 244.895C302.172 245.909 299.799 246.472 297.758 247.119C298.256 247.28 299.255 247.98 299.722 248.153C297.517 249.247 296.185 251.916 293.888 253.037C294.481 253.248 295.879 252.945 296.541 252.984C294.722 255.262 294.313 255.962 293.819 257.421C293.272 259.051 293.034 262.589 293.417 264.388C293.762 263.802 294.91 261.995 295.469 261.739C296.384 264.553 295.036 266.746 293.697 269.51C295.829 268.771 296.832 267.711 298.589 266.574C298.983 267.179 298.937 268.783 299.117 269.51C299.894 268.786 301.824 266.834 302.233 265.957C302.796 266.467 302.142 267.925 302.911 268.855C303.964 267.868 306.64 266.199 307.83 265.176C307.914 265.72 307.696 267.16 307.83 267.68C311.341 265.881 313.14 262.784 315.081 259.25C315.506 259.614 316.371 260.518 316.953 260.648C317.309 257.796 319.074 254.63 319.633 251.885C319.828 252.39 320.138 254.163 320.494 254.565C322.002 251.682 321.857 246.449 322.328 243.145C322.381 242.962 322.427 242.766 322.477 242.579C321.535 242.349 321.16 243.019 319.966 243.811Z" fill="#FBC883"/>
<path d="M238.46 211.971C238.061 220.106 241.61 230.082 253.045 237.057C254.695 238.064 256.54 238.925 257.248 241.031C257.926 243.033 257.478 245.433 255.545 246.379C254.121 247.076 245.936 246.073 246.15 249.124C246.307 251.34 251.093 251.088 255.005 251.072C257.176 251.061 259.982 251.287 261.344 250.222C263.216 248.76 264.105 244.522 265.318 242.497C267.182 239.396 268.147 236.066 271.979 233.382" fill="#E98C54"/>
<path d="M290.504 224.892C289.298 228.112 286.955 231.917 286.3 235.408C285.711 238.532 287.843 247.31 286.71 250.036C285.856 252.095 282.338 251.728 279.976 251.643C275.639 251.483 277.105 248.347 279.195 246.426C280.803 244.944 278.483 240.496 272.929 236.691C268.921 233.942 262.527 235.573 256.115 230.784" fill="#F4A061"/>
<path d="M237.415 111.67C233.41 112.164 229.773 114.063 227.316 115.234C222.515 117.531 213.534 130.976 213.477 149.899C213.416 172.389 221.914 192.652 233.916 210.307C245.902 226.202 253.022 231.508 265.579 233.192C272.737 234.601 284.807 233.265 289.677 226.252C293.811 220.303 292.697 211.379 291.3 205.224C290.496 201.694 289.095 198.283 287.326 195.133C283.146 187.675 260.828 162.696 256.571 151.296C256.295 150.572 256.096 149.906 255.981 149.298C254.412 141.14 253.868 132.725 254.155 127.975C254.63 120.188 243.819 110.878 237.415 111.67Z" fill="#F4A061"/>
<path d="M291.3 205.22C290.496 201.69 289.095 198.279 287.326 195.129C283.146 187.671 260.828 162.692 256.571 151.292C256.295 150.569 256.096 149.902 255.981 149.294C254.412 141.136 253.868 132.722 254.155 127.971C254.626 120.192 243.819 110.878 237.414 111.67C233.41 112.164 229.773 114.063 227.316 115.234C222.515 117.531 213.534 130.976 213.477 149.899C213.446 161.341 215.096 170.709 218.832 180.945C223.082 182.944 231.829 184.448 237.533 182.568C241.491 181.263 244.868 178.476 247.157 174.69C248.359 172.703 249.385 170.18 251.05 168.576C259.323 160.595 270.452 174.782 274.219 181.994C277.013 187.346 278.698 193.831 278.342 200.033C278.001 205.947 276.071 209.427 272.837 213.937C269.341 218.806 266.501 223.488 260.72 225.057C256.613 226.171 252.639 227.354 248.482 226.282C249.412 226.968 252.375 229.28 256.241 230.895C258.822 232.744 262.83 234.318 265.946 234.59C277.281 237.055 285.16 233.973 289.83 226.531C290.025 225.934 290.416 225.107 290.714 224.502C293.597 218.649 292.571 210.797 291.3 205.22Z" fill="#F2F0E7"/>
<path d="M215.835 134.536C213.837 134.857 209.113 140.251 209.327 145.81C210.013 145.898 211.406 144.902 211.973 145.017C210.973 146.813 208.037 148.918 208.753 151.383C209.239 151.973 210.828 150.997 211.261 150.805C210.104 153.818 207.505 155.388 207.823 157.796C207.934 158.561 209.324 159.071 209.737 158.695C209.362 161.299 208.899 163.879 209.193 166.604C210.024 166.088 210.568 166.524 211.387 165.594C211.287 167.676 211.486 169.698 212.585 171.122C215.942 166.141 218.075 174.448 219.736 168.469C221.926 171.08 222.703 171.83 224.678 171.122C225.559 170.808 225.276 169.491 226.547 169.253C227.213 169.135 228.92 171.37 230.558 171.37C231.783 171.37 232.182 169.108 232.3 168.113C236.017 170.547 236.239 169.701 237.977 166.222C240.795 169.705 241.614 165.276 243.674 164.82C245.289 164.461 246.377 168.373 247.892 166.222C249.971 162.615 251.02 166.505 253.459 165.287C253.788 164.644 254.86 162.462 254.925 161.49C257.13 162.133 257.762 158.845 257.084 154.756C258.772 156.441 259.741 151.498 258.163 149.802C260.311 148.799 259.645 146.514 257.593 145.683C257.945 145.308 259.113 145.216 259.09 144.225C258.987 143.279 257.027 141.583 255.893 140.81C257.321 137.839 253.83 136.794 252.41 135.382L215.835 134.536Z" fill="#FBC883"/>
<path d="M234.624 144.585C241.606 144.937 250.021 143.528 255.625 137.95C254.779 136.913 253.236 136.205 252.406 135.374L215.839 134.532C214.947 134.673 213.508 135.837 212.214 137.567C217.328 142.927 227.27 144.213 234.624 144.585Z" fill="#F2F0E7"/>
<path d="M223.063 103.761C223.625 98.7534 226.73 88.3675 228.17 88C229.663 88.0115 235.236 97.8423 236.324 102.183C233.9 102.608 232.465 102.539 229.942 102.823L223.063 103.761Z" fill="#E2955B"/>
<path d="M257.746 125.103C257.248 128.782 256.571 133.793 254.423 136.461C249.412 142.697 239.888 143.566 229.946 142.177C217.906 140.492 206.64 139.409 209.105 122.936C210.078 120.781 211.245 119.108 212.983 118.247C217.906 102.662 226.386 97.2145 239.283 100.273C252.184 103.332 259.584 111.444 257.746 125.103Z" fill="#F4A061"/>
<path d="M236.35 134.356C236.94 132.22 236.615 128.097 235.478 126.316C231.894 120.708 221.922 123.729 221.757 123.392C220.387 120.643 215.919 118.522 212.983 118.25C211.188 118.94 209.645 120.995 209.105 122.94C205.074 138.475 217.715 141.289 229.946 142.18C231.933 142.326 235.336 138.046 236.35 134.356Z" fill="#FBC883"/>
<path d="M214.824 126.884C214.105 131.133 220.191 133.422 221.374 126.551" stroke="#AE6D36" stroke-width="3.4172" stroke-miterlimit="10" stroke-linecap="round" stroke-linejoin="round"/>
<path d="M226.837 130.922C225.922 134.268 219.502 133.349 221.374 126.55" stroke="#AE6D36" stroke-width="3.4172" stroke-miterlimit="10" stroke-linecap="round" stroke-linejoin="round"/>
<path d="M224.781 124.042C224.885 125.39 222.668 126.42 222.086 126.661C221.263 127.005 220.804 127.013 220.142 126.248C219.583 125.604 218.419 123.223 219.085 122.327C220.157 120.857 224.697 122.974 224.781 124.042Z" fill="#F0866F"/>
<path opacity="0.3" d="M222.262 122.707C222.442 122.78 223.269 123.17 223.017 123.476C222.798 123.733 221.998 123.469 221.757 123.388C221.324 123.25 220.907 123.101 220.467 122.936C220.184 122.833 219.671 122.439 220.199 122.316C220.498 122.247 220.834 122.316 221.156 122.378C221.535 122.45 221.903 122.558 222.262 122.707Z" fill="#C7C7C7"/>
<path d="M234.838 121.106C233.919 117.665 229.701 118.251 228.771 120.222" stroke="#AE6D36" stroke-width="6.8344" stroke-miterlimit="10" stroke-linecap="round" stroke-linejoin="round"/>
<path d="M214.824 115.303C216.827 112.466 220.563 114.687 220.773 116.892" stroke="#AE6D36" stroke-width="6.8344" stroke-miterlimit="10" stroke-linecap="round" stroke-linejoin="round"/>
<path d="M253.42 116.171C255.181 111.202 257.826 98.2399 256.655 97.1106C255.258 96.3105 243.965 103.875 240.967 107.32C241.078 107.19 242.517 110.624 245.523 112.856C248.107 114.77 251.487 116.171 253.42 116.171Z" fill="#F4A061"/>
<path d="M256.276 104.645C256.242 104.878 256.196 105.127 256.158 105.368C255.522 108.948 254.447 113.235 253.616 115.624C252.624 115.505 251.774 115.333 250.978 115.081C249.998 114.77 249.095 114.361 248.13 113.775C247.142 113.174 245.73 112.213 245.014 111.245C244.688 110.804 243.111 109.132 243.643 108.335C246.059 104.752 255.174 98.7839 256.437 99.4309C256.445 99.4309 256.452 99.4385 256.452 99.4385C256.468 99.4577 256.495 99.4845 256.514 99.5151C256.87 100.066 256.705 102.114 256.276 104.645Z" fill="#F0866F"/>
<path d="M256.276 104.646C256.242 104.879 256.196 105.128 256.157 105.369C255.522 108.949 254.446 113.236 253.615 115.625C252.624 115.506 251.774 115.334 250.978 115.081L250.943 115.043C252.153 113.764 253.451 110.897 254.029 109.301C255.285 105.832 255.652 103.248 256.433 99.6039C256.448 99.5465 256.444 99.4891 256.444 99.4316C256.452 99.4316 256.46 99.4393 256.46 99.4393C256.475 99.4584 256.502 99.4852 256.521 99.5158C256.835 100.086 256.678 102.1 256.276 104.646Z" fill="#F0E8EB"/>
<path d="M248.807 159.847C248.807 159.847 248.792 160.085 248.761 160.529C248.727 161.103 248.673 161.849 248.562 162.849C248.444 163.852 248.279 165.092 247.942 166.589C247.601 168.082 247.1 169.85 246.151 171.787C245.216 173.713 243.727 175.811 241.737 177.377C240.753 178.161 239.673 178.808 238.575 179.298C233.326 181.664 227.798 179.295 222.818 177.258C221.21 176.603 219.644 175.949 218.14 175.363C216.938 174.892 214.005 174.253 213.465 173.568C210.759 175.133 209.584 178.743 208.213 181.526C207.543 182.885 207.176 183.705 207.176 183.705C206.441 185.351 204.622 186.036 203.114 185.228C201.763 184.505 201.12 182.832 201.533 181.304L201.545 181.258C201.545 181.258 201.79 180.343 202.295 178.72C202.812 177.105 203.554 174.773 204.909 171.967C208.55 164.414 213.653 163.794 220.731 165.521C222.431 165.946 224.104 166.401 225.742 166.838C228.254 167.5 230.738 168.442 233.353 168.373C233.211 168.373 233.066 168.396 232.92 168.4C236.258 166.964 235.305 162.443 235.412 159.38C235.546 155.522 238.069 152.222 241.725 151.992C245.423 151.758 248.593 154.844 248.807 158.886C248.823 159.193 248.823 159.495 248.807 159.794V159.847V159.847Z" fill="#F4A061"/>
<path d="M202.582 184.057C202.448 183.276 202.678 181.748 203.248 181.396" stroke="#E08B58" stroke-width="4.459" stroke-miterlimit="10" stroke-linecap="round" stroke-linejoin="round"/>
<path d="M204.213 184.903C204.079 184.122 204.313 182.594 204.879 182.242" stroke="#E08B58" stroke-width="4.459" stroke-miterlimit="10" stroke-linecap="round" stroke-linejoin="round"/>
<path d="M280.045 251.139C279.77 250.285 279.789 248.501 280.386 247.992" stroke="#E08B58" stroke-width="5.1258" stroke-miterlimit="10" stroke-linecap="round" stroke-linejoin="round"/>
<path d="M283.628 251.115C283.961 250.284 284.065 248.504 283.51 247.949" stroke="#E08B58" stroke-width="5.1258" stroke-miterlimit="10" stroke-linecap="round" stroke-linejoin="round"/>
</svg>
