<svg width="154" height="154" viewBox="0 0 154 154" fill="none" xmlns="http://www.w3.org/2000/svg">
<path d="M15.9878 -8.16216C-16.1698 -2.71739 -26.3248 21.3303 -21.5617 49.4622C-16.7985 77.5941 2.00983 104.654 34.1675 99.2093C66.3251 93.7645 89.2194 77.3608 84.4563 49.2289C79.6931 21.097 48.1455 -13.6069 15.9878 -8.16216Z" fill="#FFD68F"/>
<path d="M84.805 -17.1754C71.4914 -14.9212 65.3193 -7.4678 69.6513 0.0918646C71.673 12.0327 77.758 22.0908 91.0717 19.8366C104.385 17.5824 111.545 10.9362 109.523 -1.00466C102.946 -9.69202 98.1187 -19.4296 84.805 -17.1754Z" fill="#FFD68F"/>
<path d="M111.534 21.2724C98.2207 23.5266 87.2894 32.1627 91.6213 39.7224C94.2273 55.1135 105.232 64.9361 118.546 62.6819C131.859 60.4276 140.067 48.7036 138.045 36.7627C131.468 28.0753 124.848 19.0182 111.534 21.2724Z" fill="#FFD68F"/>
<path d="M104.147 70.0214C90.8329 72.2756 79.9016 80.9117 84.2336 88.4714C86.8395 103.863 97.8442 113.685 111.158 111.431C124.472 109.177 132.679 97.4526 130.657 85.5117C125.21 73.6174 117.46 67.7672 104.147 70.0214Z" fill="#FFD68F"/>
<path d="M65.8451 104.778C54.2702 106.738 44.7642 114.232 48.5275 120.787C50.7875 134.135 60.3508 142.651 71.9257 140.691C83.5005 138.731 90.6397 128.56 88.8863 118.204C84.1548 107.89 77.42 102.818 65.8451 104.778Z" fill="#FFD68F"/>
</svg>
