<svg  width="130" height="130" viewBox="0 0 169 140" fill="none" xmlns="http://www.w3.org/2000/svg">
<path d="M172 127.36C172 164.17 147.743 180.001 116.305 180.001C84.8666 180.001 52.0095 164.17 52.0095 127.36C52.0095 90.5495 65.619 61.9824 97.0572 61.9824C128.495 61.9824 172 90.5495 172 127.36Z" fill="#FFD68F"/>
<path d="M169.133 49.0823C169.133 64.3223 162.171 72.5948 153.162 69.1985C139.818 69.1985 127.771 64.3223 127.771 49.0823C127.771 33.8424 133.675 24.623 147.019 24.623C157.667 30.3053 169.133 33.8424 169.133 49.0823Z" fill="#FFD68F"/>
<path d="M122.448 26.5819C122.448 41.8219 115.076 55.6132 106.067 52.217C88.8668 52.217 76.1715 41.8219 76.1715 26.5819C76.1715 11.342 87.3987 0 100.743 0C111.391 5.68221 122.448 11.342 122.448 26.5819Z" fill="#FFD68F"/>
<path d="M70.8475 43.9882C70.8475 59.2281 63.4761 73.0195 54.4665 69.6232C37.2665 69.6232 24.5713 59.2281 24.5713 43.9882C24.5713 28.7483 35.7985 17.4062 49.1427 17.4062C63.0665 21.227 70.8475 28.7483 70.8475 43.9882Z" fill="#FFD68F"/>
<path d="M40.1333 93.1571C40.1333 106.407 33.7404 118.397 25.9268 115.444C11.01 115.444 0 106.407 0 93.1571C0 79.9076 9.73685 70.0469 21.3097 70.0469C33.3853 73.3686 40.1333 79.9076 40.1333 93.1571Z" fill="#FFD68F"/>
</svg>
